<svg width="140" height="140" viewBox="0 0 140 140" fill="none" xmlns="http://www.w3.org/2000/svg">
<g filter="url(#filter0_d_4947_54256)">
<rect x="10" y="5" width="120" height="120" rx="60" fill="white" shape-rendering="crispEdges"/>
<path d="M95.3776 72.6537C94.5523 72.6537 93.8833 73.326 93.8833 74.1555V87.4902C93.8804 89.9776 91.8754 91.9934 89.4004 91.9957H47.4716C44.9966 91.9934 42.9915 89.9776 42.9886 87.4902V48.3539C42.9915 45.867 44.9966 43.8513 47.4716 43.8483H60.7394C61.5648 43.8483 62.2337 43.176 62.2337 42.3465C62.2337 41.5176 61.5648 40.8447 60.7394 40.8447H47.4716C43.347 40.8494 40.0047 44.2085 40 48.3539V87.4908C40.0047 91.6361 43.347 94.9953 47.4716 95H89.4004C93.5249 94.9953 96.8673 91.6361 96.872 87.4908V74.1555C96.872 73.326 96.203 72.6537 95.3776 72.6537Z" fill="#1D1D1D"/>
<path d="M96.2785 36.9795C93.6523 34.3402 89.3947 34.3402 86.7686 36.9795L60.1091 63.7733C59.9264 63.9569 59.7945 64.1845 59.7256 64.4344L56.2198 77.1549C56.0757 77.6764 56.2222 78.2349 56.6028 78.618C56.9839 79.0005 57.5396 79.1477 58.0585 79.0034L70.7152 75.4794C70.9639 75.4102 71.1904 75.2776 71.3731 75.0939L98.0319 48.2996C100.654 45.6585 100.654 41.383 98.0319 38.7418L96.2785 36.9795ZM63.3651 64.7495L85.1838 42.8203L92.2205 49.8924L70.4012 71.8216L63.3651 64.7495ZM61.9595 67.5842L67.5813 73.2348L59.805 75.4002L61.9595 67.5842ZM95.9189 46.1759L94.3341 47.7687L87.2968 40.696L88.8822 39.1032C90.3409 37.6372 92.7061 37.6372 94.1648 39.1032L95.9189 40.8655C97.3753 42.3333 97.3753 44.7087 95.9189 46.1759Z" fill="#1EE0A1"/>
<rect x="100" y="5" width="30" height="30" rx="15" fill="#1EE0A1"/>
<path d="M112.838 17.08V15.48L114.998 13.8H116.278V25H114.838V15.56L112.838 17.08Z" fill="black"/>
</g>
<defs>
<filter id="filter0_d_4947_54256" x="0" y="0" width="140" height="140" filterUnits="userSpaceOnUse" color-interpolation-filters="sRGB">
<feFlood flood-opacity="0" result="BackgroundImageFix"/>
<feColorMatrix in="SourceAlpha" type="matrix" values="0 0 0 0 0 0 0 0 0 0 0 0 0 0 0 0 0 0 127 0" result="hardAlpha"/>
<feOffset dy="5"/>
<feGaussianBlur stdDeviation="5"/>
<feComposite in2="hardAlpha" operator="out"/>
<feColorMatrix type="matrix" values="0 0 0 0 0 0 0 0 0 0 0 0 0 0 0 0 0 0 0.2 0"/>
<feBlend mode="normal" in2="BackgroundImageFix" result="effect1_dropShadow_4947_54256"/>
<feBlend mode="normal" in="SourceGraphic" in2="effect1_dropShadow_4947_54256" result="shape"/>
</filter>
</defs>
</svg>
