<svg width="140" height="140" viewBox="0 0 140 140" fill="none" xmlns="http://www.w3.org/2000/svg">
<g filter="url(#filter0_d_4947_54277)">
<rect x="10" y="5" width="120" height="120" rx="60" fill="white" shape-rendering="crispEdges"/>
<path d="M69.9989 50.4224C73.2338 50.4224 75.8592 47.7974 75.8592 44.563C75.8592 41.3286 73.2338 38.7036 69.9989 38.7036C66.7641 38.7036 64.1387 41.3286 64.1387 44.563C64.1387 47.7739 66.7641 50.4224 69.9989 50.4224ZM69.9989 41.0942C71.8976 41.0942 73.4682 42.6411 73.4682 44.563C73.4682 46.4614 71.9211 48.0317 69.9989 48.0317C68.1002 48.0317 66.5297 46.4849 66.5297 44.563C66.5531 42.6411 68.1002 41.0942 69.9989 41.0942Z" fill="#1EE0A1"/>
<path d="M57.2466 73.1796C56.7544 73.2968 56.3793 73.7421 56.3559 74.2578L55.4651 87.9687C55.4417 88.5078 54.9963 88.9062 54.4572 88.9062H47.6593C47.1201 88.9062 46.6748 88.4843 46.6513 87.9687L45.7371 74.2812C45.7137 73.789 45.3621 73.3672 44.8932 73.2265C44.6354 73.1562 43.8853 72.9218 43.7681 72.7812C43.6743 72.6406 43.6274 71.8672 43.604 71.4687L42.7836 56.9609C43.9556 56.6093 45.8778 56 46.8857 55.6718L50.2378 58.8125C50.7066 59.2343 51.4098 59.2343 51.8787 58.8125L55.2307 55.6718C55.5589 55.7656 55.9574 55.9062 56.4028 56.0468C57.0357 56.2578 57.7155 55.9062 57.903 55.2734C58.114 54.6406 57.7624 53.9609 57.1294 53.7734C56.1215 53.4453 55.301 53.1875 55.301 53.1875C54.8791 53.0468 54.4337 53.164 54.1056 53.4453L51.0582 56.3047L48.0109 53.4453C47.6827 53.1406 47.2373 53.0468 46.8154 53.1875C46.8154 53.1875 43.604 54.2187 41.9866 54.7109C40.9786 55.0156 40.3691 55.8125 40.3691 56.8672C40.3691 56.9375 40.3691 57.125 40.3691 57.125L41.1661 71.4218C41.1661 71.4218 41.1661 71.6328 41.1896 71.6796C41.3302 73.789 41.635 74.5625 43.393 75.2421L44.2369 88.1328C44.3541 89.914 45.8543 91.3203 47.6358 91.3203H54.4337C56.2152 91.3203 57.7155 89.914 57.8327 88.1328L58.7 74.7734C58.7938 74.539 58.7938 74.2578 58.7234 74C58.5593 73.3671 57.8796 73.0156 57.2466 73.1796Z" fill="#1D1D1D"/>
<path d="M51.0341 51.2419C54.2689 51.2419 56.8943 48.6169 56.8943 45.3826C56.8943 42.1482 54.2689 39.5232 51.0341 39.5232C47.7992 39.5232 45.1738 42.1482 45.1738 45.3826C45.1738 48.6169 47.8227 51.2419 51.0341 51.2419ZM51.0341 41.9373C52.9328 41.9373 54.5033 43.4841 54.5033 45.406C54.5033 47.3279 52.9562 48.8748 51.0341 48.8748C49.1354 48.8748 47.5648 47.3279 47.5648 45.406C47.5648 43.4841 49.1354 41.9373 51.0341 41.9373Z" fill="#1D1D1D"/>
<path d="M79.0693 54.664C77.4519 54.1718 74.2405 53.1406 74.2405 53.1406C73.8186 53 73.3732 53.1172 73.045 53.3984L69.9977 56.2578L66.9504 53.3984C66.6222 53.0937 66.1768 53 65.7549 53.1406C65.7549 53.1406 62.5434 54.1718 60.926 54.664C59.8946 54.9687 59.3086 55.7656 59.3086 56.8203L60.1056 71.4218L60.129 71.6562C60.2697 73.7656 60.5744 74.5625 62.3325 75.2187L63.1764 88.1093C63.2936 89.8906 64.7938 91.2968 66.5753 91.2968H73.3966C75.1781 91.2968 76.6784 89.8906 76.7956 88.1093L77.6394 75.2187C79.3975 74.539 79.7022 73.7421 79.8429 71.6562L80.6633 57.0312V56.8203C80.6868 55.7422 80.1007 54.9687 79.0693 54.664ZM77.4754 71.2343L77.4519 71.4687C77.4285 71.8437 77.3816 72.5937 77.2878 72.7343C77.1706 72.875 76.3971 73.1093 76.1392 73.1796C75.6704 73.3203 75.3188 73.7421 75.2953 74.2578L74.4046 87.9453C74.3811 88.4843 73.9358 88.8828 73.3966 88.8828H66.5753C66.0362 88.8828 65.6142 88.4609 65.5673 87.9453L64.6766 74.2578C64.6531 73.7656 64.3015 73.3437 63.8327 73.1796C63.5749 73.1093 62.8247 72.875 62.7075 72.7343C62.6138 72.5937 62.5669 71.8203 62.5434 71.4687L61.723 56.9609V56.8906C62.8951 56.539 64.8172 55.9297 65.8252 55.6015L69.1772 58.7422C69.6461 59.164 70.3493 59.164 70.8181 58.7422L74.1702 55.625C75.1781 55.9531 77.1003 56.5625 78.2723 56.914L77.4754 71.2343Z" fill="#1EE0A1"/>
<path d="M98.0337 54.664C96.4163 54.1718 93.2049 53.1406 93.2049 53.1406C92.783 53 92.3376 53.1172 92.0094 53.3984L88.9621 56.2578L85.9148 53.3984C85.5866 53.0937 85.1412 53 84.7193 53.1406C84.7193 53.1406 83.8988 53.3984 82.8909 53.7265C82.258 53.9375 81.9064 54.5937 82.1173 55.2265C82.3283 55.8593 82.9846 56.2109 83.6175 56C84.0629 55.8593 84.4614 55.7187 84.7896 55.625L88.1417 58.7656C88.6105 59.1875 89.3137 59.1875 89.7825 58.7656L93.1346 55.625C94.1425 55.9531 96.0413 56.539 97.2368 56.914L96.4398 71.2343L96.4163 71.4687C96.3929 71.8437 96.346 72.5937 96.2522 72.7343C96.135 72.875 95.3615 73.1093 95.1036 73.1796C94.6348 73.3203 94.2832 73.7421 94.2597 74.2578L93.369 87.9453C93.3221 88.4843 92.8767 88.8828 92.361 88.8828H85.5397C85.024 88.8828 84.5786 88.4609 84.5317 87.9453L83.6175 74.2578C83.5941 73.7656 83.1956 73.3437 82.7268 73.1796C82.0939 72.9687 81.461 73.3203 81.25 73.9531C81.1797 74.1875 81.1797 74.4453 81.25 74.6562L82.1408 88.1093C82.258 89.8906 83.7348 91.2968 85.5397 91.2968H92.361C94.1425 91.2968 95.6428 89.8906 95.76 88.1093L96.6038 75.2187C98.3619 74.539 98.6666 73.7656 98.8073 71.6796C98.8073 71.5859 98.8307 71.375 98.8307 71.375L99.6277 57.0078V56.7968C99.6277 55.7656 99.0417 54.9687 98.0337 54.664Z" fill="#1D1D1D"/>
<path d="M88.9618 51.2419C92.1967 51.2419 94.8221 48.6169 94.8221 45.3826C94.8221 42.1482 92.1967 39.5232 88.9618 39.5232C85.727 39.5232 83.1016 42.1482 83.1016 45.3826C83.1016 48.6169 85.727 51.2419 88.9618 51.2419ZM88.9618 41.9373C90.8605 41.9373 92.4311 43.4841 92.4311 45.406C92.4311 47.3279 90.884 48.8748 88.9618 48.8748C87.0631 48.8748 85.4925 47.3279 85.4925 45.406C85.4925 43.4841 87.0396 41.9373 88.9618 41.9373Z" fill="#1D1D1D"/>
<rect x="100" y="5" width="30" height="30" rx="15" fill="#1EE0A1"/>
<path d="M110.642 21.96H112.162C112.258 22.3547 112.424 22.6907 112.658 22.968C113.192 23.6293 113.96 23.96 114.962 23.96C115.826 23.96 116.493 23.752 116.962 23.336C117.442 22.92 117.682 22.3813 117.682 21.72C117.682 21.0587 117.448 20.52 116.978 20.104C116.509 19.688 115.864 19.48 115.042 19.48H112.722V18.2L116.466 15.176L116.482 15.16H111.202V13.8H118.482V15.16L114.962 17.992L114.818 18.104L114.802 18.12H115.042C116.216 18.12 117.186 18.4773 117.954 19.192C118.733 19.896 119.122 20.7387 119.122 21.72C119.122 22.712 118.728 23.56 117.938 24.264C117.16 24.968 116.168 25.32 114.962 25.32C113.362 25.32 112.173 24.76 111.394 23.64C111.032 23.128 110.781 22.568 110.642 21.96Z" fill="black"/>
</g>
<defs>
<filter id="filter0_d_4947_54277" x="0" y="0" width="140" height="140" filterUnits="userSpaceOnUse" color-interpolation-filters="sRGB">
<feFlood flood-opacity="0" result="BackgroundImageFix"/>
<feColorMatrix in="SourceAlpha" type="matrix" values="0 0 0 0 0 0 0 0 0 0 0 0 0 0 0 0 0 0 127 0" result="hardAlpha"/>
<feOffset dy="5"/>
<feGaussianBlur stdDeviation="5"/>
<feComposite in2="hardAlpha" operator="out"/>
<feColorMatrix type="matrix" values="0 0 0 0 0 0 0 0 0 0 0 0 0 0 0 0 0 0 0.2 0"/>
<feBlend mode="normal" in2="BackgroundImageFix" result="effect1_dropShadow_4947_54277"/>
<feBlend mode="normal" in="SourceGraphic" in2="effect1_dropShadow_4947_54277" result="shape"/>
</filter>
</defs>
</svg>
