<svg width="140" height="140" viewBox="0 0 140 140" fill="none" xmlns="http://www.w3.org/2000/svg">
<g filter="url(#filter0_d_4947_54295)">
<rect x="10" y="5" width="120" height="120" rx="60" fill="white" shape-rendering="crispEdges"/>
<g clip-path="url(#clip0_4947_54295)">
<path d="M98.9359 35.0201C98.8098 35.0008 98.6817 35.0008 98.5557 35.0201C86.9132 37.3367 76.2013 43.0035 67.7362 51.3243L56.6728 51.8887C56.3612 51.9028 56.066 52.0324 55.8449 52.2524L44.4804 63.6152C43.9886 64.1029 43.9853 64.8971 44.4731 65.3889C44.7105 65.6281 45.0339 65.7618 45.371 65.7598H45.4588L58.2658 64.8819C57.7641 65.9354 57.2874 67.014 56.8484 68.1427C56.6663 68.6052 56.7745 69.1315 57.1243 69.4847L65.5536 77.9127C65.9069 78.2625 66.4332 78.3706 66.8958 78.1886C68.0623 77.7371 69.1661 77.2355 70.2574 76.7213L69.3794 89.6643C69.3395 90.3558 69.8679 90.9487 70.5596 90.9885C70.9133 91.0089 71.2593 90.8786 71.5118 90.63L82.8762 79.2672C83.0962 79.0462 83.2259 78.751 83.24 78.4395L83.817 67.1519C92.0688 58.701 97.6862 48.0344 99.9856 36.4498C100.091 35.7652 99.6206 35.1251 98.9359 35.0201ZM48.6324 62.9755L57.2874 54.3218L65.3278 53.9079C63.1365 56.4753 61.2154 59.2618 59.5954 62.223L48.6324 62.9755ZM80.7689 77.7998L72.1139 86.4536L72.8665 75.3417C75.8293 73.7141 78.6163 71.785 81.1828 69.585L80.7689 77.7998ZM66.7452 75.5172L59.4825 68.2556C68.6268 45.9188 90.7034 39.3344 97.1131 37.867C95.6706 44.3009 89.1229 66.3618 66.7452 75.5172Z" fill="#1D1D1D"/>
<path d="M53.8627 69.9992C53.3743 69.5039 52.5768 69.4983 52.0815 69.9866L40.4411 81.5752C39.9136 82.0243 39.8503 82.8159 40.2994 83.3432C40.5524 83.6403 40.9294 83.8027 41.3191 83.7825C41.6525 83.7844 41.973 83.6535 42.2097 83.4188L53.8501 71.7801C54.3455 71.2919 54.3511 70.4944 53.8627 69.9992Z" fill="#1EE0A1"/>
<path d="M54.1467 80.869C54.144 80.8661 54.1413 80.8632 54.1385 80.8603C53.6493 80.374 52.8591 80.374 52.3699 80.8603L40.7169 92.5617C40.1208 92.9146 39.9239 93.6839 40.2768 94.28C40.6298 94.876 41.3991 95.0729 41.9953 94.72C42.1767 94.6126 42.328 94.4613 42.4354 94.28L54.0758 82.6413C54.5849 82.1713 54.6166 81.3778 54.1467 80.869Z" fill="#1EE0A1"/>
<path d="M64.8781 81.1488C64.4085 80.7466 63.716 80.7466 63.2464 81.1488H63.284L51.6436 92.7875C51.1174 93.238 51.0561 94.0297 51.5067 94.5558C51.9573 95.082 52.7491 95.1433 53.2754 94.6927C53.3244 94.6507 53.3702 94.6049 53.4122 94.5558L65.015 82.9171C65.4655 82.3912 65.4042 81.5993 64.8781 81.1488Z" fill="#1EE0A1"/>
<path d="M83.5253 45.894C80.4494 45.8947 77.9564 48.3883 77.957 51.4637C77.9573 52.9405 78.5442 54.3566 79.5888 55.4007C80.6312 56.4484 82.0494 57.0355 83.5275 57.0311C86.6033 57.0305 89.0963 54.5369 89.0957 51.4615C89.0951 48.3861 86.6011 45.8934 83.5253 45.894ZM85.6975 53.6824C84.4797 54.8694 82.5376 54.8694 81.3198 53.6824C80.1252 52.4875 80.1252 50.5505 81.3198 49.3556V49.3054C82.5287 48.0967 84.4886 48.0967 85.6975 49.3054C86.9064 50.5141 86.9064 52.4737 85.6975 53.6824Z" fill="#1EE0A1"/>
</g>
<rect x="100" y="5" width="30" height="30" rx="15" fill="#1EE0A1"/>
<path d="M110.64 22.6V21.24L114.56 13.8H116.16L112.24 21.24H116.48V18.36H116.56H117.92V21.24H119.6V22.6H117.92V25H116.48V22.6H110.64Z" fill="black"/>
</g>
<defs>
<filter id="filter0_d_4947_54295" x="0" y="0" width="140" height="140" filterUnits="userSpaceOnUse" color-interpolation-filters="sRGB">
<feFlood flood-opacity="0" result="BackgroundImageFix"/>
<feColorMatrix in="SourceAlpha" type="matrix" values="0 0 0 0 0 0 0 0 0 0 0 0 0 0 0 0 0 0 127 0" result="hardAlpha"/>
<feOffset dy="5"/>
<feGaussianBlur stdDeviation="5"/>
<feComposite in2="hardAlpha" operator="out"/>
<feColorMatrix type="matrix" values="0 0 0 0 0 0 0 0 0 0 0 0 0 0 0 0 0 0 0.2 0"/>
<feBlend mode="normal" in2="BackgroundImageFix" result="effect1_dropShadow_4947_54295"/>
<feBlend mode="normal" in="SourceGraphic" in2="effect1_dropShadow_4947_54295" result="shape"/>
</filter>
<clipPath id="clip0_4947_54295">
<rect width="60" height="59.9912" fill="white" transform="translate(40 35.0044)"/>
</clipPath>
</defs>
</svg>
