<svg width="140" height="140" viewBox="0 0 140 140" fill="none" xmlns="http://www.w3.org/2000/svg">
<g filter="url(#filter0_d_4947_54246)">
<rect x="10" y="5" width="120" height="120" rx="60" fill="white" shape-rendering="crispEdges"/>
<path d="M84.5674 57.1202C81.1199 57.1202 78.3174 54.3625 78.3174 50.9757C78.3174 47.5888 81.1199 44.8312 84.5674 44.8312C88.0149 44.8312 90.8174 47.5888 90.8174 50.9757C90.8174 54.3625 88.0149 57.1202 84.5674 57.1202ZM84.5674 47.289C82.4999 47.289 80.8174 48.9431 80.8174 50.9757C80.8174 53.0083 82.4999 54.6624 84.5674 54.6624C86.6349 54.6624 88.3174 53.0083 88.3174 50.9757C88.3174 48.9431 86.6349 47.289 84.5674 47.289Z" fill="#1EE0A1"/>
<path d="M86.5625 66.9514H82.5725C81.2825 66.9514 80.215 66.0002 80.0875 64.7369L79.7675 61.613C79.01 61.2812 78.2875 60.8683 77.605 60.3768L74.6875 61.672C73.505 62.1955 72.135 61.7581 71.4925 60.6619L69.5 57.2677C68.8525 56.1715 69.155 54.7853 70.2025 54.043L72.7775 52.2243C72.73 51.8433 72.6925 51.4181 72.6925 50.9757C72.6925 50.5333 72.73 50.1081 72.7775 49.7296L70.2025 47.9108C69.155 47.1686 68.8525 45.7799 69.5 44.6837L71.4925 41.292C72.1375 40.1909 73.515 39.7583 74.685 40.2794L77.605 41.5771C78.2875 41.0855 79.01 40.6726 79.7675 40.3408L80.0875 37.212C80.215 35.9512 81.285 35 82.5725 35H86.5625C87.8525 35 88.92 35.9512 89.0475 37.2145L89.3675 40.3383C90.125 40.6701 90.85 41.0855 91.53 41.5746L94.4475 40.2794C95.6325 39.7583 97 40.1933 97.6425 41.2895L99.635 44.6837C100.283 45.7799 99.98 47.1661 98.9325 47.9084L96.3575 49.7271C96.405 50.1081 96.4425 50.5333 96.4425 50.9757C96.4425 51.4181 96.405 51.8433 96.3575 52.2218L98.9325 54.0406C99.98 54.7828 100.283 56.1715 99.635 57.2677L97.6425 60.6594C96.995 61.7581 95.615 62.1882 94.45 61.672L91.53 60.3743C90.8475 60.8659 90.125 61.2788 89.3675 61.6106L89.0475 64.7394C88.92 66.0002 87.85 66.9514 86.5625 66.9514ZM77.78 57.7223C78.0675 57.7223 78.3525 57.8207 78.5825 58.0099C79.43 58.7079 80.3675 59.2413 81.365 59.6001C81.815 59.7623 82.1325 60.1629 82.1775 60.6324L82.5725 64.4936H86.5625L86.955 60.6324C87.0025 60.1629 87.32 59.7623 87.7675 59.6001C88.765 59.2413 89.7025 58.7055 90.55 58.0099C90.9175 57.7076 91.4275 57.6388 91.8675 57.8329L95.475 59.4354L97.47 56.0412L94.275 53.785C93.8875 53.5097 93.6925 53.0378 93.775 52.5733C93.87 52.0497 93.9425 51.5238 93.9425 50.9757C93.9425 50.4276 93.87 49.9016 93.7775 49.383C93.695 48.9185 93.89 48.4491 94.2775 48.1713L97.4725 45.9151L95.48 42.5209L91.87 44.1209C91.4275 44.3151 90.92 44.2438 90.5525 43.9439C89.7075 43.2459 88.77 42.7126 87.77 42.3537C87.32 42.1915 87.0025 41.7909 86.9575 41.3215L86.5625 37.4578H82.5725L82.18 41.319C82.1325 41.7884 81.815 42.1891 81.3675 42.3513C80.37 42.7101 79.4325 43.2459 78.585 43.9415C78.2175 44.2438 77.71 44.3126 77.2675 44.1184L73.66 42.5159L71.6625 45.9126L74.8575 48.1689C75.245 48.4442 75.44 48.9161 75.3575 49.3806C75.265 49.9016 75.1925 50.4276 75.1925 50.9757C75.1925 51.5238 75.265 52.0497 75.3575 52.5683C75.44 53.0329 75.245 53.5023 74.8575 53.78L71.6625 56.0388L73.655 59.433L77.265 57.8329C77.4325 57.7568 77.6075 57.7223 77.78 57.7223Z" fill="#1EE0A1"/>
<path fill-rule="evenodd" clip-rule="evenodd" d="M48.75 90.0844H41.25C40.56 90.0844 40 89.5338 40 88.8555V66.7353C40 66.0569 40.56 65.5064 41.25 65.5064C49.7525 65.5064 54.245 68.323 54.4325 68.4434C54.88 68.731 55.0925 69.2643 54.96 69.7756L54.8233 70.3056L77.7167 75.7405C80.3946 76.3537 82.3087 78.6067 82.4858 81.2947C82.8768 81.1753 83.2679 81.054 83.6573 80.9333L83.6867 80.9242C86.6942 79.9902 89.8067 79.0243 92.4992 79.0243C98.3342 79.0243 99.8717 83.3672 99.9367 83.5516C100.129 84.1193 99.8767 84.7436 99.3392 85.0263L99.3372 85.0273C98.5302 85.4482 80.2176 95 72.4992 95C67.0191 95 56.756 90.7766 50.2981 87.847L49.96 89.1578C49.8225 89.7034 49.3225 90.0844 48.75 90.0844ZM79.9992 82.0097V81.7032C79.9992 79.9876 78.8217 78.5178 77.1392 78.132L54.2086 72.6882L50.923 85.4247C60.8405 89.9547 68.672 92.5422 72.4992 92.5422C78.5817 92.5422 92.9117 85.5203 97.0342 83.4312C96.3842 82.598 95.0417 81.4821 92.4992 81.4821C90.1997 81.4821 87.287 82.3852 84.4662 83.2598L84.4367 83.2689C81.4292 84.2029 78.3167 85.1688 75.6242 85.1688C70.4642 85.1688 63.6092 82.7405 63.3217 82.6373C62.6717 82.4062 62.3367 81.7009 62.5742 81.0618C62.8092 80.4253 63.5242 80.0984 64.1767 80.327C64.2417 80.3515 70.9067 82.711 75.6242 82.711C76.9282 82.711 78.4294 82.4206 79.9992 82.0097ZM52.0711 70.9801L48.2864 85.6536C48.2462 85.7532 48.2204 85.8554 48.2079 85.9577L47.7775 87.6266H42.5V67.9863C47.5775 68.1706 50.8925 69.4389 52.2975 70.1025L52.1081 70.8367C52.0992 70.8643 52.0912 70.8923 52.0842 70.9208C52.0793 70.9406 52.075 70.9603 52.0711 70.9801Z" fill="#1D1D1D"/>
<rect x="100" y="5" width="30" height="30" rx="15" fill="#1EE0A1"/>
<path d="M110.878 21.96H112.318C112.414 22.3547 112.579 22.6907 112.814 22.968C113.347 23.6293 114.115 23.96 115.118 23.96C115.939 23.96 116.595 23.7307 117.086 23.272C117.587 22.8133 117.838 22.216 117.838 21.48C117.838 20.744 117.587 20.1467 117.086 19.688C116.595 19.2293 115.939 19 115.118 19C114.382 19 113.747 19.2027 113.214 19.608C112.99 19.768 112.798 19.9653 112.638 20.2H111.358L111.838 13.8H118.478V15.16H113.038L112.798 18.424V18.44C112.979 18.28 113.182 18.1467 113.406 18.04C114.003 17.7733 114.627 17.64 115.278 17.64C116.43 17.64 117.385 18.008 118.142 18.744C118.899 19.48 119.278 20.392 119.278 21.48C119.278 22.5787 118.889 23.496 118.11 24.232C117.342 24.9573 116.345 25.32 115.118 25.32C113.539 25.32 112.361 24.76 111.582 23.64C111.219 23.1387 110.985 22.5787 110.878 21.96Z" fill="black"/>
</g>
<defs>
<filter id="filter0_d_4947_54246" x="0" y="0" width="140" height="140" filterUnits="userSpaceOnUse" color-interpolation-filters="sRGB">
<feFlood flood-opacity="0" result="BackgroundImageFix"/>
<feColorMatrix in="SourceAlpha" type="matrix" values="0 0 0 0 0 0 0 0 0 0 0 0 0 0 0 0 0 0 127 0" result="hardAlpha"/>
<feOffset dy="5"/>
<feGaussianBlur stdDeviation="5"/>
<feComposite in2="hardAlpha" operator="out"/>
<feColorMatrix type="matrix" values="0 0 0 0 0 0 0 0 0 0 0 0 0 0 0 0 0 0 0.2 0"/>
<feBlend mode="normal" in2="BackgroundImageFix" result="effect1_dropShadow_4947_54246"/>
<feBlend mode="normal" in="SourceGraphic" in2="effect1_dropShadow_4947_54246" result="shape"/>
</filter>
</defs>
</svg>
