<svg width="149" height="13" viewBox="0 0 149 13" fill="none" xmlns="http://www.w3.org/2000/svg">
<path d="M0.91375 12L3.79375 0.799999H8.19375L11.0738 12H9.63375L8.75375 8.72H3.23375L2.35375 12H0.91375ZM3.55375 7.36H8.43375L7.07375 2.16H4.91375L3.55375 7.36ZM11.7906 5.2V4H12.8306V2.24H14.1106V4H16.6706V5.2H14.1106V10.8H16.7506V12H12.8306V5.2H11.7906ZM18.3544 12V0.799999H19.6344V10.8H21.4744V12H18.3544ZM23.4006 10.976C22.654 10.176 22.2806 9.184 22.2806 8C22.2806 6.816 22.654 5.82933 23.4006 5.04C24.1473 4.24 25.054 3.84 26.1206 3.84C26.7926 3.84 27.358 3.968 27.8166 4.224C28.286 4.48 28.6273 4.75733 28.8406 5.056L28.9846 5.296H29.0006V4H30.2806V12H29.0006V10.72H28.9846L28.8406 10.944C28.6486 11.232 28.318 11.5093 27.8486 11.776C27.3793 12.032 26.8033 12.16 26.1206 12.16C25.054 12.16 24.1473 11.7653 23.4006 10.976ZM24.3286 5.872C23.8166 6.42667 23.5606 7.136 23.5606 8C23.5606 8.864 23.8166 9.57333 24.3286 10.128C24.8513 10.6827 25.502 10.96 26.2806 10.96C27.0593 10.96 27.7046 10.6827 28.2166 10.128C28.7393 9.57333 29.0006 8.864 29.0006 8C29.0006 7.136 28.7393 6.42667 28.2166 5.872C27.7046 5.31733 27.0593 5.04 26.2806 5.04C25.502 5.04 24.8513 5.31733 24.3286 5.872ZM32.5263 12V4H33.8063V5.2H33.8223C33.9823 4.944 34.1903 4.72 34.4463 4.528C35.0329 4.06933 35.7263 3.84 36.5263 3.84C37.4969 3.84 38.2703 4.14933 38.8463 4.768C39.4329 5.376 39.7263 6.21333 39.7263 7.28V12H38.4463V7.36C38.4463 6.592 38.2543 6.016 37.8703 5.632C37.4863 5.23733 36.9583 5.04 36.2863 5.04C35.5503 5.04 34.9529 5.28533 34.4943 5.776C34.0356 6.256 33.8063 6.89067 33.8063 7.68V12H32.5263ZM41.1656 5.2V4H42.2056V2.24H43.4856V4H46.0456V5.2H43.4856V10.8H46.1256V12H42.2056V5.2H41.1656ZM47.2494 8.8H48.6894C48.8067 9.20533 48.9987 9.568 49.2654 9.888C49.8627 10.6027 50.7374 10.96 51.8894 10.96C52.8067 10.96 53.5 10.7787 53.9694 10.416C54.4494 10.0533 54.6894 9.59467 54.6894 9.04C54.6894 8.57067 54.4974 8.19733 54.1134 7.92C53.7294 7.64267 53.1854 7.40267 52.4814 7.2C52.3534 7.15733 52.1454 7.09867 51.8574 7.024C51.58 6.94933 51.3614 6.89067 51.2014 6.848C51.0414 6.80533 50.828 6.74133 50.5614 6.656C50.2947 6.57067 50.0814 6.496 49.9214 6.432C49.7614 6.35733 49.5694 6.26667 49.3454 6.16C49.1214 6.04267 48.94 5.93067 48.8014 5.824C48.6734 5.71733 48.5294 5.58933 48.3694 5.44C48.22 5.28 48.1027 5.11467 48.0174 4.944C47.9427 4.77333 47.8734 4.58133 47.8094 4.368C47.756 4.15467 47.7294 3.92533 47.7294 3.68C47.7294 2.80533 48.0974 2.05333 48.8334 1.424C49.5694 0.794666 50.5347 0.48 51.7294 0.48C53.308 0.48 54.5027 1.00267 55.3134 2.048C55.6547 2.50667 55.9 3.024 56.0494 3.6H54.6094C54.5134 3.30133 54.3427 3.008 54.0974 2.72C53.5107 2.13333 52.7214 1.84 51.7294 1.84C50.9294 1.84 50.3 2.02133 49.8414 2.384C49.3934 2.736 49.1694 3.168 49.1694 3.68C49.1694 3.92533 49.2387 4.14933 49.3774 4.352C49.516 4.55467 49.6814 4.72533 49.8734 4.864C50.0654 4.992 50.332 5.12533 50.6734 5.264C51.0254 5.392 51.3347 5.49333 51.6014 5.568C51.868 5.64267 52.22 5.73333 52.6574 5.84C53.148 5.968 53.58 6.112 53.9534 6.272C54.3267 6.432 54.6894 6.63467 55.0414 6.88C55.3934 7.12533 55.66 7.42933 55.8414 7.792C56.0334 8.15467 56.1294 8.57067 56.1294 9.04C56.1294 9.95733 55.7507 10.736 54.9934 11.376C54.236 12.0053 53.2014 12.32 51.8894 12.32C50.172 12.32 48.8867 11.7333 48.0334 10.56C47.66 10.0587 47.3987 9.472 47.2494 8.8ZM58.6678 10.976C57.8784 10.1867 57.4838 9.19467 57.4838 8C57.4838 6.80533 57.8784 5.81333 58.6678 5.024C59.4571 4.23467 60.4491 3.84 61.6438 3.84C62.8384 3.84 63.8304 4.23467 64.6198 5.024C65.4091 5.81333 65.8038 6.80533 65.8038 8C65.8038 9.19467 65.4091 10.1867 64.6198 10.976C63.8304 11.7653 62.8384 12.16 61.6438 12.16C60.4491 12.16 59.4571 11.7653 58.6678 10.976ZM59.5798 5.872C59.0358 6.42667 58.7638 7.136 58.7638 8C58.7638 8.864 59.0358 9.57333 59.5798 10.128C60.1238 10.6827 60.8118 10.96 61.6438 10.96C62.4758 10.96 63.1638 10.6827 63.7078 10.128C64.2518 9.57333 64.5238 8.864 64.5238 8C64.5238 7.136 64.2518 6.42667 63.7078 5.872C63.1638 5.31733 62.4758 5.04 61.6438 5.04C60.8118 5.04 60.1238 5.31733 59.5798 5.872ZM66.8375 5.2V4H67.8775V0.799999H74.0375V4H76.5975V5.2H74.0375V10.8H76.6775V12H72.7575V5.2H69.1575V12H67.8775V5.2H66.8375ZM69.1575 4H72.7575V2H69.1575V4ZM77.6363 4H78.9963L80.4363 10.8H80.8363L82.1963 4H84.5163L85.8763 10.8H86.2763L87.7163 4H89.0763L87.3163 12H84.8363L83.4763 5.2H83.2363L81.8763 12H79.3963L77.6363 4ZM91.3225 10.976C90.5758 10.176 90.2025 9.184 90.2025 8C90.2025 6.816 90.5758 5.82933 91.3225 5.04C92.0692 4.24 92.9758 3.84 94.0425 3.84C94.7145 3.84 95.2798 3.968 95.7385 4.224C96.2078 4.48 96.5492 4.75733 96.7625 5.056L96.9065 5.296H96.9225V4H98.2025V12H96.9225V10.72H96.9065L96.7625 10.944C96.5705 11.232 96.2398 11.5093 95.7705 11.776C95.3012 12.032 94.7252 12.16 94.0425 12.16C92.9758 12.16 92.0692 11.7653 91.3225 10.976ZM92.2505 5.872C91.7385 6.42667 91.4825 7.136 91.4825 8C91.4825 8.864 91.7385 9.57333 92.2505 10.128C92.7732 10.6827 93.4238 10.96 94.2025 10.96C94.9812 10.96 95.6265 10.6827 96.1385 10.128C96.6612 9.57333 96.9225 8.864 96.9225 8C96.9225 7.136 96.6612 6.42667 96.1385 5.872C95.6265 5.31733 94.9812 5.04 94.2025 5.04C93.4238 5.04 92.7732 5.31733 92.2505 5.872ZM100.448 12V4H101.728V5.28H101.744C101.893 5.01333 102.075 4.78933 102.288 4.608C102.811 4.14933 103.451 3.92 104.208 3.92H105.168V5.2H104.208C103.483 5.2 102.885 5.43467 102.416 5.904C101.957 6.36267 101.728 6.95467 101.728 7.68V12H100.448ZM107.214 10.976C106.436 10.1867 106.046 9.19467 106.046 8C106.046 6.80533 106.436 5.81333 107.214 5.024C107.993 4.23467 108.964 3.84 110.126 3.84C111.289 3.84 112.26 4.22933 113.038 5.008C113.817 5.78667 114.206 6.75733 114.206 7.92V8.4H107.326C107.412 9.14667 107.716 9.76 108.238 10.24C108.761 10.72 109.39 10.96 110.126 10.96C110.916 10.96 111.593 10.72 112.158 10.24C112.414 10.0267 112.617 9.78667 112.766 9.52H114.046C113.854 10.0213 113.582 10.464 113.23 10.848C112.398 11.7227 111.364 12.16 110.126 12.16C108.964 12.16 107.993 11.7653 107.214 10.976ZM107.358 7.28H112.846C112.75 6.65067 112.457 6.12267 111.966 5.696C111.476 5.25867 110.862 5.04 110.126 5.04C109.39 5.04 108.772 5.25867 108.27 5.696C107.769 6.12267 107.465 6.65067 107.358 7.28ZM120.608 12V0.799999H122.048V10.64H127.888V12H120.608ZM129.249 12V0.799999H130.689V10.64H136.529V12H129.249ZM138.977 10.656C137.879 9.536 137.329 8.11733 137.329 6.4C137.329 4.68267 137.879 3.26933 138.977 2.16C140.087 1.04 141.484 0.48 143.169 0.48C145.057 0.48 146.545 1.16267 147.633 2.528C148.113 3.11467 148.465 3.792 148.689 4.56H147.249C147.025 4.02667 146.743 3.57333 146.401 3.2C145.559 2.29333 144.481 1.84 143.169 1.84C141.879 1.84 140.823 2.26133 140.001 3.104C139.18 3.94667 138.769 5.04533 138.769 6.4C138.769 7.75467 139.18 8.85333 140.001 9.696C140.823 10.5387 141.879 10.96 143.169 10.96C144.503 10.96 145.607 10.4693 146.481 9.488C146.833 9.08267 147.116 8.58667 147.329 8H148.769C148.513 8.832 148.14 9.552 147.649 10.16C146.529 11.6 145.036 12.32 143.169 12.32C141.484 12.32 140.087 11.7653 138.977 10.656Z" fill="#959595"/>
</svg>
