<svg width="284" height="243" viewBox="0 0 284 243" fill="none" xmlns="http://www.w3.org/2000/svg">
<g filter="url(#filter0_d_301_12491)">
<rect x="10" y="5" width="264" height="223" rx="8" fill="white"/>
<rect x="10.5" y="5.5" width="263" height="222" rx="7.5" stroke="#D9D9D9"/>
</g>
<path d="M98.1539 50V36H100.454V41.8H102.754L106.954 36H109.654L104.754 42.7L109.854 50H107.054L102.854 44H100.454V50H98.1539ZM111.312 48.74C110.405 47.7533 109.952 46.4733 109.952 44.9C109.952 43.3267 110.405 42.0533 111.312 41.08C112.232 40.0933 113.378 39.6 114.752 39.6C115.618 39.6 116.412 39.8533 117.132 40.36C117.438 40.5733 117.712 40.82 117.952 41.1H118.052V39.8H120.152V50H118.052V48.6H117.952C117.752 48.88 117.478 49.1467 117.132 49.4C116.412 49.9333 115.618 50.2 114.752 50.2C113.378 50.2 112.232 49.7133 111.312 48.74ZM112.952 42.38C112.418 42.9667 112.152 43.8067 112.152 44.9C112.152 45.9933 112.418 46.8333 112.952 47.42C113.485 48.0067 114.218 48.3 115.152 48.3C116.032 48.3 116.732 48.0067 117.252 47.42C117.785 46.82 118.052 45.98 118.052 44.9C118.052 43.82 117.785 42.9867 117.252 42.4C116.732 41.8 116.032 41.5 115.152 41.5C114.218 41.5 113.485 41.7933 112.952 42.38ZM122.244 43.6V39.8H124.344V43.4C124.344 44 124.517 44.4667 124.864 44.8C125.21 45.1333 125.704 45.3 126.344 45.3C127.117 45.3 127.757 45.2 128.264 45C128.517 44.92 128.71 44.82 128.844 44.7V39.8H130.944V50H128.844V46.5C128.63 46.6467 128.404 46.7667 128.164 46.86C127.59 47.0867 126.917 47.2 126.144 47.2C124.904 47.2 123.944 46.88 123.264 46.24C122.584 45.6 122.244 44.72 122.244 43.6ZM134.245 48.68C133.245 47.6533 132.745 46.3933 132.745 44.9C132.745 43.4067 133.245 42.1533 134.245 41.14C135.258 40.1133 136.491 39.6 137.945 39.6C139.398 39.6 140.625 40.1133 141.625 41.14C142.638 42.1533 143.145 43.4067 143.145 44.9V45.6H134.845C135.005 46.44 135.371 47.1 135.945 47.58C136.518 48.06 137.185 48.3 137.945 48.3C138.878 48.3 139.625 48.0667 140.185 47.6C140.438 47.4133 140.658 47.18 140.845 46.9H143.045C142.765 47.5533 142.411 48.1067 141.985 48.56C140.891 49.6533 139.545 50.2 137.945 50.2C136.491 50.2 135.258 49.6933 134.245 48.68ZM134.945 43.9H140.945C140.825 43.2333 140.505 42.6667 139.985 42.2C139.478 41.7333 138.798 41.5 137.945 41.5C137.225 41.5 136.585 41.72 136.025 42.16C135.465 42.5867 135.105 43.1667 134.945 43.9ZM145.806 48.7C144.833 47.7 144.346 46.4333 144.346 44.9C144.346 43.3667 144.833 42.1 145.806 41.1C146.779 40.1 147.993 39.6 149.446 39.6C151.073 39.6 152.399 40.22 153.426 41.46C153.866 42.0333 154.173 42.6467 154.346 43.3H152.146C152.053 42.9667 151.879 42.6667 151.626 42.4C151.106 41.8 150.379 41.5 149.446 41.5C148.619 41.5 147.926 41.8133 147.366 42.44C146.819 43.0667 146.546 43.8867 146.546 44.9C146.546 45.9133 146.819 46.7333 147.366 47.36C147.926 47.9867 148.619 48.3 149.446 48.3C150.406 48.3 151.159 48 151.706 47.4C151.946 47.1333 152.126 46.8333 152.246 46.5H154.346C154.173 47.18 153.866 47.8 153.426 48.36C152.413 49.5867 151.086 50.2 149.446 50.2C147.993 50.2 146.779 49.7 145.806 48.7ZM154.94 41.7V39.8H163.84V41.7H160.44V50H158.34V41.7H154.94ZM165.141 50V39.8H170.241C171.215 39.8 171.975 40.0333 172.521 40.5C173.068 40.9667 173.341 41.5667 173.341 42.3C173.341 43.0867 173.075 43.6933 172.541 44.12C172.275 44.32 172.008 44.4467 171.741 44.5V44.58C172.088 44.6333 172.421 44.7667 172.741 44.98C173.408 45.4333 173.741 46.1333 173.741 47.08C173.741 47.9067 173.428 48.6 172.801 49.16C172.175 49.72 171.355 50 170.341 50H165.141ZM167.241 43.8H170.041C170.841 43.8 171.241 43.4333 171.241 42.7C171.241 42.0333 170.841 41.7 170.041 41.7H167.241V43.8ZM167.241 48.1H170.241C170.681 48.1 171.021 47.9867 171.261 47.76C171.515 47.52 171.641 47.2 171.641 46.8C171.641 46.44 171.515 46.1533 171.261 45.94C171.021 45.7133 170.681 45.6 170.241 45.6H167.241V48.1ZM176.569 48.68C175.556 47.6533 175.049 46.3933 175.049 44.9C175.049 43.4067 175.556 42.1533 176.569 41.14C177.596 40.1133 178.856 39.6 180.349 39.6C181.843 39.6 183.096 40.1133 184.109 41.14C185.136 42.1533 185.649 43.4067 185.649 44.9C185.649 46.3933 185.136 47.6533 184.109 48.68C183.096 49.6933 181.843 50.2 180.349 50.2C178.856 50.2 177.596 49.6933 176.569 48.68ZM178.109 42.44C177.536 43.0533 177.249 43.8733 177.249 44.9C177.249 45.9267 177.536 46.7533 178.109 47.38C178.683 47.9933 179.429 48.3 180.349 48.3C181.269 48.3 182.016 47.9933 182.589 47.38C183.163 46.7533 183.449 45.9267 183.449 44.9C183.449 43.8733 183.163 43.0533 182.589 42.44C182.016 41.8133 181.269 41.5 180.349 41.5C179.429 41.5 178.683 41.8133 178.109 42.44Z" fill="#1D1D1D"/>
<path d="M54.1727 124.656C53.074 123.536 52.5247 122.117 52.5247 120.4C52.5247 118.683 53.074 117.269 54.1727 116.16C55.282 115.04 56.6794 114.48 58.3647 114.48C60.05 114.48 61.442 115.04 62.5407 116.16C63.65 117.269 64.2047 118.683 64.2047 120.4C64.2047 122.117 63.65 123.536 62.5407 124.656C61.442 125.765 60.05 126.32 58.3647 126.32C56.6794 126.32 55.282 125.765 54.1727 124.656ZM55.1967 117.104C54.3754 117.947 53.9647 119.045 53.9647 120.4C53.9647 121.755 54.3754 122.853 55.1967 123.696C56.018 124.539 57.074 124.96 58.3647 124.96C59.6554 124.96 60.7114 124.539 61.5327 123.696C62.354 122.853 62.7647 121.755 62.7647 120.4C62.7647 119.045 62.354 117.947 61.5327 117.104C60.7114 116.261 59.6554 115.84 58.3647 115.84C57.074 115.84 56.018 116.261 55.1967 117.104ZM65.5697 121.68C65.5697 119.269 66.0124 117.52 66.8977 116.432C67.783 115.344 69.1004 114.8 70.8497 114.8H72.7697V116.16H70.8497C69.5804 116.16 68.631 116.459 68.0017 117.056C67.383 117.643 66.999 118.597 66.8497 119.92H66.8657C67.0257 119.685 67.239 119.472 67.5057 119.28C68.103 118.853 68.8177 118.64 69.6497 118.64C70.7377 118.64 71.6337 118.997 72.3377 119.712C73.0524 120.416 73.4097 121.312 73.4097 122.4C73.4097 123.499 73.0417 124.4 72.3057 125.104C71.5804 125.808 70.6417 126.16 69.4897 126.16C68.3057 126.16 67.3564 125.765 66.6417 124.976C65.927 124.187 65.5697 123.088 65.5697 121.68ZM67.6017 120.576C67.1004 121.067 66.8497 121.675 66.8497 122.4C66.8497 123.125 67.1004 123.733 67.6017 124.224C68.103 124.715 68.7324 124.96 69.4897 124.96C70.247 124.96 70.8764 124.715 71.3777 124.224C71.879 123.733 72.1297 123.125 72.1297 122.4C72.1297 121.675 71.879 121.067 71.3777 120.576C70.8764 120.085 70.247 119.84 69.4897 119.84C68.7324 119.84 68.103 120.085 67.6017 120.576ZM75.0028 126V118H76.2828V124.8H79.4828V118H80.7628V124.8H83.9628V118H85.2428V124.8H86.3628V127.84H85.0828V126H75.0028ZM87.7216 126V118H89.0016V124L88.9856 124.16H89.0176L93.3216 118H94.7616V126H93.4816V120L93.4976 119.84H93.4656L89.1616 126H87.7216ZM97.0028 126V118H98.2828V124L98.2668 124.16H98.2988L102.603 118H104.043V126H102.763V120L102.779 119.84H102.747L98.4428 126H97.0028ZM98.1548 114.8H99.3548C99.3548 115.088 99.4561 115.323 99.6588 115.504C99.8615 115.675 100.16 115.76 100.555 115.76C100.949 115.76 101.248 115.675 101.451 115.504C101.653 115.323 101.755 115.088 101.755 114.8H102.955C102.955 115.387 102.741 115.867 102.315 116.24C101.888 116.613 101.301 116.8 100.555 116.8C99.8081 116.8 99.2215 116.613 98.7948 116.24C98.3681 115.867 98.1548 115.387 98.1548 114.8ZM110.768 129.04V118H112.048V119.28H112.064L112.224 119.04C112.406 118.763 112.731 118.496 113.2 118.24C113.67 117.973 114.246 117.84 114.928 117.84C115.995 117.84 116.902 118.24 117.648 119.04C118.395 119.829 118.768 120.816 118.768 122C118.768 123.184 118.395 124.176 117.648 124.976C116.902 125.765 115.995 126.16 114.928 126.16C114.246 126.16 113.664 126.032 113.184 125.776C112.715 125.509 112.395 125.232 112.224 124.944L112.064 124.72H112.048V129.04H110.768ZM112.816 119.872C112.304 120.427 112.048 121.136 112.048 122C112.048 122.864 112.304 123.573 112.816 124.128C113.339 124.683 113.99 124.96 114.768 124.96C115.547 124.96 116.192 124.683 116.704 124.128C117.227 123.573 117.488 122.864 117.488 122C117.488 121.136 117.227 120.427 116.704 119.872C116.192 119.317 115.547 119.04 114.768 119.04C113.99 119.04 113.339 119.317 112.816 119.872ZM121.222 124.976C120.443 124.187 120.054 123.195 120.054 122C120.054 120.805 120.443 119.813 121.222 119.024C122.001 118.235 122.971 117.84 124.134 117.84C125.297 117.84 126.267 118.229 127.046 119.008C127.825 119.787 128.214 120.757 128.214 121.92V122.4H121.334C121.419 123.147 121.723 123.76 122.246 124.24C122.769 124.72 123.398 124.96 124.134 124.96C124.923 124.96 125.601 124.72 126.166 124.24C126.422 124.027 126.625 123.787 126.774 123.52H128.054C127.862 124.021 127.59 124.464 127.238 124.848C126.406 125.723 125.371 126.16 124.134 126.16C122.971 126.16 122.001 125.765 121.222 124.976ZM121.366 121.28H126.854C126.758 120.651 126.465 120.123 125.974 119.696C125.483 119.259 124.87 119.04 124.134 119.04C123.398 119.04 122.779 119.259 122.278 119.696C121.777 120.123 121.473 120.651 121.366 121.28ZM129.972 126V118H131.252V124L131.236 124.16H131.268L135.572 118H137.012V126H135.732V120L135.748 119.84H135.716L131.412 126H129.972ZM131.124 114.8H132.324C132.324 115.088 132.425 115.323 132.628 115.504C132.83 115.675 133.129 115.76 133.524 115.76C133.918 115.76 134.217 115.675 134.42 115.504C134.622 115.323 134.724 115.088 134.724 114.8H135.924C135.924 115.387 135.71 115.867 135.284 116.24C134.857 116.613 134.27 116.8 133.524 116.8C132.777 116.8 132.19 116.613 131.764 116.24C131.337 115.867 131.124 115.387 131.124 114.8ZM138.213 119.2V118H145.093V119.2H142.293V126H141.013V119.2H138.213ZM146.3 126V118H147.58V124L147.564 124.16H147.596L151.9 118H153.34V126H152.06V120L152.076 119.84H152.044L147.74 126H146.3ZM155.581 126V118H156.861V121.28H161.341V118H162.621V126H161.341V122.48H156.861V126H155.581ZM164.862 126V118H170.382V119.2H166.142V126H164.862ZM175.347 126V118H176.627V121.2H178.227L180.787 118H182.307L179.347 121.76L182.547 126H180.947L178.227 122.4H176.627V126H175.347ZM184.144 124.976C183.355 124.187 182.96 123.195 182.96 122C182.96 120.805 183.355 119.813 184.144 119.024C184.934 118.235 185.926 117.84 187.12 117.84C188.315 117.84 189.307 118.235 190.096 119.024C190.886 119.813 191.28 120.805 191.28 122C191.28 123.195 190.886 124.187 190.096 124.976C189.307 125.765 188.315 126.16 187.12 126.16C185.926 126.16 184.934 125.765 184.144 124.976ZM185.056 119.872C184.512 120.427 184.24 121.136 184.24 122C184.24 122.864 184.512 123.573 185.056 124.128C185.6 124.683 186.288 124.96 187.12 124.96C187.952 124.96 188.64 124.683 189.184 124.128C189.728 123.573 190 122.864 190 122C190 121.136 189.728 120.427 189.184 119.872C188.64 119.317 187.952 119.04 187.12 119.04C186.288 119.04 185.6 119.317 185.056 119.872ZM193.034 126V118H194.954L197.354 122.96H197.754L200.154 118H202.074V126H200.794V119.6L200.81 119.44H200.778L198.394 124.4H196.714L194.33 119.44H194.298L194.314 119.6V126H193.034ZM204.955 124.976C204.209 124.176 203.835 123.184 203.835 122C203.835 120.816 204.209 119.829 204.955 119.04C205.702 118.24 206.609 117.84 207.675 117.84C208.347 117.84 208.913 117.968 209.371 118.224C209.841 118.48 210.182 118.757 210.395 119.056L210.539 119.296H210.555V118H211.835V126H210.555V124.72H210.539L210.395 124.944C210.203 125.232 209.873 125.509 209.403 125.776C208.934 126.032 208.358 126.16 207.675 126.16C206.609 126.16 205.702 125.765 204.955 124.976ZM205.883 119.872C205.371 120.427 205.115 121.136 205.115 122C205.115 122.864 205.371 123.573 205.883 124.128C206.406 124.683 207.057 124.96 207.835 124.96C208.614 124.96 209.259 124.683 209.771 124.128C210.294 123.573 210.555 122.864 210.555 122C210.555 121.136 210.294 120.427 209.771 119.872C209.259 119.317 208.614 119.04 207.835 119.04C207.057 119.04 206.406 119.317 205.883 119.872ZM214.081 126V118H215.361V121.28H219.841V118H221.121V126H219.841V122.48H215.361V126H214.081ZM222.322 127.84V124.8H223.202L225.042 118H228.402L230.242 124.8H231.122V127.84H229.842V126H223.602V127.84H222.322ZM224.482 124.8H228.962L227.442 119.2H226.002L224.482 124.8ZM53.3779 148.976C52.6099 148.187 52.2259 147.195 52.2259 146C52.2259 144.805 52.6099 143.813 53.3779 143.024C54.1459 142.235 55.0953 141.84 56.2259 141.84C57.5379 141.84 58.5779 142.309 59.3459 143.248C59.6766 143.664 59.9166 144.128 60.0659 144.64H58.7859C58.6686 144.352 58.4926 144.085 58.2579 143.84C57.7459 143.307 57.0686 143.04 56.2259 143.04C55.4473 143.04 54.7966 143.317 54.2739 143.872C53.7619 144.427 53.5059 145.136 53.5059 146C53.5059 146.864 53.7726 147.573 54.3059 148.128C54.8393 148.683 55.4793 148.96 56.2259 148.96C57.1006 148.96 57.7993 148.667 58.3219 148.08C58.5566 147.835 58.7379 147.541 58.8659 147.2H60.1459C60.0073 147.744 59.7619 148.24 59.4099 148.688C58.5993 149.669 57.5379 150.16 56.2259 150.16C55.0953 150.16 54.1459 149.765 53.3779 148.976ZM60.7128 143.2V142H67.5928V143.2H64.7928V150H63.5128V143.2H60.7128ZM68.7997 150V142H70.0797V148L70.0637 148.16H70.0957L74.3997 142H75.8397V150H74.5597V144L74.5757 143.84H74.5437L70.2397 150H68.7997ZM78.0809 150V142H80.0009L82.4009 146.96H82.8009L85.2009 142H87.1209V150H85.8409V143.6L85.8569 143.44H85.8249L83.4409 148.4H81.7609L79.3769 143.44H79.3449L79.3609 143.6V150H78.0809ZM88.5622 142H89.9222L91.6822 148.8H92.8822L94.9622 142H96.3222L92.9622 153.04H91.6022L92.5622 150H90.7222L88.5622 142ZM96.2459 150L98.4859 142H101.846L104.086 150H102.726L100.886 143.2H99.4459L97.6059 150H96.2459ZM105.362 150V142H106.642V148L106.626 148.16H106.658L110.962 142H112.402V150H111.122V144L111.138 143.84H111.106L106.802 150H105.362ZM114.643 153.04V142H115.923V143.28H115.939L116.099 143.04C116.281 142.763 116.606 142.496 117.075 142.24C117.545 141.973 118.121 141.84 118.803 141.84C119.87 141.84 120.777 142.24 121.523 143.04C122.27 143.829 122.643 144.816 122.643 146C122.643 147.184 122.27 148.176 121.523 148.976C120.777 149.765 119.87 150.16 118.803 150.16C118.121 150.16 117.539 150.032 117.059 149.776C116.59 149.509 116.27 149.232 116.099 148.944L115.939 148.72H115.923V153.04H114.643ZM116.691 143.872C116.179 144.427 115.923 145.136 115.923 146C115.923 146.864 116.179 147.573 116.691 148.128C117.214 148.683 117.865 148.96 118.643 148.96C119.422 148.96 120.067 148.683 120.579 148.128C121.102 147.573 121.363 146.864 121.363 146C121.363 145.136 121.102 144.427 120.579 143.872C120.067 143.317 119.422 143.04 118.643 143.04C117.865 143.04 117.214 143.317 116.691 143.872ZM123.375 142H124.735L126.495 148.8H127.695L129.775 142H131.135L127.775 153.04H126.415L127.375 150H125.535L123.375 142ZM132.941 148.976C132.162 148.187 131.773 147.195 131.773 146C131.773 144.805 132.162 143.813 132.941 143.024C133.719 142.235 134.69 141.84 135.853 141.84C137.015 141.84 137.986 142.229 138.765 143.008C139.543 143.787 139.933 144.757 139.933 145.92V146.4H133.053C133.138 147.147 133.442 147.76 133.965 148.24C134.487 148.72 135.117 148.96 135.853 148.96C136.642 148.96 137.319 148.72 137.885 148.24C138.141 148.027 138.343 147.787 138.493 147.52H139.773C139.581 148.021 139.309 148.464 138.957 148.848C138.125 149.723 137.09 150.16 135.853 150.16C134.69 150.16 133.719 149.765 132.941 148.976ZM133.085 145.28H138.573C138.477 144.651 138.183 144.123 137.693 143.696C137.202 143.259 136.589 143.04 135.853 143.04C135.117 143.04 134.498 143.259 133.997 143.696C133.495 144.123 133.191 144.651 133.085 145.28ZM140.65 143.2V142H147.53V143.2H144.73V150H143.45V143.2H140.65ZM151.937 147.52H153.217C153.281 147.787 153.404 148.027 153.585 148.24C153.98 148.72 154.604 148.96 155.457 148.96C156.097 148.96 156.588 148.837 156.929 148.592C157.281 148.336 157.457 148.032 157.457 147.68C157.457 147.328 157.297 147.04 156.977 146.816C156.657 146.592 156.177 146.48 155.537 146.48H154.577V145.28H155.537C156.711 145.28 157.297 144.907 157.297 144.16C157.297 143.851 157.137 143.589 156.817 143.376C156.508 143.152 156.055 143.04 155.457 143.04C154.775 143.04 154.231 143.243 153.825 143.648C153.676 143.797 153.553 143.995 153.457 144.24H152.177C152.273 143.803 152.46 143.403 152.737 143.04C153.367 142.24 154.273 141.84 155.457 141.84C156.46 141.84 157.228 142.053 157.761 142.48C158.305 142.907 158.577 143.44 158.577 144.08C158.577 144.944 158.135 145.525 157.249 145.824L157.217 145.84V145.856C157.249 145.856 157.313 145.872 157.409 145.904C157.505 145.936 157.628 146 157.777 146.096C157.937 146.181 158.087 146.293 158.225 146.432C158.364 146.56 158.481 146.741 158.577 146.976C158.684 147.211 158.737 147.472 158.737 147.76C158.737 148.443 158.449 149.013 157.873 149.472C157.297 149.931 156.492 150.16 155.457 150.16C154.124 150.16 153.137 149.723 152.497 148.848C152.22 148.453 152.033 148.011 151.937 147.52ZM161.143 148.976C160.396 148.176 160.023 147.184 160.023 146C160.023 144.816 160.396 143.829 161.143 143.04C161.889 142.24 162.796 141.84 163.863 141.84C164.535 141.84 165.1 141.968 165.559 142.224C166.028 142.48 166.369 142.757 166.583 143.056L166.727 143.296H166.743V142H168.023V150H166.743V148.72H166.727L166.583 148.944C166.391 149.232 166.06 149.509 165.591 149.776C165.121 150.032 164.545 150.16 163.863 150.16C162.796 150.16 161.889 149.765 161.143 148.976ZM162.071 143.872C161.559 144.427 161.303 145.136 161.303 146C161.303 146.864 161.559 147.573 162.071 148.128C162.593 148.683 163.244 148.96 164.023 148.96C164.801 148.96 165.447 148.683 165.959 148.128C166.481 147.573 166.743 146.864 166.743 146C166.743 145.136 166.481 144.427 165.959 143.872C165.447 143.317 164.801 143.04 164.023 143.04C163.244 143.04 162.593 143.317 162.071 143.872ZM170.268 150V142H171.548V145.2H173.148L175.708 142H177.228L174.268 145.76L177.468 150H175.868L173.148 146.4H171.548V150H170.268ZM178.675 153.04V142H179.955V143.28H179.971L180.131 143.04C180.312 142.763 180.637 142.496 181.107 142.24C181.576 141.973 182.152 141.84 182.835 141.84C183.901 141.84 184.808 142.24 185.555 143.04C186.301 143.829 186.675 144.816 186.675 146C186.675 147.184 186.301 148.176 185.555 148.976C184.808 149.765 183.901 150.16 182.835 150.16C182.152 150.16 181.571 150.032 181.091 149.776C180.621 149.509 180.301 149.232 180.131 148.944L179.971 148.72H179.955V153.04H178.675ZM180.723 143.872C180.211 144.427 179.955 145.136 179.955 146C179.955 146.864 180.211 147.573 180.723 148.128C181.245 148.683 181.896 148.96 182.675 148.96C183.453 148.96 184.099 148.683 184.611 148.128C185.133 147.573 185.395 146.864 185.395 146C185.395 145.136 185.133 144.427 184.611 143.872C184.099 143.317 183.453 143.04 182.675 143.04C181.896 143.04 181.245 143.317 180.723 143.872ZM195.72 150V142H197V150H195.72ZM188.44 150V142H189.72V144.72H191.64C192.536 144.72 193.267 144.976 193.832 145.488C194.398 145.989 194.68 146.613 194.68 147.36C194.68 148.107 194.398 148.736 193.832 149.248C193.267 149.749 192.536 150 191.64 150H188.44ZM189.72 148.8H191.64C192.195 148.8 192.627 148.667 192.936 148.4C193.246 148.133 193.4 147.787 193.4 147.36C193.4 146.933 193.246 146.587 192.936 146.32C192.627 146.053 192.195 145.92 191.64 145.92H189.72V148.8ZM199.237 150V142H203.157C203.904 142 204.491 142.187 204.917 142.56C205.344 142.933 205.557 143.413 205.557 144C205.557 144.267 205.52 144.512 205.445 144.736C205.371 144.949 205.28 145.12 205.173 145.248C205.067 145.365 204.949 145.467 204.821 145.552C204.704 145.627 204.603 145.68 204.517 145.712C204.443 145.733 204.389 145.744 204.357 145.744V145.76C204.389 145.76 204.453 145.776 204.549 145.808C204.645 145.829 204.768 145.888 204.917 145.984C205.077 146.069 205.227 146.176 205.365 146.304C205.504 146.432 205.621 146.619 205.717 146.864C205.824 147.109 205.877 147.381 205.877 147.68C205.877 148.373 205.637 148.933 205.157 149.36C204.688 149.787 204.027 150 203.173 150H199.237ZM200.517 145.28H203.077C203.877 145.28 204.277 144.933 204.277 144.24C204.277 143.547 203.877 143.2 203.077 143.2H200.517V145.28ZM200.517 148.8H203.157C203.627 148.8 203.984 148.693 204.229 148.48C204.475 148.267 204.597 147.973 204.597 147.6C204.597 147.227 204.475 146.933 204.229 146.72C203.984 146.507 203.627 146.4 203.157 146.4H200.517V148.8ZM208.283 148.976C207.537 148.176 207.163 147.184 207.163 146C207.163 144.816 207.537 143.829 208.283 143.04C209.03 142.24 209.937 141.84 211.003 141.84C211.675 141.84 212.241 141.968 212.699 142.224C213.169 142.48 213.51 142.757 213.723 143.056L213.867 143.296H213.883V142H215.163V150H213.883V148.72H213.867L213.723 148.944C213.531 149.232 213.201 149.509 212.731 149.776C212.262 150.032 211.686 150.16 211.003 150.16C209.937 150.16 209.03 149.765 208.283 148.976ZM209.211 143.872C208.699 144.427 208.443 145.136 208.443 146C208.443 146.864 208.699 147.573 209.211 148.128C209.734 148.683 210.385 148.96 211.163 148.96C211.942 148.96 212.587 148.683 213.099 148.128C213.622 147.573 213.883 146.864 213.883 146C213.883 145.136 213.622 144.427 213.099 143.872C212.587 143.317 211.942 143.04 211.163 143.04C210.385 143.04 209.734 143.317 209.211 143.872ZM216.369 143.2V142H223.249V143.2H220.449V150H219.169V143.2H216.369ZM224.456 150V142H225.736V144.72H227.976C228.872 144.72 229.603 144.976 230.168 145.488C230.733 145.989 231.016 146.613 231.016 147.36C231.016 148.107 230.733 148.736 230.168 149.248C229.603 149.749 228.872 150 227.976 150H224.456ZM225.736 148.8H227.976C228.531 148.8 228.963 148.667 229.272 148.4C229.581 148.133 229.736 147.787 229.736 147.36C229.736 146.933 229.581 146.587 229.272 146.32C228.963 146.053 228.531 145.92 227.976 145.92H225.736V148.8ZM49.1247 171.52H50.4047C50.4687 171.787 50.5914 172.027 50.7727 172.24C51.1674 172.72 51.7914 172.96 52.6447 172.96C53.2847 172.96 53.7754 172.837 54.1167 172.592C54.4687 172.336 54.6447 172.032 54.6447 171.68C54.6447 171.328 54.4847 171.04 54.1647 170.816C53.8447 170.592 53.3647 170.48 52.7247 170.48H51.7647V169.28H52.7247C53.898 169.28 54.4847 168.907 54.4847 168.16C54.4847 167.851 54.3247 167.589 54.0047 167.376C53.6954 167.152 53.242 167.04 52.6447 167.04C51.962 167.04 51.418 167.243 51.0127 167.648C50.8634 167.797 50.7407 167.995 50.6447 168.24H49.3647C49.4607 167.803 49.6474 167.403 49.9247 167.04C50.554 166.24 51.4607 165.84 52.6447 165.84C53.6474 165.84 54.4154 166.053 54.9487 166.48C55.4927 166.907 55.7647 167.44 55.7647 168.08C55.7647 168.944 55.322 169.525 54.4367 169.824L54.4047 169.84V169.856C54.4367 169.856 54.5007 169.872 54.5967 169.904C54.6927 169.936 54.8154 170 54.9647 170.096C55.1247 170.181 55.274 170.293 55.4127 170.432C55.5514 170.56 55.6687 170.741 55.7647 170.976C55.8714 171.211 55.9247 171.472 55.9247 171.76C55.9247 172.443 55.6367 173.013 55.0607 173.472C54.4847 173.931 53.6794 174.16 52.6447 174.16C51.3114 174.16 50.3247 173.723 49.6847 172.848C49.4074 172.453 49.2207 172.011 49.1247 171.52ZM58.3303 172.976C57.5836 172.176 57.2103 171.184 57.2103 170C57.2103 168.816 57.5836 167.829 58.3303 167.04C59.077 166.24 59.9836 165.84 61.0503 165.84C61.7223 165.84 62.2876 165.968 62.7463 166.224C63.2156 166.48 63.557 166.757 63.7703 167.056L63.9143 167.296H63.9303V166H65.2103V174H63.9303V172.72H63.9143L63.7703 172.944C63.5783 173.232 63.2476 173.509 62.7783 173.776C62.309 174.032 61.733 174.16 61.0503 174.16C59.9836 174.16 59.077 173.765 58.3303 172.976ZM59.2583 167.872C58.7463 168.427 58.4903 169.136 58.4903 170C58.4903 170.864 58.7463 171.573 59.2583 172.128C59.781 172.683 60.4316 172.96 61.2103 172.96C61.989 172.96 62.6343 172.683 63.1463 172.128C63.669 171.573 63.9303 170.864 63.9303 170C63.9303 169.136 63.669 168.427 63.1463 167.872C62.6343 167.317 61.989 167.04 61.2103 167.04C60.4316 167.04 59.781 167.317 59.2583 167.872ZM66.4159 175.84V172.8H67.2959L69.1359 166H72.4959L74.3359 172.8H75.2159V175.84H73.9359V174H67.6959V175.84H66.4159ZM68.5759 172.8H73.0559L71.5359 167.2H70.0959L68.5759 172.8ZM77.0491 172.976C76.3024 172.176 75.9291 171.184 75.9291 170C75.9291 168.816 76.3024 167.829 77.0491 167.04C77.7957 166.24 78.7024 165.84 79.7691 165.84C80.4411 165.84 81.0064 165.968 81.4651 166.224C81.9344 166.48 82.2757 166.757 82.4891 167.056L82.6331 167.296H82.6491V166H83.9291V174H82.6491V172.72H82.6331L82.4891 172.944C82.2971 173.232 81.9664 173.509 81.4971 173.776C81.0277 174.032 80.4517 174.16 79.7691 174.16C78.7024 174.16 77.7957 173.765 77.0491 172.976ZM77.9771 167.872C77.4651 168.427 77.2091 169.136 77.2091 170C77.2091 170.864 77.4651 171.573 77.9771 172.128C78.4997 172.683 79.1504 172.96 79.9291 172.96C80.7077 172.96 81.3531 172.683 81.8651 172.128C82.3877 171.573 82.6491 170.864 82.6491 170C82.6491 169.136 82.3877 168.427 81.8651 167.872C81.3531 167.317 80.7077 167.04 79.9291 167.04C79.1504 167.04 78.4997 167.317 77.9771 167.872ZM85.9347 168.88V166H87.2147V168.8C87.2147 169.333 87.3694 169.749 87.6787 170.048C87.9987 170.336 88.4574 170.48 89.0547 170.48C89.684 170.48 90.2387 170.389 90.7187 170.208C90.9427 170.133 91.1347 170.037 91.2947 169.92V166H92.5747V174H91.2947V171.04C91.0814 171.179 90.884 171.285 90.7027 171.36C90.2334 171.573 89.6574 171.68 88.9747 171.68C88.0147 171.68 87.268 171.429 86.7347 170.928C86.2014 170.427 85.9347 169.744 85.9347 168.88ZM94.8153 174V166H96.0953V172L96.0793 172.16H96.1113L100.415 166H101.855V174H100.575V168L100.591 167.84H100.559L96.2553 174H94.8153ZM109.253 172.976C108.485 172.187 108.101 171.195 108.101 170C108.101 168.805 108.485 167.813 109.253 167.024C110.021 166.235 110.97 165.84 112.101 165.84C113.413 165.84 114.453 166.309 115.221 167.248C115.552 167.664 115.792 168.128 115.941 168.64H114.661C114.544 168.352 114.368 168.085 114.133 167.84C113.621 167.307 112.944 167.04 112.101 167.04C111.322 167.04 110.672 167.317 110.149 167.872C109.637 168.427 109.381 169.136 109.381 170C109.381 170.864 109.648 171.573 110.181 172.128C110.714 172.683 111.354 172.96 112.101 172.96C112.976 172.96 113.674 172.667 114.197 172.08C114.432 171.835 114.613 171.541 114.741 171.2H116.021C115.882 171.744 115.637 172.24 115.285 172.688C114.474 173.669 113.413 174.16 112.101 174.16C110.97 174.16 110.021 173.765 109.253 172.976ZM117.628 174V166H121.548C122.294 166 122.881 166.187 123.308 166.56C123.734 166.933 123.948 167.413 123.948 168C123.948 168.267 123.91 168.512 123.836 168.736C123.761 168.949 123.67 169.12 123.564 169.248C123.457 169.365 123.34 169.467 123.212 169.552C123.094 169.627 122.993 169.68 122.908 169.712C122.833 169.733 122.78 169.744 122.748 169.744V169.76C122.78 169.76 122.844 169.776 122.94 169.808C123.036 169.829 123.158 169.888 123.308 169.984C123.468 170.069 123.617 170.176 123.756 170.304C123.894 170.432 124.012 170.619 124.108 170.864C124.214 171.109 124.268 171.381 124.268 171.68C124.268 172.373 124.028 172.933 123.548 173.36C123.078 173.787 122.417 174 121.564 174H117.628ZM118.908 169.28H121.468C122.268 169.28 122.668 168.933 122.668 168.24C122.668 167.547 122.268 167.2 121.468 167.2H118.908V169.28ZM118.908 172.8H121.548C122.017 172.8 122.374 172.693 122.62 172.48C122.865 172.267 122.988 171.973 122.988 171.6C122.988 171.227 122.865 170.933 122.62 170.72C122.374 170.507 122.017 170.4 121.548 170.4H118.908V172.8ZM126.738 172.976C125.949 172.187 125.554 171.195 125.554 170C125.554 168.805 125.949 167.813 126.738 167.024C127.527 166.235 128.519 165.84 129.714 165.84C130.909 165.84 131.901 166.235 132.69 167.024C133.479 167.813 133.874 168.805 133.874 170C133.874 171.195 133.479 172.187 132.69 172.976C131.901 173.765 130.909 174.16 129.714 174.16C128.519 174.16 127.527 173.765 126.738 172.976ZM127.65 167.872C127.106 168.427 126.834 169.136 126.834 170C126.834 170.864 127.106 171.573 127.65 172.128C128.194 172.683 128.882 172.96 129.714 172.96C130.546 172.96 131.234 172.683 131.778 172.128C132.322 171.573 132.594 170.864 132.594 170C132.594 169.136 132.322 168.427 131.778 167.872C131.234 167.317 130.546 167.04 129.714 167.04C128.882 167.04 128.194 167.317 127.65 167.872ZM136.316 172.976C135.537 172.187 135.148 171.195 135.148 170C135.148 168.805 135.537 167.813 136.316 167.024C137.094 166.235 138.065 165.84 139.228 165.84C140.39 165.84 141.361 166.229 142.14 167.008C142.918 167.787 143.308 168.757 143.308 169.92V170.4H136.428C136.513 171.147 136.817 171.76 137.34 172.24C137.862 172.72 138.492 172.96 139.228 172.96C140.017 172.96 140.694 172.72 141.26 172.24C141.516 172.027 141.718 171.787 141.868 171.52H143.148C142.956 172.021 142.684 172.464 142.332 172.848C141.5 173.723 140.465 174.16 139.228 174.16C138.065 174.16 137.094 173.765 136.316 172.976ZM136.46 169.28H141.948C141.852 168.651 141.558 168.123 141.068 167.696C140.577 167.259 139.964 167.04 139.228 167.04C138.492 167.04 137.873 167.259 137.372 167.696C136.87 168.123 136.566 168.651 136.46 169.28ZM145.065 174V166H148.985C149.732 166 150.319 166.187 150.745 166.56C151.172 166.933 151.385 167.413 151.385 168C151.385 168.267 151.348 168.512 151.273 168.736C151.199 168.949 151.108 169.12 151.001 169.248C150.895 169.365 150.777 169.467 150.649 169.552C150.532 169.627 150.431 169.68 150.345 169.712C150.271 169.733 150.217 169.744 150.185 169.744V169.76C150.217 169.76 150.281 169.776 150.377 169.808C150.473 169.829 150.596 169.888 150.745 169.984C150.905 170.069 151.055 170.176 151.193 170.304C151.332 170.432 151.449 170.619 151.545 170.864C151.652 171.109 151.705 171.381 151.705 171.68C151.705 172.373 151.465 172.933 150.985 173.36C150.516 173.787 149.855 174 149.001 174H145.065ZM146.345 169.28H148.905C149.705 169.28 150.105 168.933 150.105 168.24C150.105 167.547 149.705 167.2 148.905 167.2H146.345V169.28ZM146.345 172.8H148.985C149.455 172.8 149.812 172.693 150.057 172.48C150.303 172.267 150.425 171.973 150.425 171.6C150.425 171.227 150.303 170.933 150.057 170.72C149.812 170.507 149.455 170.4 148.985 170.4H146.345V172.8ZM153.472 177.04V166H154.752V167.28H154.768L154.928 167.04C155.109 166.763 155.434 166.496 155.904 166.24C156.373 165.973 156.949 165.84 157.632 165.84C158.698 165.84 159.605 166.24 160.352 167.04C161.098 167.829 161.472 168.816 161.472 170C161.472 171.184 161.098 172.176 160.352 172.976C159.605 173.765 158.698 174.16 157.632 174.16C156.949 174.16 156.368 174.032 155.888 173.776C155.418 173.509 155.098 173.232 154.928 172.944L154.768 172.72H154.752V177.04H153.472ZM155.52 167.872C155.008 168.427 154.752 169.136 154.752 170C154.752 170.864 155.008 171.573 155.52 172.128C156.042 172.683 156.693 172.96 157.472 172.96C158.25 172.96 158.896 172.683 159.408 172.128C159.93 171.573 160.192 170.864 160.192 170C160.192 169.136 159.93 168.427 159.408 167.872C158.896 167.317 158.25 167.04 157.472 167.04C156.693 167.04 156.042 167.317 155.52 167.872ZM163.925 172.976C163.147 172.187 162.757 171.195 162.757 170C162.757 168.805 163.147 167.813 163.925 167.024C164.704 166.235 165.675 165.84 166.837 165.84C168 165.84 168.971 166.229 169.749 167.008C170.528 167.787 170.917 168.757 170.917 169.92V170.4H164.037C164.123 171.147 164.427 171.76 164.949 172.24C165.472 172.72 166.101 172.96 166.837 172.96C167.627 172.96 168.304 172.72 168.869 172.24C169.125 172.027 169.328 171.787 169.477 171.52H170.757C170.565 172.021 170.293 172.464 169.941 172.848C169.109 173.723 168.075 174.16 166.837 174.16C165.675 174.16 164.704 173.765 163.925 172.976ZM164.069 169.28H169.557C169.461 168.651 169.168 168.123 168.677 167.696C168.187 167.259 167.573 167.04 166.837 167.04C166.101 167.04 165.483 167.259 164.981 167.696C164.48 168.123 164.176 168.651 164.069 169.28ZM172.675 174V166H174.595L176.995 170.96H177.395L179.795 166H181.715V174H180.435V167.6L180.451 167.44H180.419L178.035 172.4H176.355L173.971 167.44H173.939L173.955 167.6V174H172.675ZM184.644 172.976C183.865 172.187 183.476 171.195 183.476 170C183.476 168.805 183.865 167.813 184.644 167.024C185.423 166.235 186.393 165.84 187.556 165.84C188.719 165.84 189.689 166.229 190.468 167.008C191.247 167.787 191.636 168.757 191.636 169.92V170.4H184.756C184.841 171.147 185.145 171.76 185.668 172.24C186.191 172.72 186.82 172.96 187.556 172.96C188.345 172.96 189.023 172.72 189.588 172.24C189.844 172.027 190.047 171.787 190.196 171.52H191.476C191.284 172.021 191.012 172.464 190.66 172.848C189.828 173.723 188.793 174.16 187.556 174.16C186.393 174.16 185.423 173.765 184.644 172.976ZM184.788 169.28H190.276C190.18 168.651 189.887 168.123 189.396 167.696C188.905 167.259 188.292 167.04 187.556 167.04C186.82 167.04 186.201 167.259 185.7 167.696C185.199 168.123 184.895 168.651 184.788 169.28ZM193.393 174V166H194.673V169.28H199.153V166H200.433V174H199.153V170.48H194.673V174H193.393ZM202.675 174V166H203.955V169.28H208.435V166H209.715V174H208.435V170.48H203.955V174H202.675ZM212.66 172.976C211.871 172.187 211.476 171.195 211.476 170C211.476 168.805 211.871 167.813 212.66 167.024C213.449 166.235 214.441 165.84 215.636 165.84C216.831 165.84 217.823 166.235 218.612 167.024C219.401 167.813 219.796 168.805 219.796 170C219.796 171.195 219.401 172.187 218.612 172.976C217.823 173.765 216.831 174.16 215.636 174.16C214.441 174.16 213.449 173.765 212.66 172.976ZM213.572 167.872C213.028 168.427 212.756 169.136 212.756 170C212.756 170.864 213.028 171.573 213.572 172.128C214.116 172.683 214.804 172.96 215.636 172.96C216.468 172.96 217.156 172.683 217.7 172.128C218.244 171.573 218.516 170.864 218.516 170C218.516 169.136 218.244 168.427 217.7 167.872C217.156 167.317 216.468 167.04 215.636 167.04C214.804 167.04 214.116 167.317 213.572 167.872ZM226.034 174V166H227.314V172L227.298 172.16H227.33L231.634 166H233.074V174H231.794V168L231.81 167.84H231.778L227.474 174H226.034ZM101.925 196.976C101.157 196.187 100.773 195.195 100.773 194C100.773 192.805 101.157 191.813 101.925 191.024C102.693 190.235 103.642 189.84 104.773 189.84C106.085 189.84 107.125 190.309 107.893 191.248C108.223 191.664 108.463 192.128 108.613 192.64H107.333C107.215 192.352 107.039 192.085 106.805 191.84C106.293 191.307 105.615 191.04 104.773 191.04C103.994 191.04 103.343 191.317 102.821 191.872C102.309 192.427 102.053 193.136 102.053 194C102.053 194.864 102.319 195.573 102.853 196.128C103.386 196.683 104.026 196.96 104.773 196.96C105.647 196.96 106.346 196.667 106.869 196.08C107.103 195.835 107.285 195.541 107.413 195.2H108.693C108.554 195.744 108.309 196.24 107.957 196.688C107.146 197.669 106.085 198.16 104.773 198.16C103.642 198.16 102.693 197.765 101.925 196.976ZM111.004 196.976C110.214 196.187 109.82 195.195 109.82 194C109.82 192.805 110.214 191.813 111.004 191.024C111.793 190.235 112.785 189.84 113.98 189.84C115.174 189.84 116.166 190.235 116.956 191.024C117.745 191.813 118.14 192.805 118.14 194C118.14 195.195 117.745 196.187 116.956 196.976C116.166 197.765 115.174 198.16 113.98 198.16C112.785 198.16 111.793 197.765 111.004 196.976ZM111.916 191.872C111.372 192.427 111.1 193.136 111.1 194C111.1 194.864 111.372 195.573 111.916 196.128C112.46 196.683 113.148 196.96 113.98 196.96C114.812 196.96 115.5 196.683 116.044 196.128C116.588 195.573 116.86 194.864 116.86 194C116.86 193.136 116.588 192.427 116.044 191.872C115.5 191.317 114.812 191.04 113.98 191.04C113.148 191.04 112.46 191.317 111.916 191.872ZM119.893 198V190H123.813C124.56 190 125.147 190.187 125.573 190.56C126 190.933 126.213 191.413 126.213 192C126.213 192.267 126.176 192.512 126.101 192.736C126.027 192.949 125.936 193.12 125.829 193.248C125.723 193.365 125.605 193.467 125.477 193.552C125.36 193.627 125.259 193.68 125.173 193.712C125.099 193.733 125.045 193.744 125.013 193.744V193.76C125.045 193.76 125.109 193.776 125.205 193.808C125.301 193.829 125.424 193.888 125.573 193.984C125.733 194.069 125.883 194.176 126.021 194.304C126.16 194.432 126.277 194.619 126.373 194.864C126.48 195.109 126.533 195.381 126.533 195.68C126.533 196.373 126.293 196.933 125.813 197.36C125.344 197.787 124.683 198 123.829 198H119.893ZM121.173 193.28H123.733C124.533 193.28 124.933 192.933 124.933 192.24C124.933 191.547 124.533 191.2 123.733 191.2H121.173V193.28ZM121.173 196.8H123.813C124.283 196.8 124.64 196.693 124.885 196.48C125.131 196.267 125.253 195.973 125.253 195.6C125.253 195.227 125.131 194.933 124.885 194.72C124.64 194.507 124.283 194.4 123.813 194.4H121.173V196.8ZM128.3 198V190H130.22L132.62 194.96H133.02L135.42 190H137.34V198H136.06V191.6L136.076 191.44H136.044L133.66 196.4H131.98L129.596 191.44H129.564L129.58 191.6V198H128.3ZM140.269 196.976C139.49 196.187 139.101 195.195 139.101 194C139.101 192.805 139.49 191.813 140.269 191.024C141.048 190.235 142.018 189.84 143.181 189.84C144.344 189.84 145.314 190.229 146.093 191.008C146.872 191.787 147.261 192.757 147.261 193.92V194.4H140.381C140.466 195.147 140.77 195.76 141.293 196.24C141.816 196.72 142.445 196.96 143.181 196.96C143.97 196.96 144.648 196.72 145.213 196.24C145.469 196.027 145.672 195.787 145.821 195.52H147.101C146.909 196.021 146.637 196.464 146.285 196.848C145.453 197.723 144.418 198.16 143.181 198.16C142.018 198.16 141.048 197.765 140.269 196.976ZM140.413 193.28H145.901C145.805 192.651 145.512 192.123 145.021 191.696C144.53 191.259 143.917 191.04 143.181 191.04C142.445 191.04 141.826 191.259 141.325 191.696C140.824 192.123 140.52 192.651 140.413 193.28ZM149.69 196.976C148.922 196.187 148.538 195.195 148.538 194C148.538 192.805 148.922 191.813 149.69 191.024C150.458 190.235 151.408 189.84 152.538 189.84C153.85 189.84 154.89 190.309 155.658 191.248C155.989 191.664 156.229 192.128 156.378 192.64H155.098C154.981 192.352 154.805 192.085 154.57 191.84C154.058 191.307 153.381 191.04 152.538 191.04C151.76 191.04 151.109 191.317 150.586 191.872C150.074 192.427 149.818 193.136 149.818 194C149.818 194.864 150.085 195.573 150.618 196.128C151.152 196.683 151.792 196.96 152.538 196.96C153.413 196.96 154.112 196.667 154.634 196.08C154.869 195.835 155.05 195.541 155.178 195.2H156.458C156.32 195.744 156.074 196.24 155.722 196.688C154.912 197.669 153.85 198.16 152.538 198.16C151.408 198.16 150.458 197.765 149.69 196.976ZM157.025 191.2V190H163.905V191.2H161.105V198H159.825V191.2H157.025ZM165.112 198V190H166.392V193.28H170.872V190H172.152V198H170.872V194.48H166.392V198H165.112ZM175.097 196.976C174.308 196.187 173.913 195.195 173.913 194C173.913 192.805 174.308 191.813 175.097 191.024C175.887 190.235 176.879 189.84 178.073 189.84C179.268 189.84 180.26 190.235 181.049 191.024C181.839 191.813 182.233 192.805 182.233 194C182.233 195.195 181.839 196.187 181.049 196.976C180.26 197.765 179.268 198.16 178.073 198.16C176.879 198.16 175.887 197.765 175.097 196.976ZM176.009 191.872C175.465 192.427 175.193 193.136 175.193 194C175.193 194.864 175.465 195.573 176.009 196.128C176.553 196.683 177.241 196.96 178.073 196.96C178.905 196.96 179.593 196.683 180.137 196.128C180.681 195.573 180.953 194.864 180.953 194C180.953 193.136 180.681 192.427 180.137 191.872C179.593 191.317 178.905 191.04 178.073 191.04C177.241 191.04 176.553 191.317 176.009 191.872Z" fill="#1D1D1D"/>
<line x1="120" y1="82" x2="165" y2="82" stroke="#1EE0A1" stroke-width="4"/>
<defs>
<filter id="filter0_d_301_12491" x="0" y="0" width="284" height="243" filterUnits="userSpaceOnUse" color-interpolation-filters="sRGB">
<feFlood flood-opacity="0" result="BackgroundImageFix"/>
<feColorMatrix in="SourceAlpha" type="matrix" values="0 0 0 0 0 0 0 0 0 0 0 0 0 0 0 0 0 0 127 0" result="hardAlpha"/>
<feOffset dy="5"/>
<feGaussianBlur stdDeviation="5"/>
<feColorMatrix type="matrix" values="0 0 0 0 0 0 0 0 0 0 0 0 0 0 0 0 0 0 0.2 0"/>
<feBlend mode="normal" in2="BackgroundImageFix" result="effect1_dropShadow_301_12491"/>
<feBlend mode="normal" in="SourceGraphic" in2="effect1_dropShadow_301_12491" result="shape"/>
</filter>
</defs>
</svg>
