<svg width="284" height="243" viewBox="0 0 284 243" fill="none" xmlns="http://www.w3.org/2000/svg">
<g filter="url(#filter0_d_301_12486)">
<rect x="10" y="5" width="264" height="223" rx="8" fill="white"/>
<rect x="10.5" y="5.5" width="263" height="222" rx="7.5" stroke="#D9D9D9"/>
</g>
<path d="M48.2223 50V36H58.5223V38.2H50.5223V41.2H54.3223C55.9356 41.2 57.2023 41.6133 58.1223 42.44C59.0556 43.2667 59.5223 44.32 59.5223 45.6C59.5223 46.88 59.0556 47.9333 58.1223 48.76C57.2023 49.5867 55.9356 50 54.3223 50H48.2223ZM50.5223 47.8H54.3223C55.2556 47.8 55.9556 47.6067 56.4223 47.22C56.8889 46.82 57.1223 46.28 57.1223 45.6C57.1223 44.92 56.8889 44.3867 56.4223 44C55.9556 43.6 55.2556 43.4 54.3223 43.4H50.5223V47.8ZM62.516 48.68C61.516 47.6533 61.016 46.3933 61.016 44.9C61.016 43.4067 61.516 42.1533 62.516 41.14C63.5293 40.1133 64.7627 39.6 66.216 39.6C67.6693 39.6 68.896 40.1133 69.896 41.14C70.9093 42.1533 71.416 43.4067 71.416 44.9V45.6H63.116C63.276 46.44 63.6427 47.1 64.216 47.58C64.7893 48.06 65.456 48.3 66.216 48.3C67.1493 48.3 67.896 48.0667 68.456 47.6C68.7093 47.4133 68.9293 47.18 69.116 46.9H71.316C71.036 47.5533 70.6827 48.1067 70.256 48.56C69.1627 49.6533 67.816 50.2 66.216 50.2C64.7627 50.2 63.5293 49.6933 62.516 48.68ZM63.216 43.9H69.216C69.096 43.2333 68.776 42.6667 68.256 42.2C67.7493 41.7333 67.0693 41.5 66.216 41.5C65.496 41.5 64.856 41.72 64.296 42.16C63.736 42.5867 63.376 43.1667 63.216 43.9ZM72.4176 46.7H74.5176C74.5709 46.9667 74.6976 47.2333 74.8976 47.5C75.3242 48.0333 75.9976 48.3 76.9176 48.3C77.6376 48.3 78.1642 48.18 78.4976 47.94C78.8442 47.7 79.0176 47.3867 79.0176 47C79.0176 46.6133 78.8442 46.3 78.4976 46.06C78.1642 45.82 77.6376 45.7 76.9176 45.7H75.8176V43.9H76.9176C78.1842 43.9 78.8176 43.5 78.8176 42.7C78.8176 42.3667 78.6509 42.0867 78.3176 41.86C77.9842 41.62 77.4842 41.5 76.8176 41.5C76.1109 41.5 75.5509 41.72 75.1376 42.16C74.9909 42.3333 74.8842 42.5467 74.8176 42.8H72.7176C72.8642 42.1867 73.1042 41.6533 73.4376 41.2C74.2109 40.1333 75.3709 39.6 76.9176 39.6C78.1976 39.6 79.1842 39.8667 79.8776 40.4C80.5709 40.9333 80.9176 41.6 80.9176 42.4C80.9176 43.16 80.6176 43.7467 80.0176 44.16C79.7776 44.3467 79.4776 44.4933 79.1176 44.6V44.68C79.4776 44.76 79.8109 44.9 80.1176 45.1C80.7842 45.5533 81.1176 46.22 81.1176 47.1C81.1176 47.9933 80.7509 48.7333 80.0176 49.32C79.2976 49.9067 78.2642 50.2 76.9176 50.2C75.1309 50.2 73.8576 49.62 73.0976 48.46C72.7376 47.9133 72.5109 47.3267 72.4176 46.7ZM83.9423 48.68C82.9289 47.6533 82.4223 46.3933 82.4223 44.9C82.4223 43.4067 82.9289 42.1533 83.9423 41.14C84.9689 40.1133 86.2289 39.6 87.7223 39.6C89.2156 39.6 90.4689 40.1133 91.4823 41.14C92.5089 42.1533 93.0223 43.4067 93.0223 44.9C93.0223 46.3933 92.5089 47.6533 91.4823 48.68C90.4689 49.6933 89.2156 50.2 87.7223 50.2C86.2289 50.2 84.9689 49.6933 83.9423 48.68ZM85.4823 42.44C84.9089 43.0533 84.6223 43.8733 84.6223 44.9C84.6223 45.9267 84.9089 46.7533 85.4823 47.38C86.0556 47.9933 86.8023 48.3 87.7223 48.3C88.6423 48.3 89.3889 47.9933 89.9623 47.38C90.5356 46.7533 90.8223 45.9267 90.8223 44.9C90.8223 43.8733 90.5356 43.0533 89.9623 42.44C89.3889 41.8133 88.6423 41.5 87.7223 41.5C86.8023 41.5 86.0556 41.8133 85.4823 42.44ZM94.8191 50V39.8H103.919V50H101.819V41.7H96.9191V50H94.8191ZM107.083 48.74C106.176 47.7533 105.723 46.4733 105.723 44.9C105.723 43.3267 106.176 42.0533 107.083 41.08C108.003 40.0933 109.15 39.6 110.523 39.6C111.39 39.6 112.183 39.8533 112.903 40.36C113.21 40.5733 113.483 40.82 113.723 41.1H113.823V39.8H115.923V50H113.823V48.6H113.723C113.523 48.88 113.25 49.1467 112.903 49.4C112.183 49.9333 111.39 50.2 110.523 50.2C109.15 50.2 108.003 49.7133 107.083 48.74ZM108.723 42.38C108.19 42.9667 107.923 43.8067 107.923 44.9C107.923 45.9933 108.19 46.8333 108.723 47.42C109.256 48.0067 109.99 48.3 110.923 48.3C111.803 48.3 112.503 48.0067 113.023 47.42C113.556 46.82 113.823 45.98 113.823 44.9C113.823 43.82 113.556 42.9867 113.023 42.4C112.503 41.8 111.803 41.5 110.923 41.5C109.99 41.5 109.256 41.7933 108.723 42.38ZM119.175 48.7C118.202 47.7 117.715 46.4333 117.715 44.9C117.715 43.3667 118.202 42.1 119.175 41.1C120.149 40.1 121.362 39.6 122.815 39.6C124.442 39.6 125.769 40.22 126.795 41.46C127.235 42.0333 127.542 42.6467 127.715 43.3H125.515C125.422 42.9667 125.249 42.6667 124.995 42.4C124.475 41.8 123.749 41.5 122.815 41.5C121.989 41.5 121.295 41.8133 120.735 42.44C120.189 43.0667 119.915 43.8867 119.915 44.9C119.915 45.9133 120.189 46.7333 120.735 47.36C121.295 47.9867 121.989 48.3 122.815 48.3C123.775 48.3 124.529 48 125.075 47.4C125.315 47.1333 125.495 46.8333 125.615 46.5H127.715C127.542 47.18 127.235 47.8 126.795 48.36C125.782 49.5867 124.455 50.2 122.815 50.2C121.362 50.2 120.149 49.7 119.175 48.7ZM129.409 50V39.8H131.509V43.9H136.509V39.8H138.609V50H136.509V45.8H131.509V50H129.409ZM141.771 48.74C140.864 47.7533 140.411 46.4733 140.411 44.9C140.411 43.3267 140.864 42.0533 141.771 41.08C142.691 40.0933 143.837 39.6 145.211 39.6C146.077 39.6 146.871 39.8533 147.591 40.36C147.897 40.5733 148.171 40.82 148.411 41.1H148.511V39.8H150.611V50H148.511V48.6H148.411C148.211 48.88 147.937 49.1467 147.591 49.4C146.871 49.9333 146.077 50.2 145.211 50.2C143.837 50.2 142.691 49.7133 141.771 48.74ZM143.411 42.38C142.877 42.9667 142.611 43.8067 142.611 44.9C142.611 45.9933 142.877 46.8333 143.411 47.42C143.944 48.0067 144.677 48.3 145.611 48.3C146.491 48.3 147.191 48.0067 147.711 47.42C148.244 46.82 148.511 45.98 148.511 44.9C148.511 43.82 148.244 42.9867 147.711 42.4C147.191 41.8 146.491 41.5 145.611 41.5C144.677 41.5 143.944 41.7933 143.411 42.38ZM152.603 50L154.603 46.3C154.256 46.14 153.936 45.9267 153.643 45.66C153.016 45.06 152.703 44.2733 152.703 43.3C152.703 42.2733 153.063 41.4333 153.783 40.78C154.503 40.1267 155.476 39.8 156.703 39.8H161.303V50H159.203V46.9H156.603L155.003 50H152.603ZM154.903 43.3C154.903 43.8333 155.063 44.2533 155.383 44.56C155.703 44.8533 156.176 45 156.803 45H159.203V41.7H156.803C156.216 41.7 155.749 41.8533 155.403 42.16C155.069 42.4533 154.903 42.8333 154.903 43.3ZM169.311 53.8V39.8H171.411V41.1H171.511C171.751 40.82 172.025 40.5733 172.331 40.36C173.051 39.8533 173.845 39.6 174.711 39.6C176.085 39.6 177.225 40.0933 178.131 41.08C179.051 42.0533 179.511 43.3267 179.511 44.9C179.511 46.4733 179.051 47.7533 178.131 48.74C177.225 49.7133 176.085 50.2 174.711 50.2C173.831 50.2 173.038 49.9533 172.331 49.46C172.011 49.2333 171.738 48.98 171.511 48.7H171.411V53.8H169.311ZM172.191 42.4C171.671 42.9867 171.411 43.82 171.411 44.9C171.411 45.98 171.671 46.82 172.191 47.42C172.725 48.0067 173.431 48.3 174.311 48.3C175.245 48.3 175.978 48.0067 176.511 47.42C177.045 46.8333 177.311 45.9933 177.311 44.9C177.311 43.8067 177.045 42.9667 176.511 42.38C175.978 41.7933 175.245 41.5 174.311 41.5C173.431 41.5 172.725 41.8 172.191 42.4ZM182.064 48.74C181.157 47.7533 180.704 46.4733 180.704 44.9C180.704 43.3267 181.157 42.0533 182.064 41.08C182.984 40.0933 184.13 39.6 185.504 39.6C186.37 39.6 187.164 39.8533 187.884 40.36C188.19 40.5733 188.464 40.82 188.704 41.1H188.804V39.8H190.904V50H188.804V48.6H188.704C188.504 48.88 188.23 49.1467 187.884 49.4C187.164 49.9333 186.37 50.2 185.504 50.2C184.13 50.2 182.984 49.7133 182.064 48.74ZM183.704 42.38C183.17 42.9667 182.904 43.8067 182.904 44.9C182.904 45.9933 183.17 46.8333 183.704 47.42C184.237 48.0067 184.97 48.3 185.904 48.3C186.784 48.3 187.484 48.0067 188.004 47.42C188.537 46.82 188.804 45.98 188.804 44.9C188.804 43.82 188.537 42.9867 188.004 42.4C187.484 41.8 186.784 41.5 185.904 41.5C184.97 41.5 184.237 41.7933 183.704 42.38ZM192.796 44.3C192.796 41.42 193.362 39.32 194.496 38C195.642 36.6667 197.342 36 199.596 36H201.996V37.9H199.796C198.249 37.9 197.069 38.26 196.256 38.98C195.442 39.7 194.989 40.7067 194.896 42H194.996C195.142 41.7867 195.389 41.5533 195.736 41.3C196.482 40.8333 197.302 40.6 198.196 40.6C199.516 40.6 200.609 41.0533 201.476 41.96C202.356 42.8667 202.796 44.0133 202.796 45.4C202.796 46.8133 202.329 47.9667 201.396 48.86C200.476 49.7533 199.276 50.2 197.796 50.2C196.302 50.2 195.096 49.68 194.176 48.64C193.256 47.6 192.796 46.1533 192.796 44.3ZM195.796 43.32C195.262 43.8667 194.996 44.56 194.996 45.4C194.996 46.24 195.262 46.9333 195.796 47.48C196.329 48.0267 196.996 48.3 197.796 48.3C198.596 48.3 199.262 48.0267 199.796 47.48C200.329 46.9333 200.596 46.24 200.596 45.4C200.596 44.56 200.329 43.8667 199.796 43.32C199.262 42.7733 198.596 42.5 197.796 42.5C196.996 42.5 196.329 42.7733 195.796 43.32ZM205.407 48.68C204.394 47.6533 203.887 46.3933 203.887 44.9C203.887 43.4067 204.394 42.1533 205.407 41.14C206.434 40.1133 207.694 39.6 209.187 39.6C210.68 39.6 211.934 40.1133 212.947 41.14C213.974 42.1533 214.487 43.4067 214.487 44.9C214.487 46.3933 213.974 47.6533 212.947 48.68C211.934 49.6933 210.68 50.2 209.187 50.2C207.694 50.2 206.434 49.6933 205.407 48.68ZM206.947 42.44C206.374 43.0533 206.087 43.8733 206.087 44.9C206.087 45.9267 206.374 46.7533 206.947 47.38C207.52 47.9933 208.267 48.3 209.187 48.3C210.107 48.3 210.854 47.9933 211.427 47.38C212 46.7533 212.287 45.9267 212.287 44.9C212.287 43.8733 212 43.0533 211.427 42.44C210.854 41.8133 210.107 41.5 209.187 41.5C208.267 41.5 207.52 41.8133 206.947 42.44ZM215.184 41.7V39.8H224.084V41.7H220.684V50H218.584V41.7H215.184ZM226.146 48.74C225.239 47.7533 224.786 46.4733 224.786 44.9C224.786 43.3267 225.239 42.0533 226.146 41.08C227.066 40.0933 228.212 39.6 229.586 39.6C230.452 39.6 231.246 39.8533 231.966 40.36C232.272 40.5733 232.546 40.82 232.786 41.1H232.886V39.8H234.986V50H232.886V48.6H232.786C232.586 48.88 232.312 49.1467 231.966 49.4C231.246 49.9333 230.452 50.2 229.586 50.2C228.212 50.2 227.066 49.7133 226.146 48.74ZM227.786 42.38C227.252 42.9667 226.986 43.8067 226.986 44.9C226.986 45.9933 227.252 46.8333 227.786 47.42C228.319 48.0067 229.052 48.3 229.986 48.3C230.866 48.3 231.566 48.0067 232.086 47.42C232.619 46.82 232.886 45.98 232.886 44.9C232.886 43.82 232.619 42.9867 232.086 42.4C231.566 41.8 230.866 41.5 229.986 41.5C229.052 41.5 228.319 41.7933 227.786 42.38Z" fill="#1D1D1D"/>
<path d="M43.7664 124.656C42.6678 123.536 42.1184 122.117 42.1184 120.4C42.1184 118.683 42.6678 117.269 43.7664 116.16C44.8758 115.04 46.2731 114.48 47.9584 114.48C49.6438 114.48 51.0358 115.04 52.1344 116.16C53.2438 117.269 53.7984 118.683 53.7984 120.4C53.7984 122.117 53.2438 123.536 52.1344 124.656C51.0358 125.765 49.6438 126.32 47.9584 126.32C46.2731 126.32 44.8758 125.765 43.7664 124.656ZM44.7904 117.104C43.9691 117.947 43.5584 119.045 43.5584 120.4C43.5584 121.755 43.9691 122.853 44.7904 123.696C45.6118 124.539 46.6678 124.96 47.9584 124.96C49.2491 124.96 50.3051 124.539 51.1264 123.696C51.9478 122.853 52.3584 121.755 52.3584 120.4C52.3584 119.045 51.9478 117.947 51.1264 117.104C50.3051 116.261 49.2491 115.84 47.9584 115.84C46.6678 115.84 45.6118 116.261 44.7904 117.104ZM55.6434 126V118H62.6034V126H61.3234V119.2H56.9234V126H55.6434ZM63.8866 126L66.1266 118H69.4866L71.7266 126H70.3666L68.5266 119.2H67.0866L65.2466 126H63.8866ZM73.6428 124.976C72.8961 124.176 72.5228 123.184 72.5228 122C72.5228 120.816 72.8961 119.829 73.6428 119.04C74.3895 118.24 75.2961 117.84 76.3628 117.84C77.0348 117.84 77.6001 117.968 78.0588 118.224C78.5281 118.48 78.8695 118.757 79.0828 119.056L79.2268 119.296H79.2428V118H80.5228V126H79.2428V124.72H79.2268L79.0828 124.944C78.8908 125.232 78.5601 125.509 78.0908 125.776C77.6215 126.032 77.0455 126.16 76.3628 126.16C75.2961 126.16 74.3895 125.765 73.6428 124.976ZM74.5708 119.872C74.0588 120.427 73.8028 121.136 73.8028 122C73.8028 122.864 74.0588 123.573 74.5708 124.128C75.0935 124.683 75.7441 124.96 76.5228 124.96C77.3015 124.96 77.9468 124.683 78.4588 124.128C78.9815 123.573 79.2428 122.864 79.2428 122C79.2428 121.136 78.9815 120.427 78.4588 119.872C77.9468 119.317 77.3015 119.04 76.5228 119.04C75.7441 119.04 75.0935 119.317 74.5708 119.872ZM81.7284 119.2V118H88.6084V119.2H85.8084V126H84.5284V119.2H81.7284ZM90.4553 124.976C89.7086 124.176 89.3353 123.184 89.3353 122C89.3353 120.816 89.7086 119.829 90.4553 119.04C91.202 118.24 92.1086 117.84 93.1753 117.84C93.8473 117.84 94.4126 117.968 94.8713 118.224C95.3406 118.48 95.682 118.757 95.8953 119.056L96.0393 119.296H96.0553V118H97.3353V126H96.0553V124.72H96.0393L95.8953 124.944C95.7033 125.232 95.3726 125.509 94.9033 125.776C94.434 126.032 93.858 126.16 93.1753 126.16C92.1086 126.16 91.202 125.765 90.4553 124.976ZM91.3833 119.872C90.8713 120.427 90.6153 121.136 90.6153 122C90.6153 122.864 90.8713 123.573 91.3833 124.128C91.906 124.683 92.5566 124.96 93.3353 124.96C94.114 124.96 94.7593 124.683 95.2713 124.128C95.794 123.573 96.0553 122.864 96.0553 122C96.0553 121.136 95.794 120.427 95.2713 119.872C94.7593 119.317 94.114 119.04 93.3353 119.04C92.5566 119.04 91.906 119.317 91.3833 119.872ZM104.065 126V118H111.025V126H109.745V119.2H105.345V126H104.065ZM113.268 129.04V118H114.548V119.28H114.564L114.724 119.04C114.906 118.763 115.231 118.496 115.7 118.24C116.17 117.973 116.746 117.84 117.428 117.84C118.495 117.84 119.402 118.24 120.148 119.04C120.895 119.829 121.268 120.816 121.268 122C121.268 123.184 120.895 124.176 120.148 124.976C119.402 125.765 118.495 126.16 117.428 126.16C116.746 126.16 116.164 126.032 115.684 125.776C115.215 125.509 114.895 125.232 114.724 124.944L114.564 124.72H114.548V129.04H113.268ZM115.316 119.872C114.804 120.427 114.548 121.136 114.548 122C114.548 122.864 114.804 123.573 115.316 124.128C115.839 124.683 116.49 124.96 117.268 124.96C118.047 124.96 118.692 124.683 119.204 124.128C119.727 123.573 119.988 122.864 119.988 122C119.988 121.136 119.727 120.427 119.204 119.872C118.692 119.317 118.047 119.04 117.268 119.04C116.49 119.04 115.839 119.317 115.316 119.872ZM123.738 124.976C122.949 124.187 122.554 123.195 122.554 122C122.554 120.805 122.949 119.813 123.738 119.024C124.527 118.235 125.519 117.84 126.714 117.84C127.909 117.84 128.901 118.235 129.69 119.024C130.479 119.813 130.874 120.805 130.874 122C130.874 123.195 130.479 124.187 129.69 124.976C128.901 125.765 127.909 126.16 126.714 126.16C125.519 126.16 124.527 125.765 123.738 124.976ZM124.65 119.872C124.106 120.427 123.834 121.136 123.834 122C123.834 122.864 124.106 123.573 124.65 124.128C125.194 124.683 125.882 124.96 126.714 124.96C127.546 124.96 128.234 124.683 128.778 124.128C129.322 123.573 129.594 122.864 129.594 122C129.594 121.136 129.322 120.427 128.778 119.872C128.234 119.317 127.546 119.04 126.714 119.04C125.882 119.04 125.194 119.317 124.65 119.872ZM132.628 126V118H133.908V124L133.892 124.16H133.924L138.228 118H139.668V126H138.388V120L138.404 119.84H138.372L134.068 126H132.628ZM142.581 124.976C141.813 124.187 141.429 123.195 141.429 122C141.429 120.805 141.813 119.813 142.581 119.024C143.349 118.235 144.298 117.84 145.429 117.84C146.741 117.84 147.781 118.309 148.549 119.248C148.88 119.664 149.12 120.128 149.269 120.64H147.989C147.872 120.352 147.696 120.085 147.461 119.84C146.949 119.307 146.272 119.04 145.429 119.04C144.65 119.04 144 119.317 143.477 119.872C142.965 120.427 142.709 121.136 142.709 122C142.709 122.864 142.976 123.573 143.509 124.128C144.042 124.683 144.682 124.96 145.429 124.96C146.304 124.96 147.002 124.667 147.525 124.08C147.76 123.835 147.941 123.541 148.069 123.2H149.349C149.21 123.744 148.965 124.24 148.613 124.688C147.802 125.669 146.741 126.16 145.429 126.16C144.298 126.16 143.349 125.765 142.581 124.976ZM149.762 126L152.162 121.92L149.842 118H151.282L153.202 121.28H153.922L155.842 118H157.282L154.962 121.92L157.362 126H155.922L153.922 122.48H153.202L151.202 126H149.762ZM159.113 124.976C158.324 124.187 157.929 123.195 157.929 122C157.929 120.805 158.324 119.813 159.113 119.024C159.902 118.235 160.894 117.84 162.089 117.84C163.284 117.84 164.276 118.235 165.065 119.024C165.854 119.813 166.249 120.805 166.249 122C166.249 123.195 165.854 124.187 165.065 124.976C164.276 125.765 163.284 126.16 162.089 126.16C160.894 126.16 159.902 125.765 159.113 124.976ZM160.025 119.872C159.481 120.427 159.209 121.136 159.209 122C159.209 122.864 159.481 123.573 160.025 124.128C160.569 124.683 161.257 124.96 162.089 124.96C162.921 124.96 163.609 124.683 164.153 124.128C164.697 123.573 164.969 122.864 164.969 122C164.969 121.136 164.697 120.427 164.153 119.872C163.609 119.317 162.921 119.04 162.089 119.04C161.257 119.04 160.569 119.317 160.025 119.872ZM166.963 127.84V124.8H167.843L169.683 118H173.043L174.883 124.8H175.763V127.84H174.483V126H168.243V127.84H166.963ZM169.123 124.8H173.603L172.083 119.2H170.643L169.123 124.8ZM176.956 126V118H178.236V124L178.22 124.16H178.252L182.556 118H183.996V126H182.716V120L182.732 119.84H182.7L178.396 126H176.956ZM185.197 119.2V118H192.077V119.2H189.277V126H187.997V119.2H185.197ZM197.284 126V118H204.244V126H202.964V119.2H198.564V126H197.284ZM207.191 124.976C206.402 124.187 206.007 123.195 206.007 122C206.007 120.805 206.402 119.813 207.191 119.024C207.981 118.235 208.973 117.84 210.167 117.84C211.362 117.84 212.354 118.235 213.143 119.024C213.933 119.813 214.327 120.805 214.327 122C214.327 123.195 213.933 124.187 213.143 124.976C212.354 125.765 211.362 126.16 210.167 126.16C208.973 126.16 207.981 125.765 207.191 124.976ZM208.103 119.872C207.559 120.427 207.287 121.136 207.287 122C207.287 122.864 207.559 123.573 208.103 124.128C208.647 124.683 209.335 124.96 210.167 124.96C210.999 124.96 211.687 124.683 212.231 124.128C212.775 123.573 213.047 122.864 213.047 122C213.047 121.136 212.775 120.427 212.231 119.872C211.687 119.317 210.999 119.04 210.167 119.04C209.335 119.04 208.647 119.317 208.103 119.872ZM216.753 124.976C215.985 124.187 215.601 123.195 215.601 122C215.601 120.805 215.985 119.813 216.753 119.024C217.521 118.235 218.47 117.84 219.601 117.84C220.913 117.84 221.953 118.309 222.721 119.248C223.052 119.664 223.292 120.128 223.441 120.64H222.161C222.044 120.352 221.868 120.085 221.633 119.84C221.121 119.307 220.444 119.04 219.601 119.04C218.822 119.04 218.172 119.317 217.649 119.872C217.137 120.427 216.881 121.136 216.881 122C216.881 122.864 217.148 123.573 217.681 124.128C218.214 124.683 218.854 124.96 219.601 124.96C220.476 124.96 221.174 124.667 221.697 124.08C221.932 123.835 222.113 123.541 222.241 123.2H223.521C223.382 123.744 223.137 124.24 222.785 124.688C221.974 125.669 220.913 126.16 219.601 126.16C218.47 126.16 217.521 125.765 216.753 124.976ZM224.168 126L226.408 118H229.768L232.008 126H230.648L228.808 119.2H227.368L225.528 126H224.168ZM233.972 124.976C233.193 124.187 232.804 123.195 232.804 122C232.804 120.805 233.193 119.813 233.972 119.024C234.751 118.235 235.721 117.84 236.884 117.84C238.047 117.84 239.017 118.229 239.796 119.008C240.575 119.787 240.964 120.757 240.964 121.92V122.4H234.084C234.169 123.147 234.473 123.76 234.996 124.24C235.519 124.72 236.148 124.96 236.884 124.96C237.673 124.96 238.351 124.72 238.916 124.24C239.172 124.027 239.375 123.787 239.524 123.52H240.804C240.612 124.021 240.34 124.464 239.988 124.848C239.156 125.723 238.121 126.16 236.884 126.16C235.721 126.16 234.751 125.765 233.972 124.976ZM234.116 121.28H239.604C239.508 120.651 239.215 120.123 238.724 119.696C238.233 119.259 237.62 119.04 236.884 119.04C236.148 119.04 235.529 119.259 235.028 119.696C234.527 120.123 234.223 120.651 234.116 121.28ZM64.6981 150V142H68.6181C69.3648 142 69.9515 142.187 70.3781 142.56C70.8048 142.933 71.0181 143.413 71.0181 144C71.0181 144.267 70.9808 144.512 70.9061 144.736C70.8315 144.949 70.7408 145.12 70.6341 145.248C70.5275 145.365 70.4101 145.467 70.2821 145.552C70.1648 145.627 70.0635 145.68 69.9781 145.712C69.9035 145.733 69.8501 145.744 69.8181 145.744V145.76C69.8501 145.76 69.9141 145.776 70.0101 145.808C70.1061 145.829 70.2288 145.888 70.3781 145.984C70.5381 146.069 70.6875 146.176 70.8261 146.304C70.9648 146.432 71.0821 146.619 71.1781 146.864C71.2848 147.109 71.3381 147.381 71.3381 147.68C71.3381 148.373 71.0981 148.933 70.6181 149.36C70.1488 149.787 69.4875 150 68.6341 150H64.6981ZM65.9781 145.28H68.5381C69.3381 145.28 69.7381 144.933 69.7381 144.24C69.7381 143.547 69.3381 143.2 68.5381 143.2H65.9781V145.28ZM65.9781 148.8H68.6181C69.0875 148.8 69.4448 148.693 69.6901 148.48C69.9355 148.267 70.0581 147.973 70.0581 147.6C70.0581 147.227 69.9355 146.933 69.6901 146.72C69.4448 146.507 69.0875 146.4 68.6181 146.4H65.9781V148.8ZM80.3844 150V142H81.6644V150H80.3844ZM73.1044 150V142H74.3844V144.72H76.3044C77.2004 144.72 77.931 144.976 78.4964 145.488C79.0617 145.989 79.3444 146.613 79.3444 147.36C79.3444 148.107 79.0617 148.736 78.4964 149.248C77.931 149.749 77.2004 150 76.3044 150H73.1044ZM74.3844 148.8H76.3044C76.859 148.8 77.291 148.667 77.6004 148.4C77.9097 148.133 78.0644 147.787 78.0644 147.36C78.0644 146.933 77.9097 146.587 77.6004 146.32C77.291 146.053 76.859 145.92 76.3044 145.92H74.3844V148.8ZM83.9013 150V142H90.8612V150H89.5813V143.2H85.1813V150H83.9013ZM93.8084 148.976C93.019 148.187 92.6244 147.195 92.6244 146C92.6244 144.805 93.019 143.813 93.8084 143.024C94.5977 142.235 95.5897 141.84 96.7844 141.84C97.979 141.84 98.971 142.235 99.7604 143.024C100.55 143.813 100.944 144.805 100.944 146C100.944 147.195 100.55 148.187 99.7604 148.976C98.971 149.765 97.979 150.16 96.7844 150.16C95.5897 150.16 94.5977 149.765 93.8084 148.976ZM94.7204 143.872C94.1764 144.427 93.9044 145.136 93.9044 146C93.9044 146.864 94.1764 147.573 94.7204 148.128C95.2644 148.683 95.9524 148.96 96.7844 148.96C97.6164 148.96 98.3044 148.683 98.8484 148.128C99.3924 147.573 99.6644 146.864 99.6644 146C99.6644 145.136 99.3924 144.427 98.8484 143.872C98.3044 143.317 97.6164 143.04 96.7844 143.04C95.9524 143.04 95.2644 143.317 94.7204 143.872ZM101.738 150L103.978 142H107.338L109.578 150H108.218L106.378 143.2H104.938L103.098 150H101.738ZM110.854 150V142H112.134V145.28H116.614V142H117.894V150H116.614V146.48H112.134V150H110.854ZM120.824 148.976C120.045 148.187 119.656 147.195 119.656 146C119.656 144.805 120.045 143.813 120.824 143.024C121.602 142.235 122.573 141.84 123.736 141.84C124.898 141.84 125.869 142.229 126.648 143.008C127.426 143.787 127.816 144.757 127.816 145.92V146.4H120.936C121.021 147.147 121.325 147.76 121.848 148.24C122.37 148.72 123 148.96 123.736 148.96C124.525 148.96 125.202 148.72 125.768 148.24C126.024 148.027 126.226 147.787 126.376 147.52H127.656C127.464 148.021 127.192 148.464 126.84 148.848C126.008 149.723 124.973 150.16 123.736 150.16C122.573 150.16 121.602 149.765 120.824 148.976ZM120.968 145.28H126.456C126.36 144.651 126.066 144.123 125.576 143.696C125.085 143.259 124.472 143.04 123.736 143.04C123 143.04 122.381 143.259 121.88 143.696C121.378 144.123 121.074 144.651 120.968 145.28ZM129.573 150V142H130.853V145.28H135.333V142H136.613V150H135.333V146.48H130.853V150H129.573ZM138.854 150V142H140.134V148L140.118 148.16H140.15L144.454 142H145.894V150H144.614V144L144.63 143.84H144.598L140.294 150H138.854ZM147.816 150L149.416 147.12C149.149 147.003 148.882 146.832 148.616 146.608C148.082 146.117 147.816 145.488 147.816 144.72C147.816 143.941 148.098 143.296 148.664 142.784C149.229 142.261 149.981 142 150.92 142H154.536V150H153.256V147.44H150.696L149.288 150H147.816ZM149.56 143.616C149.25 143.893 149.096 144.261 149.096 144.72C149.096 145.179 149.25 145.547 149.56 145.824C149.88 146.101 150.338 146.24 150.936 146.24H153.256V143.2H150.936C150.338 143.2 149.88 143.339 149.56 143.616ZM161.261 153.04V142H162.541V143.28H162.557L162.717 143.04C162.898 142.763 163.223 142.496 163.693 142.24C164.162 141.973 164.738 141.84 165.421 141.84C166.487 141.84 167.394 142.24 168.141 143.04C168.887 143.829 169.261 144.816 169.261 146C169.261 147.184 168.887 148.176 168.141 148.976C167.394 149.765 166.487 150.16 165.421 150.16C164.738 150.16 164.157 150.032 163.677 149.776C163.207 149.509 162.887 149.232 162.717 148.944L162.557 148.72H162.541V153.04H161.261ZM163.309 143.872C162.797 144.427 162.541 145.136 162.541 146C162.541 146.864 162.797 147.573 163.309 148.128C163.831 148.683 164.482 148.96 165.261 148.96C166.039 148.96 166.685 148.683 167.197 148.128C167.719 147.573 167.981 146.864 167.981 146C167.981 145.136 167.719 144.427 167.197 143.872C166.685 143.317 166.039 143.04 165.261 143.04C164.482 143.04 163.831 143.317 163.309 143.872ZM171.666 148.976C170.92 148.176 170.546 147.184 170.546 146C170.546 144.816 170.92 143.829 171.666 143.04C172.413 142.24 173.32 141.84 174.386 141.84C175.058 141.84 175.624 141.968 176.082 142.224C176.552 142.48 176.893 142.757 177.106 143.056L177.25 143.296H177.266V142H178.546V150H177.266V148.72H177.25L177.106 148.944C176.914 149.232 176.584 149.509 176.114 149.776C175.645 150.032 175.069 150.16 174.386 150.16C173.32 150.16 172.413 149.765 171.666 148.976ZM172.594 143.872C172.082 144.427 171.826 145.136 171.826 146C171.826 146.864 172.082 147.573 172.594 148.128C173.117 148.683 173.768 148.96 174.546 148.96C175.325 148.96 175.97 148.683 176.482 148.128C177.005 147.573 177.266 146.864 177.266 146C177.266 145.136 177.005 144.427 176.482 143.872C175.97 143.317 175.325 143.04 174.546 143.04C173.768 143.04 173.117 143.317 172.594 143.872ZM180.312 145.68C180.312 143.269 180.755 141.52 181.64 140.432C182.525 139.344 183.843 138.8 185.592 138.8H187.512V140.16H185.592C184.323 140.16 183.373 140.459 182.744 141.056C182.125 141.643 181.741 142.597 181.592 143.92H181.608C181.768 143.685 181.981 143.472 182.248 143.28C182.845 142.853 183.56 142.64 184.392 142.64C185.48 142.64 186.376 142.997 187.08 143.712C187.795 144.416 188.152 145.312 188.152 146.4C188.152 147.499 187.784 148.4 187.048 149.104C186.323 149.808 185.384 150.16 184.232 150.16C183.048 150.16 182.099 149.765 181.384 148.976C180.669 148.187 180.312 147.088 180.312 145.68ZM182.344 144.576C181.843 145.067 181.592 145.675 181.592 146.4C181.592 147.125 181.843 147.733 182.344 148.224C182.845 148.715 183.475 148.96 184.232 148.96C184.989 148.96 185.619 148.715 186.12 148.224C186.621 147.733 186.872 147.125 186.872 146.4C186.872 145.675 186.621 145.067 186.12 144.576C185.619 144.085 184.989 143.84 184.232 143.84C183.475 143.84 182.845 144.085 182.344 144.576ZM190.449 148.976C189.66 148.187 189.265 147.195 189.265 146C189.265 144.805 189.66 143.813 190.449 143.024C191.238 142.235 192.23 141.84 193.425 141.84C194.62 141.84 195.612 142.235 196.401 143.024C197.19 143.813 197.585 144.805 197.585 146C197.585 147.195 197.19 148.187 196.401 148.976C195.612 149.765 194.62 150.16 193.425 150.16C192.23 150.16 191.238 149.765 190.449 148.976ZM191.361 143.872C190.817 144.427 190.545 145.136 190.545 146C190.545 146.864 190.817 147.573 191.361 148.128C191.905 148.683 192.593 148.96 193.425 148.96C194.257 148.96 194.945 148.683 195.489 148.128C196.033 147.573 196.305 146.864 196.305 146C196.305 145.136 196.033 144.427 195.489 143.872C194.945 143.317 194.257 143.04 193.425 143.04C192.593 143.04 191.905 143.317 191.361 143.872ZM198.299 143.2V142H205.179V143.2H202.379V150H201.099V143.2H198.299ZM213.666 150V142H214.946V150H213.666ZM206.386 150V142H207.666V144.72H209.586C210.482 144.72 211.212 144.976 211.778 145.488C212.343 145.989 212.626 146.613 212.626 147.36C212.626 148.107 212.343 148.736 211.778 149.248C211.212 149.749 210.482 150 209.586 150H206.386ZM207.666 148.8H209.586C210.14 148.8 210.572 148.667 210.882 148.4C211.191 148.133 211.346 147.787 211.346 147.36C211.346 146.933 211.191 146.587 210.882 146.32C210.572 146.053 210.14 145.92 209.586 145.92H207.666V148.8ZM216.783 149.328C216.783 149.019 216.868 148.773 217.039 148.592C217.22 148.411 217.455 148.32 217.743 148.32C218.383 148.32 218.703 148.8 218.703 149.76C218.703 151.168 218.089 151.915 216.863 152V151.36C217.503 151.285 217.823 150.939 217.823 150.32V150.08L217.727 150.128C217.62 150.149 217.545 150.16 217.503 150.16C217.3 150.16 217.129 150.085 216.991 149.936C216.852 149.776 216.783 149.573 216.783 149.328ZM53.3225 172.976C52.5758 172.176 52.2025 171.184 52.2025 170C52.2025 168.816 52.5758 167.829 53.3225 167.04C54.0692 166.24 54.9758 165.84 56.0425 165.84C56.7145 165.84 57.2798 165.968 57.7385 166.224C58.2078 166.48 58.5492 166.757 58.7625 167.056L58.9065 167.296H58.9225V166H60.2025V174H58.9225V172.72H58.9065L58.7625 172.944C58.5705 173.232 58.2398 173.509 57.7705 173.776C57.3012 174.032 56.7252 174.16 56.0425 174.16C54.9758 174.16 54.0692 173.765 53.3225 172.976ZM54.2505 167.872C53.7385 168.427 53.4825 169.136 53.4825 170C53.4825 170.864 53.7385 171.573 54.2505 172.128C54.7732 172.683 55.4238 172.96 56.2025 172.96C56.9812 172.96 57.6265 172.683 58.1385 172.128C58.6612 171.573 58.9225 170.864 58.9225 170C58.9225 169.136 58.6612 168.427 58.1385 167.872C57.6265 167.317 56.9812 167.04 56.2025 167.04C55.4238 167.04 54.7732 167.317 54.2505 167.872ZM62.4481 177.04V166H63.7281V167.28H63.7441L63.9041 167.04C64.0855 166.763 64.4108 166.496 64.8801 166.24C65.3495 165.973 65.9255 165.84 66.6081 165.84C67.6748 165.84 68.5815 166.24 69.3281 167.04C70.0748 167.829 70.4481 168.816 70.4481 170C70.4481 171.184 70.0748 172.176 69.3281 172.976C68.5815 173.765 67.6748 174.16 66.6081 174.16C65.9255 174.16 65.3441 174.032 64.8641 173.776C64.3948 173.509 64.0748 173.232 63.9041 172.944L63.7441 172.72H63.7281V177.04H62.4481ZM64.4961 167.872C63.9841 168.427 63.7281 169.136 63.7281 170C63.7281 170.864 63.9841 171.573 64.4961 172.128C65.0188 172.683 65.6695 172.96 66.4481 172.96C67.2268 172.96 67.8721 172.683 68.3841 172.128C68.9068 171.573 69.1681 170.864 69.1681 170C69.1681 169.136 68.9068 168.427 68.3841 167.872C67.8721 167.317 67.2268 167.04 66.4481 167.04C65.6695 167.04 65.0188 167.317 64.4961 167.872ZM71.7338 169.68C71.7338 167.269 72.1764 165.52 73.0618 164.432C73.9471 163.344 75.2644 162.8 77.0138 162.8H78.9338V164.16H77.0138C75.7444 164.16 74.7951 164.459 74.1658 165.056C73.5471 165.643 73.1631 166.597 73.0138 167.92H73.0298C73.1898 167.685 73.4031 167.472 73.6698 167.28C74.2671 166.853 74.9818 166.64 75.8138 166.64C76.9018 166.64 77.7978 166.997 78.5018 167.712C79.2164 168.416 79.5738 169.312 79.5738 170.4C79.5738 171.499 79.2058 172.4 78.4698 173.104C77.7444 173.808 76.8058 174.16 75.6538 174.16C74.4698 174.16 73.5204 173.765 72.8058 172.976C72.0911 172.187 71.7338 171.088 71.7338 169.68ZM73.7658 168.576C73.2644 169.067 73.0138 169.675 73.0138 170.4C73.0138 171.125 73.2644 171.733 73.7658 172.224C74.2671 172.715 74.8964 172.96 75.6538 172.96C76.4111 172.96 77.0404 172.715 77.5418 172.224C78.0431 171.733 78.2938 171.125 78.2938 170.4C78.2938 169.675 78.0431 169.067 77.5418 168.576C77.0404 168.085 76.4111 167.84 75.6538 167.84C74.8964 167.84 74.2671 168.085 73.7658 168.576ZM81.1669 174V166H82.4469V172L82.4309 172.16H82.4629L86.7669 166H88.2069V174H86.9269V168L86.9429 167.84H86.9109L82.6069 174H81.1669ZM89.4081 167.2V166H96.2881V167.2H93.4881V174H92.2081V167.2H89.4081ZM97.495 177.04V166H98.775V167.28H98.791L98.951 167.04C99.1323 166.763 99.4577 166.496 99.927 166.24C100.396 165.973 100.972 165.84 101.655 165.84C102.722 165.84 103.628 166.24 104.375 167.04C105.122 167.829 105.495 168.816 105.495 170C105.495 171.184 105.122 172.176 104.375 172.976C103.628 173.765 102.722 174.16 101.655 174.16C100.972 174.16 100.391 174.032 99.911 173.776C99.4417 173.509 99.1217 173.232 98.951 172.944L98.791 172.72H98.775V177.04H97.495ZM99.543 167.872C99.031 168.427 98.775 169.136 98.775 170C98.775 170.864 99.031 171.573 99.543 172.128C100.066 172.683 100.716 172.96 101.495 172.96C102.274 172.96 102.919 172.683 103.431 172.128C103.954 171.573 104.215 170.864 104.215 170C104.215 169.136 103.954 168.427 103.431 167.872C102.919 167.317 102.274 167.04 101.495 167.04C100.716 167.04 100.066 167.317 99.543 167.872ZM107.901 172.976C107.154 172.176 106.781 171.184 106.781 170C106.781 168.816 107.154 167.829 107.901 167.04C108.647 166.24 109.554 165.84 110.621 165.84C111.293 165.84 111.858 165.968 112.317 166.224C112.786 166.48 113.127 166.757 113.341 167.056L113.485 167.296H113.501V166H114.781V174H113.501V172.72H113.485L113.341 172.944C113.149 173.232 112.818 173.509 112.349 173.776C111.879 174.032 111.303 174.16 110.621 174.16C109.554 174.16 108.647 173.765 107.901 172.976ZM108.829 167.872C108.317 168.427 108.061 169.136 108.061 170C108.061 170.864 108.317 171.573 108.829 172.128C109.351 172.683 110.002 172.96 110.781 172.96C111.559 172.96 112.205 172.683 112.717 172.128C113.239 171.573 113.501 170.864 113.501 170C113.501 169.136 113.239 168.427 112.717 167.872C112.205 167.317 111.559 167.04 110.781 167.04C110.002 167.04 109.351 167.317 108.829 167.872ZM115.986 174L119.026 169.76L116.226 166H117.746L120.146 169.2H121.506V166H122.786V169.2H124.146L126.546 166H128.066L125.266 169.76L128.306 174H126.706L124.146 170.4H122.786V174H121.506V170.4H120.146L117.586 174H115.986ZM132.955 175.84V172.8H133.835L135.675 166H139.035L140.875 172.8H141.755V175.84H140.475V174H134.235V175.84H132.955ZM135.115 172.8H139.595L138.075 167.2H136.635L135.115 172.8ZM141.988 174L144.228 166H147.588L149.828 174H148.468L146.628 167.2H145.188L143.348 174H141.988ZM150.784 174L152.384 171.12C152.118 171.003 151.851 170.832 151.584 170.608C151.051 170.117 150.784 169.488 150.784 168.72C150.784 167.941 151.067 167.296 151.632 166.784C152.198 166.261 152.95 166 153.888 166H157.504V174H156.224V171.44H153.664L152.256 174H150.784ZM152.528 167.616C152.219 167.893 152.064 168.261 152.064 168.72C152.064 169.179 152.219 169.547 152.528 169.824C152.848 170.101 153.307 170.24 153.904 170.24H156.224V167.2H153.904C153.307 167.2 152.848 167.339 152.528 167.616ZM164.229 177.04V166H165.509V167.28H165.525L165.685 167.04C165.867 166.763 166.192 166.496 166.661 166.24C167.131 165.973 167.707 165.84 168.389 165.84C169.456 165.84 170.363 166.24 171.109 167.04C171.856 167.829 172.229 168.816 172.229 170C172.229 171.184 171.856 172.176 171.109 172.976C170.363 173.765 169.456 174.16 168.389 174.16C167.707 174.16 167.125 174.032 166.645 173.776C166.176 173.509 165.856 173.232 165.685 172.944L165.525 172.72H165.509V177.04H164.229ZM166.277 167.872C165.765 168.427 165.509 169.136 165.509 170C165.509 170.864 165.765 171.573 166.277 172.128C166.8 172.683 167.451 172.96 168.229 172.96C169.008 172.96 169.653 172.683 170.165 172.128C170.688 171.573 170.949 170.864 170.949 170C170.949 169.136 170.688 168.427 170.165 167.872C169.653 167.317 169.008 167.04 168.229 167.04C167.451 167.04 166.8 167.317 166.277 167.872ZM174.683 172.976C173.904 172.187 173.515 171.195 173.515 170C173.515 168.805 173.904 167.813 174.683 167.024C175.462 166.235 176.432 165.84 177.595 165.84C178.758 165.84 179.728 166.229 180.507 167.008C181.286 167.787 181.675 168.757 181.675 169.92V170.4H174.795C174.88 171.147 175.184 171.76 175.707 172.24C176.23 172.72 176.859 172.96 177.595 172.96C178.384 172.96 179.062 172.72 179.627 172.24C179.883 172.027 180.086 171.787 180.235 171.52H181.515C181.323 172.021 181.051 172.464 180.699 172.848C179.867 173.723 178.832 174.16 177.595 174.16C176.432 174.16 175.462 173.765 174.683 172.976ZM174.827 169.28H180.315C180.219 168.651 179.926 168.123 179.435 167.696C178.944 167.259 178.331 167.04 177.595 167.04C176.859 167.04 176.24 167.259 175.739 167.696C175.238 168.123 174.934 168.651 174.827 169.28ZM183.433 174V166H184.713V172.8H187.913V166H189.193V172.8H192.393V166H193.673V174H183.433ZM196.605 172.976C195.826 172.187 195.437 171.195 195.437 170C195.437 168.805 195.826 167.813 196.605 167.024C197.384 166.235 198.354 165.84 199.517 165.84C200.68 165.84 201.65 166.229 202.429 167.008C203.208 167.787 203.597 168.757 203.597 169.92V170.4H196.717C196.802 171.147 197.106 171.76 197.629 172.24C198.152 172.72 198.781 172.96 199.517 172.96C200.306 172.96 200.984 172.72 201.549 172.24C201.805 172.027 202.008 171.787 202.157 171.52H203.437C203.245 172.021 202.973 172.464 202.621 172.848C201.789 173.723 200.754 174.16 199.517 174.16C198.354 174.16 197.384 173.765 196.605 172.976ZM196.749 169.28H202.237C202.141 168.651 201.848 168.123 201.357 167.696C200.866 167.259 200.253 167.04 199.517 167.04C198.781 167.04 198.162 167.259 197.661 167.696C197.16 168.123 196.856 168.651 196.749 169.28ZM205.354 174V166H206.634V169.28H211.114V166H212.394V174H211.114V170.48H206.634V174H205.354ZM214.636 174V166H215.916V172L215.9 172.16H215.932L220.236 166H221.676V174H220.396V168L220.412 167.84H220.38L216.076 174H214.636ZM223.597 174L225.197 171.12C224.93 171.003 224.664 170.832 224.397 170.608C223.864 170.117 223.597 169.488 223.597 168.72C223.597 167.941 223.88 167.296 224.445 166.784C225.01 166.261 225.762 166 226.701 166H230.317V174H229.037V171.44H226.477L225.069 174H223.597ZM225.341 167.616C225.032 167.893 224.877 168.261 224.877 168.72C224.877 169.179 225.032 169.547 225.341 169.824C225.661 170.101 226.12 170.24 226.717 170.24H229.037V167.2H226.717C226.12 167.2 225.661 167.339 225.341 167.616ZM71.4404 196.976C70.6724 196.187 70.2884 195.195 70.2884 194C70.2884 192.805 70.6724 191.813 71.4404 191.024C72.2084 190.235 73.1578 189.84 74.2884 189.84C75.6004 189.84 76.6404 190.309 77.4084 191.248C77.7391 191.664 77.9791 192.128 78.1284 192.64H76.8484C76.7311 192.352 76.5551 192.085 76.3204 191.84C75.8084 191.307 75.1311 191.04 74.2884 191.04C73.5098 191.04 72.8591 191.317 72.3364 191.872C71.8244 192.427 71.5684 193.136 71.5684 194C71.5684 194.864 71.8351 195.573 72.3684 196.128C72.9018 196.683 73.5418 196.96 74.2884 196.96C75.1631 196.96 75.8618 196.667 76.3844 196.08C76.6191 195.835 76.8004 195.541 76.9284 195.2H78.2084C78.0698 195.744 77.8244 196.24 77.4724 196.688C76.6618 197.669 75.6004 198.16 74.2884 198.16C73.1578 198.16 72.2084 197.765 71.4404 196.976ZM79.8153 198V190H86.7753V198H85.4953V191.2H81.0953V198H79.8153ZM89.7224 196.976C88.9331 196.187 88.5384 195.195 88.5384 194C88.5384 192.805 88.9331 191.813 89.7224 191.024C90.5118 190.235 91.5038 189.84 92.6984 189.84C93.8931 189.84 94.8851 190.235 95.6744 191.024C96.4638 191.813 96.8584 192.805 96.8584 194C96.8584 195.195 96.4638 196.187 95.6744 196.976C94.8851 197.765 93.8931 198.16 92.6984 198.16C91.5038 198.16 90.5118 197.765 89.7224 196.976ZM90.6344 191.872C90.0904 192.427 89.8184 193.136 89.8184 194C89.8184 194.864 90.0904 195.573 90.6344 196.128C91.1784 196.683 91.8664 196.96 92.6984 196.96C93.5304 196.96 94.2184 196.683 94.7624 196.128C95.3064 195.573 95.5784 194.864 95.5784 194C95.5784 193.136 95.3064 192.427 94.7624 191.872C94.2184 191.317 93.5304 191.04 92.6984 191.04C91.8664 191.04 91.1784 191.317 90.6344 191.872ZM98.6122 201.04V190H99.8922V191.28H99.9082L100.068 191.04C100.25 190.763 100.575 190.496 101.044 190.24C101.514 189.973 102.09 189.84 102.772 189.84C103.839 189.84 104.746 190.24 105.492 191.04C106.239 191.829 106.612 192.816 106.612 194C106.612 195.184 106.239 196.176 105.492 196.976C104.746 197.765 103.839 198.16 102.772 198.16C102.09 198.16 101.508 198.032 101.028 197.776C100.559 197.509 100.239 197.232 100.068 196.944L99.9082 196.72H99.8922V201.04H98.6122ZM100.66 191.872C100.148 192.427 99.8922 193.136 99.8922 194C99.8922 194.864 100.148 195.573 100.66 196.128C101.183 196.683 101.834 196.96 102.612 196.96C103.391 196.96 104.036 196.683 104.548 196.128C105.071 195.573 105.332 194.864 105.332 194C105.332 193.136 105.071 192.427 104.548 191.872C104.036 191.317 103.391 191.04 102.612 191.04C101.834 191.04 101.183 191.317 100.66 191.872ZM108.378 198V190H109.658V193.28H114.138V190H115.418V198H114.138V194.48H109.658V198H108.378ZM124.939 198V190H126.219V198H124.939ZM117.659 198V190H118.939V192.72H120.859C121.755 192.72 122.486 192.976 123.051 193.488C123.616 193.989 123.899 194.613 123.899 195.36C123.899 196.107 123.616 196.736 123.051 197.248C122.486 197.749 121.755 198 120.859 198H117.659ZM118.939 196.8H120.859C121.414 196.8 121.846 196.667 122.155 196.4C122.464 196.133 122.619 195.787 122.619 195.36C122.619 194.933 122.464 194.587 122.155 194.32C121.846 194.053 121.414 193.92 120.859 193.92H118.939V196.8ZM127.496 198L129.896 193.92L127.576 190H129.016L130.936 193.28H131.656L133.576 190H135.016L132.696 193.92L135.096 198H133.656L131.656 194.48H130.936L128.936 198H127.496ZM140.862 198V190H144.782C145.529 190 146.116 190.187 146.542 190.56C146.969 190.933 147.182 191.413 147.182 192C147.182 192.267 147.145 192.512 147.07 192.736C146.996 192.949 146.905 193.12 146.798 193.248C146.692 193.365 146.574 193.467 146.446 193.552C146.329 193.627 146.228 193.68 146.142 193.712C146.068 193.733 146.014 193.744 145.982 193.744V193.76C146.014 193.76 146.078 193.776 146.174 193.808C146.27 193.829 146.393 193.888 146.542 193.984C146.702 194.069 146.852 194.176 146.99 194.304C147.129 194.432 147.246 194.619 147.342 194.864C147.449 195.109 147.502 195.381 147.502 195.68C147.502 196.373 147.262 196.933 146.782 197.36C146.313 197.787 145.652 198 144.798 198H140.862ZM142.142 193.28H144.702C145.502 193.28 145.902 192.933 145.902 192.24C145.902 191.547 145.502 191.2 144.702 191.2H142.142V193.28ZM142.142 196.8H144.782C145.252 196.8 145.609 196.693 145.854 196.48C146.1 196.267 146.222 195.973 146.222 195.6C146.222 195.227 146.1 194.933 145.854 194.72C145.609 194.507 145.252 194.4 144.782 194.4H142.142V196.8ZM149.972 196.976C149.183 196.187 148.788 195.195 148.788 194C148.788 192.805 149.183 191.813 149.972 191.024C150.762 190.235 151.754 189.84 152.948 189.84C154.143 189.84 155.135 190.235 155.924 191.024C156.714 191.813 157.108 192.805 157.108 194C157.108 195.195 156.714 196.187 155.924 196.976C155.135 197.765 154.143 198.16 152.948 198.16C151.754 198.16 150.762 197.765 149.972 196.976ZM150.884 191.872C150.34 192.427 150.068 193.136 150.068 194C150.068 194.864 150.34 195.573 150.884 196.128C151.428 196.683 152.116 196.96 152.948 196.96C153.78 196.96 154.468 196.683 155.012 196.128C155.556 195.573 155.828 194.864 155.828 194C155.828 193.136 155.556 192.427 155.012 191.872C154.468 191.317 153.78 191.04 152.948 191.04C152.116 191.04 151.428 191.317 150.884 191.872ZM158.862 198V190H165.822V198H164.542V191.2H160.142V198H158.862ZM168.065 201.04V190H169.345V191.28H169.361L169.521 191.04C169.703 190.763 170.028 190.496 170.497 190.24C170.967 189.973 171.543 189.84 172.225 189.84C173.292 189.84 174.199 190.24 174.945 191.04C175.692 191.829 176.065 192.816 176.065 194C176.065 195.184 175.692 196.176 174.945 196.976C174.199 197.765 173.292 198.16 172.225 198.16C171.543 198.16 170.961 198.032 170.481 197.776C170.012 197.509 169.692 197.232 169.521 196.944L169.361 196.72H169.345V201.04H168.065ZM170.113 191.872C169.601 192.427 169.345 193.136 169.345 194C169.345 194.864 169.601 195.573 170.113 196.128C170.636 196.683 171.287 196.96 172.065 196.96C172.844 196.96 173.489 196.683 174.001 196.128C174.524 195.573 174.785 194.864 174.785 194C174.785 193.136 174.524 192.427 174.001 191.872C173.489 191.317 172.844 191.04 172.065 191.04C171.287 191.04 170.636 191.317 170.113 191.872ZM178.535 196.976C177.746 196.187 177.351 195.195 177.351 194C177.351 192.805 177.746 191.813 178.535 191.024C179.324 190.235 180.316 189.84 181.511 189.84C182.706 189.84 183.698 190.235 184.487 191.024C185.276 191.813 185.671 192.805 185.671 194C185.671 195.195 185.276 196.187 184.487 196.976C183.698 197.765 182.706 198.16 181.511 198.16C180.316 198.16 179.324 197.765 178.535 196.976ZM179.447 191.872C178.903 192.427 178.631 193.136 178.631 194C178.631 194.864 178.903 195.573 179.447 196.128C179.991 196.683 180.679 196.96 181.511 196.96C182.343 196.96 183.031 196.683 183.575 196.128C184.119 195.573 184.391 194.864 184.391 194C184.391 193.136 184.119 192.427 183.575 191.872C183.031 191.317 182.343 191.04 181.511 191.04C180.679 191.04 179.991 191.317 179.447 191.872ZM188.097 196.976C187.329 196.187 186.945 195.195 186.945 194C186.945 192.805 187.329 191.813 188.097 191.024C188.865 190.235 189.814 189.84 190.945 189.84C192.257 189.84 193.297 190.309 194.065 191.248C194.395 191.664 194.635 192.128 194.785 192.64H193.505C193.387 192.352 193.211 192.085 192.977 191.84C192.465 191.307 191.787 191.04 190.945 191.04C190.166 191.04 189.515 191.317 188.993 191.872C188.481 192.427 188.225 193.136 188.225 194C188.225 194.864 188.491 195.573 189.025 196.128C189.558 196.683 190.198 196.96 190.945 196.96C191.819 196.96 192.518 196.667 193.041 196.08C193.275 195.835 193.457 195.541 193.585 195.2H194.865C194.726 195.744 194.481 196.24 194.129 196.688C193.318 197.669 192.257 198.16 190.945 198.16C189.814 198.16 188.865 197.765 188.097 196.976ZM197.176 196.976C196.386 196.187 195.992 195.195 195.992 194C195.992 192.805 196.386 191.813 197.176 191.024C197.965 190.235 198.957 189.84 200.152 189.84C201.346 189.84 202.338 190.235 203.128 191.024C203.917 191.813 204.312 192.805 204.312 194C204.312 195.195 203.917 196.187 203.128 196.976C202.338 197.765 201.346 198.16 200.152 198.16C198.957 198.16 197.965 197.765 197.176 196.976ZM198.088 191.872C197.544 192.427 197.272 193.136 197.272 194C197.272 194.864 197.544 195.573 198.088 196.128C198.632 196.683 199.32 196.96 200.152 196.96C200.984 196.96 201.672 196.683 202.216 196.128C202.76 195.573 203.032 194.864 203.032 194C203.032 193.136 202.76 192.427 202.216 191.872C201.672 191.317 200.984 191.04 200.152 191.04C199.32 191.04 198.632 191.317 198.088 191.872ZM206.065 198V190H209.985C210.732 190 211.319 190.187 211.745 190.56C212.172 190.933 212.385 191.413 212.385 192C212.385 192.267 212.348 192.512 212.273 192.736C212.199 192.949 212.108 193.12 212.001 193.248C211.895 193.365 211.777 193.467 211.649 193.552C211.532 193.627 211.431 193.68 211.345 193.712C211.271 193.733 211.217 193.744 211.185 193.744V193.76C211.217 193.76 211.281 193.776 211.377 193.808C211.473 193.829 211.596 193.888 211.745 193.984C211.905 194.069 212.055 194.176 212.193 194.304C212.332 194.432 212.449 194.619 212.545 194.864C212.652 195.109 212.705 195.381 212.705 195.68C212.705 196.373 212.465 196.933 211.985 197.36C211.516 197.787 210.855 198 210.001 198H206.065ZM207.345 193.28H209.905C210.705 193.28 211.105 192.933 211.105 192.24C211.105 191.547 210.705 191.2 209.905 191.2H207.345V193.28ZM207.345 196.8H209.985C210.455 196.8 210.812 196.693 211.057 196.48C211.303 196.267 211.425 195.973 211.425 195.6C211.425 195.227 211.303 194.933 211.057 194.72C210.812 194.507 210.455 194.4 209.985 194.4H207.345V196.8Z" fill="#1D1D1D"/>
<line x1="120" y1="82" x2="165" y2="82" stroke="#1EE0A1" stroke-width="4"/>
<defs>
<filter id="filter0_d_301_12486" x="0" y="0" width="284" height="243" filterUnits="userSpaceOnUse" color-interpolation-filters="sRGB">
<feFlood flood-opacity="0" result="BackgroundImageFix"/>
<feColorMatrix in="SourceAlpha" type="matrix" values="0 0 0 0 0 0 0 0 0 0 0 0 0 0 0 0 0 0 127 0" result="hardAlpha"/>
<feOffset dy="5"/>
<feGaussianBlur stdDeviation="5"/>
<feColorMatrix type="matrix" values="0 0 0 0 0 0 0 0 0 0 0 0 0 0 0 0 0 0 0.2 0"/>
<feBlend mode="normal" in2="BackgroundImageFix" result="effect1_dropShadow_301_12486"/>
<feBlend mode="normal" in="SourceGraphic" in2="effect1_dropShadow_301_12486" result="shape"/>
</filter>
</defs>
</svg>
