<svg width="284" height="243" viewBox="0 0 284 243" fill="none" xmlns="http://www.w3.org/2000/svg">
<g filter="url(#filter0_d_301_12476)">
<rect x="10" y="5" width="264" height="223" rx="8" fill="white"/>
<rect x="10.5" y="5.5" width="263" height="222" rx="7.5" stroke="#D9D9D9"/>
</g>
<path d="M46.6402 50V36H50.4402L54.2402 44.7H54.7402L58.5402 36H62.2402V50H59.9402V40.2L60.1402 38.3H59.9402L56.2402 46.8H52.6402L48.9402 38.3H48.7402L48.9402 40.2V50H46.6402ZM65.7587 48.68C64.7453 47.6533 64.2387 46.3933 64.2387 44.9C64.2387 43.4067 64.7453 42.1533 65.7587 41.14C66.7853 40.1133 68.0453 39.6 69.5387 39.6C71.032 39.6 72.2853 40.1133 73.2987 41.14C74.3253 42.1533 74.8387 43.4067 74.8387 44.9C74.8387 46.3933 74.3253 47.6533 73.2987 48.68C72.2853 49.6933 71.032 50.2 69.5387 50.2C68.0453 50.2 66.7853 49.6933 65.7587 48.68ZM67.2987 42.44C66.7253 43.0533 66.4387 43.8733 66.4387 44.9C66.4387 45.9267 66.7253 46.7533 67.2987 47.38C67.872 47.9933 68.6187 48.3 69.5387 48.3C70.4587 48.3 71.2053 47.9933 71.7787 47.38C72.352 46.7533 72.6387 45.9267 72.6387 44.9C72.6387 43.8733 72.352 43.0533 71.7787 42.44C71.2053 41.8133 70.4587 41.5 69.5387 41.5C68.6187 41.5 67.872 41.8133 67.2987 42.44ZM76.6355 50V39.8H78.7355V48.1H82.0355V39.8H84.1355V48.1H87.4355V39.8H89.5355V48.1H90.9355V52.2H88.9355V50H76.6355ZM92.534 50V39.8H94.634V43.9H99.634V39.8H101.734V50H99.634V45.8H94.634V50H92.534ZM105.056 48.68C104.042 47.6533 103.536 46.3933 103.536 44.9C103.536 43.4067 104.042 42.1533 105.056 41.14C106.082 40.1133 107.342 39.6 108.836 39.6C110.329 39.6 111.582 40.1133 112.596 41.14C113.622 42.1533 114.136 43.4067 114.136 44.9C114.136 46.3933 113.622 47.6533 112.596 48.68C111.582 49.6933 110.329 50.2 108.836 50.2C107.342 50.2 106.082 49.6933 105.056 48.68ZM106.596 42.44C106.022 43.0533 105.736 43.8733 105.736 44.9C105.736 45.9267 106.022 46.7533 106.596 47.38C107.169 47.9933 107.916 48.3 108.836 48.3C109.756 48.3 110.502 47.9933 111.076 47.38C111.649 46.7533 111.936 45.9267 111.936 44.9C111.936 43.8733 111.649 43.0533 111.076 42.44C110.502 41.8133 109.756 41.5 108.836 41.5C107.916 41.5 107.169 41.8133 106.596 42.44ZM116.832 48.68C115.832 47.6533 115.332 46.3933 115.332 44.9C115.332 43.4067 115.832 42.1533 116.832 41.14C117.846 40.1133 119.079 39.6 120.532 39.6C121.986 39.6 123.212 40.1133 124.212 41.14C125.226 42.1533 125.732 43.4067 125.732 44.9V45.6H117.432C117.592 46.44 117.959 47.1 118.532 47.58C119.106 48.06 119.772 48.3 120.532 48.3C121.466 48.3 122.212 48.0667 122.772 47.6C123.026 47.4133 123.246 47.18 123.432 46.9H125.632C125.352 47.5533 124.999 48.1067 124.572 48.56C123.479 49.6533 122.132 50.2 120.532 50.2C119.079 50.2 117.846 49.6933 116.832 48.68ZM117.532 43.9H123.532C123.412 43.2333 123.092 42.6667 122.572 42.2C122.066 41.7333 121.386 41.5 120.532 41.5C119.812 41.5 119.172 41.72 118.612 42.16C118.052 42.5867 117.692 43.1667 117.532 43.9ZM133.139 50V39.8H135.239V43.8H136.739L139.839 39.8H142.239L138.539 44.5L142.539 50H139.939L136.839 45.7H135.239V50H133.139ZM144.274 48.68C143.261 47.6533 142.754 46.3933 142.754 44.9C142.754 43.4067 143.261 42.1533 144.274 41.14C145.301 40.1133 146.561 39.6 148.054 39.6C149.548 39.6 150.801 40.1133 151.814 41.14C152.841 42.1533 153.354 43.4067 153.354 44.9C153.354 46.3933 152.841 47.6533 151.814 48.68C150.801 49.6933 149.548 50.2 148.054 50.2C146.561 50.2 145.301 49.6933 144.274 48.68ZM145.814 42.44C145.241 43.0533 144.954 43.8733 144.954 44.9C144.954 45.9267 145.241 46.7533 145.814 47.38C146.388 47.9933 147.134 48.3 148.054 48.3C148.974 48.3 149.721 47.9933 150.294 47.38C150.868 46.7533 151.154 45.9267 151.154 44.9C151.154 43.8733 150.868 43.0533 150.294 42.44C149.721 41.8133 148.974 41.5 148.054 41.5C147.134 41.5 146.388 41.8133 145.814 42.44ZM155.151 50V39.8H158.151L160.851 45.9H161.251L163.951 39.8H166.951V50H164.851V42.8L164.871 42.6H164.771L162.251 48.2H159.851L157.331 42.6H157.231L157.251 42.8V50H155.151ZM169.35 50V39.8H171.45V43.2H173.95C175.124 43.2 176.064 43.52 176.77 44.16C177.49 44.8 177.85 45.6133 177.85 46.6C177.85 47.5867 177.49 48.4 176.77 49.04C176.064 49.68 175.124 50 173.95 50H169.35ZM171.45 48.1H173.95C174.497 48.1 174.917 47.9667 175.21 47.7C175.504 47.4333 175.65 47.0667 175.65 46.6C175.65 46.1333 175.504 45.7667 175.21 45.5C174.917 45.2333 174.497 45.1 173.95 45.1H171.45V48.1ZM179.448 50V39.8H181.548V43.9H182.948C183.188 42.6333 183.775 41.6 184.708 40.8C185.655 40 186.768 39.6 188.048 39.6C189.501 39.6 190.728 40.1133 191.728 41.14C192.741 42.1533 193.248 43.4067 193.248 44.9C193.248 46.3933 192.741 47.6533 191.728 48.68C190.728 49.6933 189.501 50.2 188.048 50.2C186.755 50.2 185.628 49.78 184.668 48.94C183.708 48.1 183.135 47.0533 182.948 45.8H181.548V50H179.448ZM185.888 42.44C185.328 43.0533 185.048 43.8733 185.048 44.9C185.048 45.9267 185.328 46.7533 185.888 47.38C186.461 47.9933 187.181 48.3 188.048 48.3C188.915 48.3 189.628 47.9933 190.188 47.38C190.761 46.7533 191.048 45.9267 191.048 44.9C191.048 43.8733 190.761 43.0533 190.188 42.44C189.628 41.8133 188.915 41.5 188.048 41.5C187.181 41.5 186.461 41.8133 185.888 42.44ZM195.054 50V39.8H197.154V43.9H202.154V39.8H204.254V50H202.154V45.8H197.154V50H195.054ZM206.655 50V39.8H208.755V46.6L208.735 46.8H208.935L213.555 39.8H215.855V50H213.755V43.2L213.775 43H213.575L208.955 50H206.655ZM217.157 41.7V39.8H226.057V41.7H222.657V50H220.557V41.7H217.157ZM227.358 50V39.8H229.458V46.6L229.438 46.8H229.638L234.258 39.8H236.558V50H234.458V43.2L234.478 43H234.278L229.658 50H227.358Z" fill="#1D1D1D"/>
<path d="M66.4206 126V114.8H75.3006V126H73.8606V116.16H67.8606V126H66.4206ZM77.6981 129.04V118H78.9781V119.28H78.9941L79.1541 119.04C79.3355 118.763 79.6608 118.496 80.1301 118.24C80.5995 117.973 81.1755 117.84 81.8581 117.84C82.9248 117.84 83.8315 118.24 84.5781 119.04C85.3248 119.829 85.6981 120.816 85.6981 122C85.6981 123.184 85.3248 124.176 84.5781 124.976C83.8315 125.765 82.9248 126.16 81.8581 126.16C81.1755 126.16 80.5941 126.032 80.1141 125.776C79.6448 125.509 79.3248 125.232 79.1541 124.944L78.9941 124.72H78.9781V129.04H77.6981ZM79.7461 119.872C79.2341 120.427 78.9781 121.136 78.9781 122C78.9781 122.864 79.2341 123.573 79.7461 124.128C80.2688 124.683 80.9195 124.96 81.6981 124.96C82.4768 124.96 83.1221 124.683 83.6341 124.128C84.1568 123.573 84.4181 122.864 84.4181 122C84.4181 121.136 84.1568 120.427 83.6341 119.872C83.1221 119.317 82.4768 119.04 81.6981 119.04C80.9195 119.04 80.2688 119.317 79.7461 119.872ZM88.1678 124.976C87.3784 124.187 86.9838 123.195 86.9838 122C86.9838 120.805 87.3784 119.813 88.1678 119.024C88.9571 118.235 89.9491 117.84 91.1438 117.84C92.3384 117.84 93.3304 118.235 94.1198 119.024C94.9091 119.813 95.3038 120.805 95.3038 122C95.3038 123.195 94.9091 124.187 94.1198 124.976C93.3304 125.765 92.3384 126.16 91.1438 126.16C89.9491 126.16 88.9571 125.765 88.1678 124.976ZM89.0798 119.872C88.5358 120.427 88.2638 121.136 88.2638 122C88.2638 122.864 88.5358 123.573 89.0798 124.128C89.6238 124.683 90.3118 124.96 91.1438 124.96C91.9758 124.96 92.6638 124.683 93.2078 124.128C93.7518 123.573 94.0238 122.864 94.0238 122C94.0238 121.136 93.7518 120.427 93.2078 119.872C92.6638 119.317 91.9758 119.04 91.1438 119.04C90.3118 119.04 89.6238 119.317 89.0798 119.872ZM97.6815 124.8C96.8922 124.021 96.4975 123.088 96.4975 122C96.4975 120.912 96.8922 119.984 97.6815 119.216C98.4708 118.437 99.4628 118.005 100.658 117.92V114.8H101.938V117.92C103.132 118.005 104.124 118.437 104.914 119.216C105.703 119.984 106.098 120.912 106.098 122C106.098 123.088 105.703 124.021 104.914 124.8C104.124 125.568 103.132 125.995 101.938 126.08V129.04H100.658V126.08C99.4628 125.995 98.4708 125.568 97.6815 124.8ZM101.938 119.12V124.88C102.77 124.837 103.458 124.549 104.002 124.016C104.546 123.472 104.818 122.8 104.818 122C104.818 121.2 104.546 120.533 104.002 120C103.458 119.456 102.77 119.163 101.938 119.12ZM98.5935 120C98.0495 120.533 97.7775 121.2 97.7775 122C97.7775 122.8 98.0495 123.472 98.5935 124.016C99.1375 124.549 99.8255 124.837 100.658 124.88V119.12C99.8255 119.163 99.1375 119.456 98.5935 120ZM108.464 124.976C107.686 124.187 107.296 123.195 107.296 122C107.296 120.805 107.686 119.813 108.464 119.024C109.243 118.235 110.214 117.84 111.376 117.84C112.539 117.84 113.51 118.229 114.288 119.008C115.067 119.787 115.456 120.757 115.456 121.92V122.4H108.576C108.662 123.147 108.966 123.76 109.488 124.24C110.011 124.72 110.64 124.96 111.376 124.96C112.166 124.96 112.843 124.72 113.408 124.24C113.664 124.027 113.867 123.787 114.016 123.52H115.296C115.104 124.021 114.832 124.464 114.48 124.848C113.648 125.723 112.614 126.16 111.376 126.16C110.214 126.16 109.243 125.765 108.464 124.976ZM108.608 121.28H114.096C114 120.651 113.707 120.123 113.216 119.696C112.726 119.259 112.112 119.04 111.376 119.04C110.64 119.04 110.022 119.259 109.52 119.696C109.019 120.123 108.715 120.651 108.608 121.28ZM117.886 124.976C117.118 124.187 116.734 123.195 116.734 122C116.734 120.805 117.118 119.813 117.886 119.024C118.654 118.235 119.603 117.84 120.734 117.84C122.046 117.84 123.086 118.309 123.854 119.248C124.184 119.664 124.424 120.128 124.574 120.64H123.294C123.176 120.352 123 120.085 122.766 119.84C122.254 119.307 121.576 119.04 120.734 119.04C119.955 119.04 119.304 119.317 118.782 119.872C118.27 120.427 118.014 121.136 118.014 122C118.014 122.864 118.28 123.573 118.814 124.128C119.347 124.683 119.987 124.96 120.734 124.96C121.608 124.96 122.307 124.667 122.83 124.08C123.064 123.835 123.246 123.541 123.374 123.2H124.654C124.515 123.744 124.27 124.24 123.918 124.688C123.107 125.669 122.046 126.16 120.734 126.16C119.603 126.16 118.654 125.765 117.886 124.976ZM126.933 124.976C126.165 124.187 125.781 123.195 125.781 122C125.781 120.805 126.165 119.813 126.933 119.024C127.701 118.235 128.65 117.84 129.781 117.84C131.093 117.84 132.133 118.309 132.901 119.248C133.231 119.664 133.471 120.128 133.621 120.64H132.341C132.223 120.352 132.047 120.085 131.813 119.84C131.301 119.307 130.623 119.04 129.781 119.04C129.002 119.04 128.351 119.317 127.829 119.872C127.317 120.427 127.061 121.136 127.061 122C127.061 122.864 127.327 123.573 127.861 124.128C128.394 124.683 129.034 124.96 129.781 124.96C130.655 124.96 131.354 124.667 131.877 124.08C132.111 123.835 132.293 123.541 132.421 123.2H133.701C133.562 123.744 133.317 124.24 132.965 124.688C132.154 125.669 131.093 126.16 129.781 126.16C128.65 126.16 127.701 125.765 126.933 124.976ZM135.308 126V118H136.588V124L136.572 124.16H136.604L140.908 118H142.348V126H141.068V120L141.084 119.84H141.052L136.748 126H135.308ZM145.293 124.976C144.503 124.187 144.109 123.195 144.109 122C144.109 120.805 144.503 119.813 145.293 119.024C146.082 118.235 147.074 117.84 148.269 117.84C149.463 117.84 150.455 118.235 151.245 119.024C152.034 119.813 152.429 120.805 152.429 122C152.429 123.195 152.034 124.187 151.245 124.976C150.455 125.765 149.463 126.16 148.269 126.16C147.074 126.16 146.082 125.765 145.293 124.976ZM146.205 119.872C145.661 120.427 145.389 121.136 145.389 122C145.389 122.864 145.661 123.573 146.205 124.128C146.749 124.683 147.437 124.96 148.269 124.96C149.101 124.96 149.789 124.683 150.333 124.128C150.877 123.573 151.149 122.864 151.149 122C151.149 121.136 150.877 120.427 150.333 119.872C149.789 119.317 149.101 119.04 148.269 119.04C147.437 119.04 146.749 119.317 146.205 119.872ZM154.183 126V118H155.463V121.28H159.943V118H161.223V126H159.943V122.48H155.463V126H154.183ZM164.104 124.976C163.357 124.176 162.984 123.184 162.984 122C162.984 120.816 163.357 119.829 164.104 119.04C164.85 118.24 165.757 117.84 166.824 117.84C167.496 117.84 168.061 117.968 168.52 118.224C168.989 118.48 169.33 118.757 169.544 119.056L169.688 119.296H169.704V118H170.984V126H169.704V124.72H169.688L169.544 124.944C169.352 125.232 169.021 125.509 168.552 125.776C168.082 126.032 167.506 126.16 166.824 126.16C165.757 126.16 164.85 125.765 164.104 124.976ZM165.032 119.872C164.52 120.427 164.264 121.136 164.264 122C164.264 122.864 164.52 123.573 165.032 124.128C165.554 124.683 166.205 124.96 166.984 124.96C167.762 124.96 168.408 124.683 168.92 124.128C169.442 123.573 169.704 122.864 169.704 122C169.704 121.136 169.442 120.427 168.92 119.872C168.408 119.317 167.762 119.04 166.984 119.04C166.205 119.04 165.554 119.317 165.032 119.872ZM172.269 126L174.509 118H177.869L180.109 126H178.749L176.909 119.2H175.469L173.629 126H172.269ZM181.386 126V118H182.666V120.72H184.906C185.802 120.72 186.532 120.976 187.098 121.488C187.663 121.989 187.946 122.613 187.946 123.36C187.946 124.107 187.663 124.736 187.098 125.248C186.532 125.749 185.802 126 184.906 126H181.386ZM182.666 124.8H184.906C185.46 124.8 185.892 124.667 186.202 124.4C186.511 124.133 186.666 123.787 186.666 123.36C186.666 122.933 186.511 122.587 186.202 122.32C185.892 122.053 185.46 121.92 184.906 121.92H182.666V124.8ZM189.464 126V118H190.744V121.28H195.224V118H196.504V126H195.224V122.48H190.744V126H189.464ZM206.025 126V118H207.305V126H206.025ZM198.745 126V118H200.025V120.72H201.945C202.841 120.72 203.572 120.976 204.137 121.488C204.702 121.989 204.985 122.613 204.985 123.36C204.985 124.107 204.702 124.736 204.137 125.248C203.572 125.749 202.841 126 201.945 126H198.745ZM200.025 124.8H201.945C202.5 124.8 202.932 124.667 203.241 124.4C203.55 124.133 203.705 123.787 203.705 123.36C203.705 122.933 203.55 122.587 203.241 122.32C202.932 122.053 202.5 121.92 201.945 121.92H200.025V124.8ZM210.23 124.976C209.451 124.187 209.062 123.195 209.062 122C209.062 120.805 209.451 119.813 210.23 119.024C211.009 118.235 211.979 117.84 213.142 117.84C214.305 117.84 215.275 118.229 216.054 119.008C216.833 119.787 217.222 120.757 217.222 121.92V122.4H210.342C210.427 123.147 210.731 123.76 211.254 124.24C211.777 124.72 212.406 124.96 213.142 124.96C213.931 124.96 214.609 124.72 215.174 124.24C215.43 124.027 215.633 123.787 215.782 123.52H217.062C216.87 124.021 216.598 124.464 216.246 124.848C215.414 125.723 214.379 126.16 213.142 126.16C211.979 126.16 211.009 125.765 210.23 124.976ZM210.374 121.28H215.862C215.766 120.651 215.473 120.123 214.982 119.696C214.491 119.259 213.878 119.04 213.142 119.04C212.406 119.04 211.787 119.259 211.286 119.696C210.785 120.123 210.481 120.651 210.374 121.28ZM45.5263 150V142H46.8063V145.2H48.4062L50.9663 142H52.4862L49.5263 145.76L52.7263 150H51.1263L48.4062 146.4H46.8063V150H45.5263ZM54.324 148.976C53.5347 148.187 53.14 147.195 53.14 146C53.14 144.805 53.5347 143.813 54.324 143.024C55.1133 142.235 56.1053 141.84 57.3 141.84C58.4947 141.84 59.4867 142.235 60.276 143.024C61.0653 143.813 61.46 144.805 61.46 146C61.46 147.195 61.0653 148.187 60.276 148.976C59.4867 149.765 58.4947 150.16 57.3 150.16C56.1053 150.16 55.1133 149.765 54.324 148.976ZM55.236 143.872C54.692 144.427 54.42 145.136 54.42 146C54.42 146.864 54.692 147.573 55.236 148.128C55.78 148.683 56.468 148.96 57.3 148.96C58.132 148.96 58.82 148.683 59.364 148.128C59.908 147.573 60.18 146.864 60.18 146C60.18 145.136 59.908 144.427 59.364 143.872C58.82 143.317 58.132 143.04 57.3 143.04C56.468 143.04 55.78 143.317 55.236 143.872ZM63.2138 150V142H65.1338L67.5338 146.96H67.9338L70.3338 142H72.2538V150H70.9738V143.6L70.9898 143.44H70.9578L68.5738 148.4H66.8938L64.5098 143.44H64.4778L64.4938 143.6V150H63.2138ZM75.135 148.976C74.3883 148.176 74.015 147.184 74.015 146C74.015 144.816 74.3883 143.829 75.135 143.04C75.8817 142.24 76.7883 141.84 77.855 141.84C78.527 141.84 79.0923 141.968 79.551 142.224C80.0203 142.48 80.3617 142.757 80.575 143.056L80.719 143.296H80.735V142H82.015V150H80.735V148.72H80.719L80.575 148.944C80.383 149.232 80.0523 149.509 79.583 149.776C79.1137 150.032 78.5377 150.16 77.855 150.16C76.7883 150.16 75.8817 149.765 75.135 148.976ZM76.063 143.872C75.551 144.427 75.295 145.136 75.295 146C75.295 146.864 75.551 147.573 76.063 148.128C76.5857 148.683 77.2363 148.96 78.015 148.96C78.7937 148.96 79.439 148.683 79.951 148.128C80.4737 147.573 80.735 146.864 80.735 146C80.735 145.136 80.4737 144.427 79.951 143.872C79.439 143.317 78.7937 143.04 78.015 143.04C77.2363 143.04 76.5857 143.317 76.063 143.872ZM84.2606 150V142H85.5406V145.28H90.0206V142H91.3006V150H90.0206V146.48H85.5406V150H84.2606ZM92.5019 151.84V148.8H93.3819L95.2219 142H98.5819L100.422 148.8H101.302V151.84H100.022V150H93.7819V151.84H92.5019ZM94.6619 148.8H99.1419L97.6219 143.2H96.1819L94.6619 148.8ZM109.775 150V142H111.055V150H109.775ZM102.495 150V142H103.775V144.72H105.695C106.591 144.72 107.322 144.976 107.887 145.488C108.452 145.989 108.735 146.613 108.735 147.36C108.735 148.107 108.452 148.736 107.887 149.248C107.322 149.749 106.591 150 105.695 150H102.495ZM103.775 148.8H105.695C106.25 148.8 106.682 148.667 106.991 148.4C107.3 148.133 107.455 147.787 107.455 147.36C107.455 146.933 107.3 146.587 106.991 146.32C106.682 146.053 106.25 145.92 105.695 145.92H103.775V148.8ZM116.736 151.84V148.8H117.616L119.456 142H122.816L124.656 148.8H125.536V151.84H124.256V150H118.016V151.84H116.736ZM118.896 148.8H123.376L121.856 143.2H120.416L118.896 148.8ZM125.769 150L128.009 142H131.369L133.609 150H132.249L130.409 143.2H128.969L127.129 150H125.769ZM134.566 150L136.166 147.12C135.899 147.003 135.632 146.832 135.366 146.608C134.832 146.117 134.566 145.488 134.566 144.72C134.566 143.941 134.848 143.296 135.414 142.784C135.979 142.261 136.731 142 137.67 142H141.286V150H140.006V147.44H137.446L136.038 150H134.566ZM136.31 143.616C136 143.893 135.846 144.261 135.846 144.72C135.846 145.179 136 145.547 136.31 145.824C136.63 146.101 137.088 146.24 137.686 146.24H140.006V143.2H137.686C137.088 143.2 136.63 143.339 136.31 143.616ZM148.011 153.04V142H149.291V143.28H149.307L149.467 143.04C149.648 142.763 149.973 142.496 150.443 142.24C150.912 141.973 151.488 141.84 152.171 141.84C153.237 141.84 154.144 142.24 154.891 143.04C155.637 143.829 156.011 144.816 156.011 146C156.011 147.184 155.637 148.176 154.891 148.976C154.144 149.765 153.237 150.16 152.171 150.16C151.488 150.16 150.907 150.032 150.427 149.776C149.957 149.509 149.637 149.232 149.467 148.944L149.307 148.72H149.291V153.04H148.011ZM150.059 143.872C149.547 144.427 149.291 145.136 149.291 146C149.291 146.864 149.547 147.573 150.059 148.128C150.581 148.683 151.232 148.96 152.011 148.96C152.789 148.96 153.435 148.683 153.947 148.128C154.469 147.573 154.731 146.864 154.731 146C154.731 145.136 154.469 144.427 153.947 143.872C153.435 143.317 152.789 143.04 152.011 143.04C151.232 143.04 150.581 143.317 150.059 143.872ZM158.464 148.976C157.686 148.187 157.296 147.195 157.296 146C157.296 144.805 157.686 143.813 158.464 143.024C159.243 142.235 160.214 141.84 161.376 141.84C162.539 141.84 163.51 142.229 164.288 143.008C165.067 143.787 165.456 144.757 165.456 145.92V146.4H158.576C158.662 147.147 158.966 147.76 159.488 148.24C160.011 148.72 160.64 148.96 161.376 148.96C162.166 148.96 162.843 148.72 163.408 148.24C163.664 148.027 163.867 147.787 164.016 147.52H165.296C165.104 148.021 164.832 148.464 164.48 148.848C163.648 149.723 162.614 150.16 161.376 150.16C160.214 150.16 159.243 149.765 158.464 148.976ZM158.608 145.28H164.096C164 144.651 163.707 144.123 163.216 143.696C162.726 143.259 162.112 143.04 161.376 143.04C160.64 143.04 160.022 143.259 159.52 143.696C159.019 144.123 158.715 144.651 158.608 145.28ZM167.854 148.976C167.107 148.176 166.734 147.184 166.734 146C166.734 144.816 167.107 143.829 167.854 143.04C168.6 142.24 169.507 141.84 170.574 141.84C171.246 141.84 171.811 141.968 172.27 142.224C172.739 142.48 173.08 142.757 173.294 143.056L173.438 143.296H173.454V142H174.734V150H173.454V148.72H173.438L173.294 148.944C173.102 149.232 172.771 149.509 172.302 149.776C171.832 150.032 171.256 150.16 170.574 150.16C169.507 150.16 168.6 149.765 167.854 148.976ZM168.782 143.872C168.27 144.427 168.014 145.136 168.014 146C168.014 146.864 168.27 147.573 168.782 148.128C169.304 148.683 169.955 148.96 170.734 148.96C171.512 148.96 172.158 148.683 172.67 148.128C173.192 147.573 173.454 146.864 173.454 146C173.454 145.136 173.192 144.427 172.67 143.872C172.158 143.317 171.512 143.04 170.734 143.04C169.955 143.04 169.304 143.317 168.782 143.872ZM176.019 150L178.259 142H181.619L183.859 150H182.499L180.659 143.2H179.219L177.379 150H176.019ZM185.136 150V142H186.416V148L186.4 148.16H186.432L190.736 142H192.176V150H190.896V144L190.912 143.84H190.88L186.576 150H185.136ZM193.617 147.52H194.897C194.961 147.787 195.084 148.027 195.265 148.24C195.66 148.72 196.284 148.96 197.137 148.96C197.777 148.96 198.268 148.837 198.609 148.592C198.961 148.336 199.137 148.032 199.137 147.68C199.137 147.328 198.977 147.04 198.657 146.816C198.337 146.592 197.857 146.48 197.217 146.48H196.257V145.28H197.217C198.39 145.28 198.977 144.907 198.977 144.16C198.977 143.851 198.817 143.589 198.497 143.376C198.188 143.152 197.734 143.04 197.137 143.04C196.454 143.04 195.91 143.243 195.505 143.648C195.356 143.797 195.233 143.995 195.137 144.24H193.857C193.953 143.803 194.14 143.403 194.417 143.04C195.046 142.24 195.953 141.84 197.137 141.84C198.14 141.84 198.908 142.053 199.441 142.48C199.985 142.907 200.257 143.44 200.257 144.08C200.257 144.944 199.814 145.525 198.929 145.824L198.897 145.84V145.856C198.929 145.856 198.993 145.872 199.089 145.904C199.185 145.936 199.308 146 199.457 146.096C199.617 146.181 199.766 146.293 199.905 146.432C200.044 146.56 200.161 146.741 200.257 146.976C200.364 147.211 200.417 147.472 200.417 147.76C200.417 148.443 200.129 149.013 199.553 149.472C198.977 149.931 198.172 150.16 197.137 150.16C195.804 150.16 194.817 149.723 194.177 148.848C193.9 148.453 193.713 148.011 193.617 147.52ZM202.823 148.976C202.076 148.176 201.703 147.184 201.703 146C201.703 144.816 202.076 143.829 202.823 143.04C203.569 142.24 204.476 141.84 205.543 141.84C206.215 141.84 206.78 141.968 207.239 142.224C207.708 142.48 208.049 142.757 208.263 143.056L208.407 143.296H208.423V142H209.703V150H208.423V148.72H208.407L208.263 148.944C208.071 149.232 207.74 149.509 207.271 149.776C206.801 150.032 206.225 150.16 205.543 150.16C204.476 150.16 203.569 149.765 202.823 148.976ZM203.751 143.872C203.239 144.427 202.983 145.136 202.983 146C202.983 146.864 203.239 147.573 203.751 148.128C204.273 148.683 204.924 148.96 205.703 148.96C206.481 148.96 207.127 148.683 207.639 148.128C208.161 147.573 208.423 146.864 208.423 146C208.423 145.136 208.161 144.427 207.639 143.872C207.127 143.317 206.481 143.04 205.703 143.04C204.924 143.04 204.273 143.317 203.751 143.872ZM211.948 150V142H213.228V148.8H217.388V142H218.668V148.8H219.788V151.84H218.508V150H211.948ZM221.151 150V142H222.431V148L222.415 148.16H222.447L226.751 142H228.191V150H226.911V144L226.927 143.84H226.895L222.591 150H221.151ZM230.433 150V142H231.713V148L231.697 148.16H231.729L236.033 142H237.473V150H236.193V144L236.209 143.84H236.177L231.873 150H230.433ZM75.8553 174L78.0953 166H81.4553L83.6953 174H82.3353L80.4953 167.2H79.0553L77.2153 174H75.8553ZM84.9716 174V166H86.2516V169.36H87.5316C87.7236 168.304 88.1769 167.456 88.8916 166.816C89.6169 166.165 90.4969 165.84 91.5316 165.84C92.6622 165.84 93.6116 166.235 94.3796 167.024C95.1476 167.813 95.5316 168.805 95.5316 170C95.5316 171.195 95.1476 172.187 94.3796 172.976C93.6116 173.765 92.6622 174.16 91.5316 174.16C90.5076 174.16 89.6222 173.824 88.8756 173.152C88.1289 172.469 87.6809 171.605 87.5316 170.56H86.2516V174H84.9716ZM89.5796 167.872C89.0676 168.427 88.8116 169.136 88.8116 170C88.8116 170.864 89.0676 171.573 89.5796 172.128C90.1022 172.683 90.7529 172.96 91.5316 172.96C92.3102 172.96 92.9556 172.683 93.4676 172.128C93.9902 171.573 94.2516 170.864 94.2516 170C94.2516 169.136 93.9902 168.427 93.4676 167.872C92.9556 167.317 92.3102 167.04 91.5316 167.04C90.7529 167.04 90.1022 167.317 89.5796 167.872ZM96.8041 169.68C96.8041 167.269 97.2467 165.52 98.1321 164.432C99.0174 163.344 100.335 162.8 102.084 162.8H104.004V164.16H102.084C100.815 164.16 99.8654 164.459 99.2361 165.056C98.6174 165.643 98.2334 166.597 98.0841 167.92H98.1001C98.2601 167.685 98.4734 167.472 98.7401 167.28C99.3374 166.853 100.052 166.64 100.884 166.64C101.972 166.64 102.868 166.997 103.572 167.712C104.287 168.416 104.644 169.312 104.644 170.4C104.644 171.499 104.276 172.4 103.54 173.104C102.815 173.808 101.876 174.16 100.724 174.16C99.5401 174.16 98.5907 173.765 97.8761 172.976C97.1614 172.187 96.8041 171.088 96.8041 169.68ZM98.8361 168.576C98.3347 169.067 98.0841 169.675 98.0841 170.4C98.0841 171.125 98.3347 171.733 98.8361 172.224C99.3374 172.715 99.9667 172.96 100.724 172.96C101.481 172.96 102.111 172.715 102.612 172.224C103.113 171.733 103.364 171.125 103.364 170.4C103.364 169.675 103.113 169.067 102.612 168.576C102.111 168.085 101.481 167.84 100.724 167.84C99.9667 167.84 99.3374 168.085 98.8361 168.576ZM113.517 174V166H114.797V174H113.517ZM106.237 174V166H107.517V168.72H109.437C110.333 168.72 111.064 168.976 111.629 169.488C112.195 169.989 112.477 170.613 112.477 171.36C112.477 172.107 112.195 172.736 111.629 173.248C111.064 173.749 110.333 174 109.437 174H106.237ZM107.517 172.8H109.437C109.992 172.8 110.424 172.667 110.733 172.4C111.043 172.133 111.197 171.787 111.197 171.36C111.197 170.933 111.043 170.587 110.733 170.32C110.424 170.053 109.992 169.92 109.437 169.92H107.517V172.8ZM116.074 174L118.474 169.92L116.154 166H117.594L119.514 169.28H120.234L122.154 166H123.594L121.274 169.92L123.674 174H122.234L120.234 170.48H119.514L117.514 174H116.074ZM129.6 174V162.8H131.04V174H129.6ZM132.48 164.16V162.8H141.6V164.16H137.76V174H136.32V164.16H132.48ZM141.921 170.24V168.96H147.681V170.24H141.921ZM148.968 171.52H150.248C150.312 171.787 150.435 172.027 150.616 172.24C151.011 172.72 151.635 172.96 152.488 172.96C153.128 172.96 153.619 172.837 153.96 172.592C154.312 172.336 154.488 172.032 154.488 171.68C154.488 171.328 154.328 171.04 154.008 170.816C153.688 170.592 153.208 170.48 152.568 170.48H151.608V169.28H152.568C153.742 169.28 154.328 168.907 154.328 168.16C154.328 167.851 154.168 167.589 153.848 167.376C153.539 167.152 153.086 167.04 152.488 167.04C151.806 167.04 151.262 167.243 150.856 167.648C150.707 167.797 150.584 167.995 150.488 168.24H149.208C149.304 167.803 149.491 167.403 149.768 167.04C150.398 166.24 151.304 165.84 152.488 165.84C153.491 165.84 154.259 166.053 154.792 166.48C155.336 166.907 155.608 167.44 155.608 168.08C155.608 168.944 155.166 169.525 154.28 169.824L154.248 169.84V169.856C154.28 169.856 154.344 169.872 154.44 169.904C154.536 169.936 154.659 170 154.808 170.096C154.968 170.181 155.118 170.293 155.256 170.432C155.395 170.56 155.512 170.741 155.608 170.976C155.715 171.211 155.768 171.472 155.768 171.76C155.768 172.443 155.48 173.013 154.904 173.472C154.328 173.931 153.523 174.16 152.488 174.16C151.155 174.16 150.168 173.723 149.528 172.848C149.251 172.453 149.064 172.011 148.968 171.52ZM158.174 172.976C157.427 172.176 157.054 171.184 157.054 170C157.054 168.816 157.427 167.829 158.174 167.04C158.921 166.24 159.827 165.84 160.894 165.84C161.566 165.84 162.131 165.968 162.59 166.224C163.059 166.48 163.401 166.757 163.614 167.056L163.758 167.296H163.774V166H165.054V174H163.774V172.72H163.758L163.614 172.944C163.422 173.232 163.091 173.509 162.622 173.776C162.153 174.032 161.577 174.16 160.894 174.16C159.827 174.16 158.921 173.765 158.174 172.976ZM159.102 167.872C158.59 168.427 158.334 169.136 158.334 170C158.334 170.864 158.59 171.573 159.102 172.128C159.625 172.683 160.275 172.96 161.054 172.96C161.833 172.96 162.478 172.683 162.99 172.128C163.513 171.573 163.774 170.864 163.774 170C163.774 169.136 163.513 168.427 162.99 167.872C162.478 167.317 161.833 167.04 161.054 167.04C160.275 167.04 159.625 167.317 159.102 167.872ZM166.26 175.84V172.8H167.14L168.98 166H172.34L174.18 172.8H175.06V175.84H173.78V174H167.54V175.84H166.26ZM168.42 172.8H172.9L171.38 167.2H169.94L168.42 172.8ZM176.893 172.976C176.146 172.176 175.773 171.184 175.773 170C175.773 168.816 176.146 167.829 176.893 167.04C177.639 166.24 178.546 165.84 179.613 165.84C180.285 165.84 180.85 165.968 181.309 166.224C181.778 166.48 182.119 166.757 182.333 167.056L182.477 167.296H182.493V166H183.773V174H182.493V172.72H182.477L182.333 172.944C182.141 173.232 181.81 173.509 181.341 173.776C180.871 174.032 180.295 174.16 179.613 174.16C178.546 174.16 177.639 173.765 176.893 172.976ZM177.821 167.872C177.309 168.427 177.053 169.136 177.053 170C177.053 170.864 177.309 171.573 177.821 172.128C178.343 172.683 178.994 172.96 179.773 172.96C180.551 172.96 181.197 172.683 181.709 172.128C182.231 171.573 182.493 170.864 182.493 170C182.493 169.136 182.231 168.427 181.709 167.872C181.197 167.317 180.551 167.04 179.773 167.04C178.994 167.04 178.343 167.317 177.821 167.872ZM185.778 168.88V166H187.058V168.8C187.058 169.333 187.213 169.749 187.522 170.048C187.842 170.336 188.301 170.48 188.898 170.48C189.528 170.48 190.082 170.389 190.562 170.208C190.786 170.133 190.978 170.037 191.138 169.92V166H192.418V174H191.138V171.04C190.925 171.179 190.728 171.285 190.546 171.36C190.077 171.573 189.501 171.68 188.818 171.68C187.858 171.68 187.112 171.429 186.578 170.928C186.045 170.427 185.778 169.744 185.778 168.88ZM199.143 174V166H200.423V172L200.407 172.16H200.439L204.743 166H206.183V174H204.903V168L204.919 167.84H204.887L200.583 174H199.143ZM103.214 198V190H110.174V198H108.894V191.2H104.494V198H103.214ZM112.417 201.04V190H113.697V191.28H113.713L113.873 191.04C114.054 190.763 114.38 190.496 114.849 190.24C115.318 189.973 115.894 189.84 116.577 189.84C117.644 189.84 118.55 190.24 119.297 191.04C120.044 191.829 120.417 192.816 120.417 194C120.417 195.184 120.044 196.176 119.297 196.976C118.55 197.765 117.644 198.16 116.577 198.16C115.894 198.16 115.313 198.032 114.833 197.776C114.364 197.509 114.044 197.232 113.873 196.944L113.713 196.72H113.697V201.04H112.417ZM114.465 191.872C113.953 192.427 113.697 193.136 113.697 194C113.697 194.864 113.953 195.573 114.465 196.128C114.988 196.683 115.638 196.96 116.417 196.96C117.196 196.96 117.841 196.683 118.353 196.128C118.876 195.573 119.137 194.864 119.137 194C119.137 193.136 118.876 192.427 118.353 191.872C117.841 191.317 117.196 191.04 116.417 191.04C115.638 191.04 114.988 191.317 114.465 191.872ZM122.887 196.976C122.097 196.187 121.703 195.195 121.703 194C121.703 192.805 122.097 191.813 122.887 191.024C123.676 190.235 124.668 189.84 125.863 189.84C127.057 189.84 128.049 190.235 128.839 191.024C129.628 191.813 130.023 192.805 130.023 194C130.023 195.195 129.628 196.187 128.839 196.976C128.049 197.765 127.057 198.16 125.863 198.16C124.668 198.16 123.676 197.765 122.887 196.976ZM123.799 191.872C123.255 192.427 122.983 193.136 122.983 194C122.983 194.864 123.255 195.573 123.799 196.128C124.343 196.683 125.031 196.96 125.863 196.96C126.695 196.96 127.383 196.683 127.927 196.128C128.471 195.573 128.743 194.864 128.743 194C128.743 193.136 128.471 192.427 127.927 191.872C127.383 191.317 126.695 191.04 125.863 191.04C125.031 191.04 124.343 191.317 123.799 191.872ZM130.736 199.84V196.8H131.616L133.456 190H136.816L138.656 196.8H139.536V199.84H138.256V198H132.016V199.84H130.736ZM132.896 196.8H137.376L135.856 191.2H134.416L132.896 196.8ZM139.695 190H141.055L142.815 196.8H144.015L146.095 190H147.455L144.095 201.04H142.735L143.695 198H141.855L139.695 190ZM148.573 198V190H149.853V193.2H151.453L154.013 190H155.533L152.573 193.76L155.773 198H154.173L151.453 194.4H149.853V198H148.573ZM155.939 191.2V190H162.819V191.2H160.019V198H158.739V191.2H155.939ZM164.73 196.976C163.941 196.187 163.546 195.195 163.546 194C163.546 192.805 163.941 191.813 164.73 191.024C165.52 190.235 166.512 189.84 167.706 189.84C168.901 189.84 169.893 190.235 170.682 191.024C171.472 191.813 171.866 192.805 171.866 194C171.866 195.195 171.472 196.187 170.682 196.976C169.893 197.765 168.901 198.16 167.706 198.16C166.512 198.16 165.52 197.765 164.73 196.976ZM165.642 191.872C165.098 192.427 164.826 193.136 164.826 194C164.826 194.864 165.098 195.573 165.642 196.128C166.186 196.683 166.874 196.96 167.706 196.96C168.538 196.96 169.226 196.683 169.77 196.128C170.314 195.573 170.586 194.864 170.586 194C170.586 193.136 170.314 192.427 169.77 191.872C169.226 191.317 168.538 191.04 167.706 191.04C166.874 191.04 166.186 191.317 165.642 191.872ZM173.62 198V190H177.54C178.287 190 178.873 190.187 179.3 190.56C179.727 190.933 179.94 191.413 179.94 192C179.94 192.267 179.903 192.512 179.828 192.736C179.753 192.949 179.663 193.12 179.556 193.248C179.449 193.365 179.332 193.467 179.204 193.552C179.087 193.627 178.985 193.68 178.9 193.712C178.825 193.733 178.772 193.744 178.74 193.744V193.76C178.772 193.76 178.836 193.776 178.932 193.808C179.028 193.829 179.151 193.888 179.3 193.984C179.46 194.069 179.609 194.176 179.748 194.304C179.887 194.432 180.004 194.619 180.1 194.864C180.207 195.109 180.26 195.381 180.26 195.68C180.26 196.373 180.02 196.933 179.54 197.36C179.071 197.787 178.409 198 177.556 198H173.62ZM174.9 193.28H177.46C178.26 193.28 178.66 192.933 178.66 192.24C178.66 191.547 178.26 191.2 177.46 191.2H174.9V193.28ZM174.9 196.8H177.54C178.009 196.8 178.367 196.693 178.612 196.48C178.857 196.267 178.98 195.973 178.98 195.6C178.98 195.227 178.857 194.933 178.612 194.72C178.367 194.507 178.009 194.4 177.54 194.4H174.9V196.8Z" fill="#1D1D1D"/>
<line x1="120" y1="82" x2="165" y2="82" stroke="#1EE0A1" stroke-width="4"/>
<defs>
<filter id="filter0_d_301_12476" x="0" y="0" width="284" height="243" filterUnits="userSpaceOnUse" color-interpolation-filters="sRGB">
<feFlood flood-opacity="0" result="BackgroundImageFix"/>
<feColorMatrix in="SourceAlpha" type="matrix" values="0 0 0 0 0 0 0 0 0 0 0 0 0 0 0 0 0 0 127 0" result="hardAlpha"/>
<feOffset dy="5"/>
<feGaussianBlur stdDeviation="5"/>
<feColorMatrix type="matrix" values="0 0 0 0 0 0 0 0 0 0 0 0 0 0 0 0 0 0 0.2 0"/>
<feBlend mode="normal" in2="BackgroundImageFix" result="effect1_dropShadow_301_12476"/>
<feBlend mode="normal" in="SourceGraphic" in2="effect1_dropShadow_301_12476" result="shape"/>
</filter>
</defs>
</svg>
