<svg width="284" height="243" viewBox="0 0 284 243" fill="none" xmlns="http://www.w3.org/2000/svg">
<g filter="url(#filter0_d_301_12481)">
<rect x="10" y="5" width="264" height="223" rx="8" fill="white"/>
<rect x="10.5" y="5.5" width="263" height="222" rx="7.5" stroke="#D9D9D9"/>
</g>
<path d="M80.3598 52.6V47.8H81.9598L84.9598 36H90.6598L93.6598 47.8H95.2598V52.6H93.0598V50H82.5598V52.6H80.3598ZM84.2598 47.8H91.2598L88.8598 38.2H86.6598L84.2598 47.8ZM97.4774 48.68C96.4641 47.6533 95.9574 46.3933 95.9574 44.9C95.9574 43.4067 96.4641 42.1533 97.4774 41.14C98.5041 40.1133 99.7641 39.6 101.257 39.6C102.751 39.6 104.004 40.1133 105.017 41.14C106.044 42.1533 106.557 43.4067 106.557 44.9C106.557 46.3933 106.044 47.6533 105.017 48.68C104.004 49.6933 102.751 50.2 101.257 50.2C99.7641 50.2 98.5041 49.6933 97.4774 48.68ZM99.0174 42.44C98.4441 43.0533 98.1574 43.8733 98.1574 44.9C98.1574 45.9267 98.4441 46.7533 99.0174 47.38C99.5908 47.9933 100.337 48.3 101.257 48.3C102.177 48.3 102.924 47.9933 103.497 47.38C104.071 46.7533 104.357 45.9267 104.357 44.9C104.357 43.8733 104.071 43.0533 103.497 42.44C102.924 41.8133 102.177 41.5 101.257 41.5C100.337 41.5 99.5908 41.8133 99.0174 42.44ZM109.214 48.7C108.241 47.7 107.754 46.4333 107.754 44.9C107.754 43.3667 108.241 42.1 109.214 41.1C110.188 40.1 111.401 39.6 112.854 39.6C114.481 39.6 115.808 40.22 116.834 41.46C117.274 42.0333 117.581 42.6467 117.754 43.3H115.554C115.461 42.9667 115.288 42.6667 115.034 42.4C114.514 41.8 113.788 41.5 112.854 41.5C112.028 41.5 111.334 41.8133 110.774 42.44C110.228 43.0667 109.954 43.8867 109.954 44.9C109.954 45.9133 110.228 46.7333 110.774 47.36C111.334 47.9867 112.028 48.3 112.854 48.3C113.814 48.3 114.568 48 115.114 47.4C115.354 47.1333 115.534 46.8333 115.654 46.5H117.754C117.581 47.18 117.274 47.8 116.834 48.36C115.821 49.5867 114.494 50.2 112.854 50.2C111.401 50.2 110.188 49.7 109.214 48.7ZM118.348 41.7V39.8H127.248V41.7H123.848V50H121.748V41.7H118.348ZM127.55 39.8H129.75L131.95 48H133.05L135.45 39.8H137.65L133.45 53.8H131.25L132.45 50H130.35L127.55 39.8ZM138.745 50V39.8H147.845V50H145.745V41.7H140.845V50H138.745ZM150.249 50V39.8H152.349V43.9H157.349V39.8H159.449V50H157.349V45.8H152.349V50H150.249ZM162.77 48.68C161.757 47.6533 161.25 46.3933 161.25 44.9C161.25 43.4067 161.757 42.1533 162.77 41.14C163.797 40.1133 165.057 39.6 166.55 39.6C168.044 39.6 169.297 40.1133 170.31 41.14C171.337 42.1533 171.85 43.4067 171.85 44.9C171.85 46.3933 171.337 47.6533 170.31 48.68C169.297 49.6933 168.044 50.2 166.55 50.2C165.057 50.2 163.797 49.6933 162.77 48.68ZM164.31 42.44C163.737 43.0533 163.45 43.8733 163.45 44.9C163.45 45.9267 163.737 46.7533 164.31 47.38C164.884 47.9933 165.63 48.3 166.55 48.3C167.47 48.3 168.217 47.9933 168.79 47.38C169.364 46.7533 169.65 45.9267 169.65 44.9C169.65 43.8733 169.364 43.0533 168.79 42.44C168.217 41.8133 167.47 41.5 166.55 41.5C165.63 41.5 164.884 41.8133 164.31 42.44ZM174.507 48.7C173.534 47.7 173.047 46.4333 173.047 44.9C173.047 43.3667 173.534 42.1 174.507 41.1C175.481 40.1 176.694 39.6 178.147 39.6C179.774 39.6 181.101 40.22 182.127 41.46C182.567 42.0333 182.874 42.6467 183.047 43.3H180.847C180.754 42.9667 180.581 42.6667 180.327 42.4C179.807 41.8 179.081 41.5 178.147 41.5C177.321 41.5 176.627 41.8133 176.067 42.44C175.521 43.0667 175.247 43.8867 175.247 44.9C175.247 45.9133 175.521 46.7333 176.067 47.36C176.627 47.9867 177.321 48.3 178.147 48.3C179.107 48.3 179.861 48 180.407 47.4C180.647 47.1333 180.827 46.8333 180.947 46.5H183.047C182.874 47.18 182.567 47.8 182.127 48.36C181.114 49.5867 179.787 50.2 178.147 50.2C176.694 50.2 175.481 49.7 174.507 48.7ZM183.641 41.7V39.8H192.541V41.7H189.141V50H187.041V41.7H183.641ZM193.843 50V39.8H195.943V43.2H198.443C199.616 43.2 200.556 43.52 201.263 44.16C201.983 44.8 202.343 45.6133 202.343 46.6C202.343 47.5867 201.983 48.4 201.263 49.04C200.556 49.68 199.616 50 198.443 50H193.843ZM195.943 48.1H198.443C198.989 48.1 199.409 47.9667 199.703 47.7C199.996 47.4333 200.143 47.0667 200.143 46.6C200.143 46.1333 199.996 45.7667 199.703 45.5C199.409 45.2333 198.989 45.1 198.443 45.1H195.943V48.1Z" fill="#1D1D1D"/>
<path d="M68.0321 124.656C66.9334 123.536 66.3841 122.117 66.3841 120.4C66.3841 118.683 66.9334 117.269 68.0321 116.16C69.1414 115.04 70.5387 114.48 72.2241 114.48C74.1121 114.48 75.6001 115.163 76.6881 116.528C77.1681 117.115 77.5201 117.792 77.7441 118.56H76.3041C76.0801 118.027 75.7974 117.573 75.4561 117.2C74.6134 116.293 73.5361 115.84 72.2241 115.84C70.9334 115.84 69.8774 116.261 69.0561 117.104C68.2347 117.947 67.8241 119.045 67.8241 120.4C67.8241 121.755 68.2347 122.853 69.0561 123.696C69.8774 124.539 70.9334 124.96 72.2241 124.96C73.5574 124.96 74.6614 124.469 75.5361 123.488C75.8881 123.083 76.1707 122.587 76.3841 122H77.8241C77.5681 122.832 77.1947 123.552 76.7041 124.16C75.5841 125.6 74.0907 126.32 72.2241 126.32C70.5387 126.32 69.1414 125.765 68.0321 124.656ZM80.2849 124.976C79.4956 124.187 79.1009 123.195 79.1009 122C79.1009 120.805 79.4956 119.813 80.2849 119.024C81.0743 118.235 82.0663 117.84 83.2609 117.84C84.4556 117.84 85.4476 118.235 86.2369 119.024C87.0263 119.813 87.4209 120.805 87.4209 122C87.4209 123.195 87.0263 124.187 86.2369 124.976C85.4476 125.765 84.4556 126.16 83.2609 126.16C82.0663 126.16 81.0743 125.765 80.2849 124.976ZM81.1969 119.872C80.6529 120.427 80.3809 121.136 80.3809 122C80.3809 122.864 80.6529 123.573 81.1969 124.128C81.7409 124.683 82.4289 124.96 83.2609 124.96C84.0929 124.96 84.7809 124.683 85.3249 124.128C85.8689 123.573 86.1409 122.864 86.1409 122C86.1409 121.136 85.8689 120.427 85.3249 119.872C84.7809 119.317 84.0929 119.04 83.2609 119.04C82.4289 119.04 81.7409 119.317 81.1969 119.872ZM88.3747 123.52H89.6547C89.7187 123.787 89.8414 124.027 90.0227 124.24C90.4174 124.72 91.0414 124.96 91.8947 124.96C92.5347 124.96 93.0254 124.837 93.3667 124.592C93.7187 124.336 93.8947 124.032 93.8947 123.68C93.8947 123.328 93.7347 123.04 93.4147 122.816C93.0947 122.592 92.6147 122.48 91.9747 122.48H91.0147V121.28H91.9747C93.148 121.28 93.7347 120.907 93.7347 120.16C93.7347 119.851 93.5747 119.589 93.2547 119.376C92.9454 119.152 92.492 119.04 91.8947 119.04C91.212 119.04 90.668 119.243 90.2627 119.648C90.1134 119.797 89.9907 119.995 89.8947 120.24H88.6147C88.7107 119.803 88.8974 119.403 89.1747 119.04C89.804 118.24 90.7107 117.84 91.8947 117.84C92.8974 117.84 93.6654 118.053 94.1987 118.48C94.7427 118.907 95.0147 119.44 95.0147 120.08C95.0147 120.944 94.572 121.525 93.6867 121.824L93.6547 121.84V121.856C93.6867 121.856 93.7507 121.872 93.8467 121.904C93.9427 121.936 94.0654 122 94.2147 122.096C94.3747 122.181 94.524 122.293 94.6627 122.432C94.8014 122.56 94.9187 122.741 95.0147 122.976C95.1214 123.211 95.1747 123.472 95.1747 123.76C95.1747 124.443 94.8867 125.013 94.3107 125.472C93.7347 125.931 92.9294 126.16 91.8947 126.16C90.5614 126.16 89.5747 125.723 88.9347 124.848C88.6574 124.453 88.4707 124.011 88.3747 123.52ZM95.9003 127.84V124.8H96.7803L98.6203 118H101.98L103.82 124.8H104.7V127.84H103.42V126H97.1803V127.84H95.9003ZM98.0603 124.8H102.54L101.02 119.2H99.5803L98.0603 124.8ZM106.533 124.976C105.787 124.176 105.413 123.184 105.413 122C105.413 120.816 105.787 119.829 106.533 119.04C107.28 118.24 108.187 117.84 109.253 117.84C109.925 117.84 110.491 117.968 110.949 118.224C111.419 118.48 111.76 118.757 111.973 119.056L112.117 119.296H112.133V118H113.413V126H112.133V124.72H112.117L111.973 124.944C111.781 125.232 111.451 125.509 110.981 125.776C110.512 126.032 109.936 126.16 109.253 126.16C108.187 126.16 107.28 125.765 106.533 124.976ZM107.461 119.872C106.949 120.427 106.693 121.136 106.693 122C106.693 122.864 106.949 123.573 107.461 124.128C107.984 124.683 108.635 124.96 109.413 124.96C110.192 124.96 110.837 124.683 111.349 124.128C111.872 123.573 112.133 122.864 112.133 122C112.133 121.136 111.872 120.427 111.349 119.872C110.837 119.317 110.192 119.04 109.413 119.04C108.635 119.04 107.984 119.317 107.461 119.872ZM116.347 124.976C115.568 124.187 115.179 123.195 115.179 122C115.179 120.805 115.568 119.813 116.347 119.024C117.126 118.235 118.096 117.84 119.259 117.84C120.422 117.84 121.392 118.229 122.171 119.008C122.95 119.787 123.339 120.757 123.339 121.92V122.4H116.459C116.544 123.147 116.848 123.76 117.371 124.24C117.894 124.72 118.523 124.96 119.259 124.96C120.048 124.96 120.726 124.72 121.291 124.24C121.547 124.027 121.75 123.787 121.899 123.52H123.179C122.987 124.021 122.715 124.464 122.363 124.848C121.531 125.723 120.496 126.16 119.259 126.16C118.096 126.16 117.126 125.765 116.347 124.976ZM116.491 121.28H121.979C121.883 120.651 121.59 120.123 121.099 119.696C120.608 119.259 119.995 119.04 119.259 119.04C118.523 119.04 117.904 119.259 117.403 119.696C116.902 120.123 116.598 120.651 116.491 121.28ZM125.097 126V118H127.017L129.417 122.96H129.817L132.217 118H134.137V126H132.857V119.6L132.873 119.44H132.841L130.457 124.4H128.777L126.393 119.44H126.361L126.377 119.6V126H125.097ZM140.862 129.04V118H142.142V119.28H142.158L142.318 119.04C142.5 118.763 142.825 118.496 143.294 118.24C143.764 117.973 144.34 117.84 145.022 117.84C146.089 117.84 146.996 118.24 147.742 119.04C148.489 119.829 148.862 120.816 148.862 122C148.862 123.184 148.489 124.176 147.742 124.976C146.996 125.765 146.089 126.16 145.022 126.16C144.34 126.16 143.758 126.032 143.278 125.776C142.809 125.509 142.489 125.232 142.318 124.944L142.158 124.72H142.142V129.04H140.862ZM142.91 119.872C142.398 120.427 142.142 121.136 142.142 122C142.142 122.864 142.398 123.573 142.91 124.128C143.433 124.683 144.084 124.96 144.862 124.96C145.641 124.96 146.286 124.683 146.798 124.128C147.321 123.573 147.582 122.864 147.582 122C147.582 121.136 147.321 120.427 146.798 119.872C146.286 119.317 145.641 119.04 144.862 119.04C144.084 119.04 143.433 119.317 142.91 119.872ZM157.908 126V118H159.188V126H157.908ZM150.628 126V118H151.908V120.72H153.828C154.724 120.72 155.454 120.976 156.02 121.488C156.585 121.989 156.868 122.613 156.868 123.36C156.868 124.107 156.585 124.736 156.02 125.248C155.454 125.749 154.724 126 153.828 126H150.628ZM151.908 124.8H153.828C154.382 124.8 154.814 124.667 155.124 124.4C155.433 124.133 155.588 123.787 155.588 123.36C155.588 122.933 155.433 122.587 155.124 122.32C154.814 122.053 154.382 121.92 153.828 121.92H151.908V124.8ZM161.425 126V118H162.705V121.28H167.185V118H168.465V126H167.185V122.48H162.705V126H161.425ZM171.41 124.976C170.621 124.187 170.226 123.195 170.226 122C170.226 120.805 170.621 119.813 171.41 119.024C172.199 118.235 173.191 117.84 174.386 117.84C175.581 117.84 176.573 118.235 177.362 119.024C178.151 119.813 178.546 120.805 178.546 122C178.546 123.195 178.151 124.187 177.362 124.976C176.573 125.765 175.581 126.16 174.386 126.16C173.191 126.16 172.199 125.765 171.41 124.976ZM172.322 119.872C171.778 120.427 171.506 121.136 171.506 122C171.506 122.864 171.778 123.573 172.322 124.128C172.866 124.683 173.554 124.96 174.386 124.96C175.218 124.96 175.906 124.683 176.45 124.128C176.994 123.573 177.266 122.864 177.266 122C177.266 121.136 176.994 120.427 176.45 119.872C175.906 119.317 175.218 119.04 174.386 119.04C173.554 119.04 172.866 119.317 172.322 119.872ZM180.06 120.88V118H181.34V120.8C181.34 121.333 181.494 121.749 181.804 122.048C182.124 122.336 182.582 122.48 183.18 122.48C183.809 122.48 184.364 122.389 184.844 122.208C185.068 122.133 185.26 122.037 185.42 121.92V118H186.7V126H185.42V123.04C185.206 123.179 185.009 123.285 184.828 123.36C184.358 123.573 183.782 123.68 183.1 123.68C182.14 123.68 181.393 123.429 180.86 122.928C180.326 122.427 180.06 121.744 180.06 120.88ZM188.94 126V118H190.22V121.28H194.7V118H195.98V126H194.7V122.48H190.22V126H188.94ZM205.502 126V118H206.782V126H205.502ZM198.222 126V118H199.502V120.72H201.422C202.318 120.72 203.048 120.976 203.614 121.488C204.179 121.989 204.462 122.613 204.462 123.36C204.462 124.107 204.179 124.736 203.614 125.248C203.048 125.749 202.318 126 201.422 126H198.222ZM199.502 124.8H201.422C201.976 124.8 202.408 124.667 202.718 124.4C203.027 124.133 203.182 123.787 203.182 123.36C203.182 122.933 203.027 122.587 202.718 122.32C202.408 122.053 201.976 121.92 201.422 121.92H199.502V124.8ZM209.706 124.976C208.928 124.187 208.538 123.195 208.538 122C208.538 120.805 208.928 119.813 209.706 119.024C210.485 118.235 211.456 117.84 212.618 117.84C213.781 117.84 214.752 118.229 215.53 119.008C216.309 119.787 216.698 120.757 216.698 121.92V122.4H209.818C209.904 123.147 210.208 123.76 210.73 124.24C211.253 124.72 211.882 124.96 212.618 124.96C213.408 124.96 214.085 124.72 214.65 124.24C214.906 124.027 215.109 123.787 215.258 123.52H216.538C216.346 124.021 216.074 124.464 215.722 124.848C214.89 125.723 213.856 126.16 212.618 126.16C211.456 126.16 210.485 125.765 209.706 124.976ZM209.85 121.28H215.338C215.242 120.651 214.949 120.123 214.458 119.696C213.968 119.259 213.354 119.04 212.618 119.04C211.882 119.04 211.264 119.259 210.762 119.696C210.261 120.123 209.957 120.651 209.85 121.28ZM40.6481 142H42.0081L43.7681 148.8H44.9681L47.0481 142H48.4081L45.0481 153.04H43.6881L44.6481 150H42.8081L40.6481 142ZM50.1983 148.976C49.4303 148.187 49.0463 147.195 49.0463 146C49.0463 144.805 49.4303 143.813 50.1983 143.024C50.9663 142.235 51.9156 141.84 53.0463 141.84C54.3583 141.84 55.3983 142.309 56.1663 143.248C56.4969 143.664 56.7369 144.128 56.8863 144.64H55.6063C55.4889 144.352 55.3129 144.085 55.0783 143.84C54.5663 143.307 53.8889 143.04 53.0463 143.04C52.2676 143.04 51.6169 143.317 51.0943 143.872C50.5823 144.427 50.3263 145.136 50.3263 146C50.3263 146.864 50.5929 147.573 51.1263 148.128C51.6596 148.683 52.2996 148.96 53.0463 148.96C53.9209 148.96 54.6196 148.667 55.1423 148.08C55.3769 147.835 55.5583 147.541 55.6863 147.2H56.9663C56.8276 147.744 56.5823 148.24 56.2303 148.688C55.4196 149.669 54.3583 150.16 53.0463 150.16C51.9156 150.16 50.9663 149.765 50.1983 148.976ZM57.6131 150L59.8531 142H63.2131L65.4531 150H64.0931L62.2531 143.2H60.8131L58.9731 150H57.6131ZM67.4334 148.976C66.644 148.187 66.2494 147.195 66.2494 146C66.2494 144.805 66.644 143.813 67.4334 143.024C68.2227 142.235 69.2147 141.84 70.4094 141.84C71.604 141.84 72.596 142.235 73.3854 143.024C74.1747 143.813 74.5694 144.805 74.5694 146C74.5694 147.195 74.1747 148.187 73.3854 148.976C72.596 149.765 71.604 150.16 70.4094 150.16C69.2147 150.16 68.2227 149.765 67.4334 148.976ZM68.3454 143.872C67.8014 144.427 67.5294 145.136 67.5294 146C67.5294 146.864 67.8014 147.573 68.3454 148.128C68.8894 148.683 69.5774 148.96 70.4094 148.96C71.2414 148.96 71.9294 148.683 72.4734 148.128C73.0174 147.573 73.2894 146.864 73.2894 146C73.2894 145.136 73.0174 144.427 72.4734 143.872C71.9294 143.317 71.2414 143.04 70.4094 143.04C69.5774 143.04 68.8894 143.317 68.3454 143.872ZM76.3231 150V142H80.2431C80.9898 142 81.5765 142.187 82.0031 142.56C82.4298 142.933 82.6431 143.413 82.6431 144C82.6431 144.267 82.6058 144.512 82.5311 144.736C82.4565 144.949 82.3658 145.12 82.2591 145.248C82.1525 145.365 82.0351 145.467 81.9071 145.552C81.7898 145.627 81.6885 145.68 81.6031 145.712C81.5285 145.733 81.4751 145.744 81.4431 145.744V145.76C81.4751 145.76 81.5391 145.776 81.6351 145.808C81.7311 145.829 81.8538 145.888 82.0031 145.984C82.1631 146.069 82.3125 146.176 82.4511 146.304C82.5898 146.432 82.7071 146.619 82.8031 146.864C82.9098 147.109 82.9631 147.381 82.9631 147.68C82.9631 148.373 82.7231 148.933 82.2431 149.36C81.7738 149.787 81.1125 150 80.2591 150H76.3231ZM77.6031 145.28H80.1631C80.9631 145.28 81.3631 144.933 81.3631 144.24C81.3631 143.547 80.9631 143.2 80.1631 143.2H77.6031V145.28ZM77.6031 148.8H80.2431C80.7125 148.8 81.0698 148.693 81.3151 148.48C81.5605 148.267 81.6831 147.973 81.6831 147.6C81.6831 147.227 81.5605 146.933 81.3151 146.72C81.0698 146.507 80.7125 146.4 80.2431 146.4H77.6031V148.8ZM84.7294 150V142H86.0094V148L85.9934 148.16H86.0254L90.3294 142H91.7694V150H90.4894V144L90.5054 143.84H90.4734L86.1694 150H84.7294ZM93.6906 150L95.2906 147.12C95.024 147.003 94.7573 146.832 94.4906 146.608C93.9573 146.117 93.6906 145.488 93.6906 144.72C93.6906 143.941 93.9733 143.296 94.5386 142.784C95.104 142.261 95.856 142 96.7946 142H100.411V150H99.1306V147.44H96.5706L95.1626 150H93.6906ZM95.4346 143.616C95.1253 143.893 94.9706 144.261 94.9706 144.72C94.9706 145.179 95.1253 145.547 95.4346 145.824C95.7546 146.101 96.2133 146.24 96.8106 146.24H99.1306V143.2H96.8106C96.2133 143.2 95.7546 143.339 95.4346 143.616ZM102.251 149.328C102.251 149.019 102.337 148.773 102.507 148.592C102.689 148.411 102.923 148.32 103.211 148.32C103.851 148.32 104.171 148.8 104.171 149.76C104.171 151.168 103.558 151.915 102.331 152V151.36C102.971 151.285 103.291 150.939 103.291 150.32V150.08L103.195 150.128C103.089 150.149 103.014 150.16 102.971 150.16C102.769 150.16 102.598 150.085 102.459 149.936C102.321 149.776 102.251 149.573 102.251 149.328ZM109.771 144.88V142H111.051V144.8C111.051 145.333 111.205 145.749 111.515 146.048C111.835 146.336 112.293 146.48 112.891 146.48C113.52 146.48 114.075 146.389 114.555 146.208C114.779 146.133 114.971 146.037 115.131 145.92V142H116.411V150H115.131V147.04C114.917 147.179 114.72 147.285 114.539 147.36C114.069 147.573 113.493 147.68 112.811 147.68C111.851 147.68 111.104 147.429 110.571 146.928C110.037 146.427 109.771 145.744 109.771 144.88ZM117.611 143.2V142H124.491V143.2H121.691V150H120.411V143.2H117.611ZM126.402 148.976C125.613 148.187 125.218 147.195 125.218 146C125.218 144.805 125.613 143.813 126.402 143.024C127.191 142.235 128.183 141.84 129.378 141.84C130.573 141.84 131.565 142.235 132.354 143.024C133.143 143.813 133.538 144.805 133.538 146C133.538 147.195 133.143 148.187 132.354 148.976C131.565 149.765 130.573 150.16 129.378 150.16C128.183 150.16 127.191 149.765 126.402 148.976ZM127.314 143.872C126.77 144.427 126.498 145.136 126.498 146C126.498 146.864 126.77 147.573 127.314 148.128C127.858 148.683 128.546 148.96 129.378 148.96C130.21 148.96 130.898 148.683 131.442 148.128C131.986 147.573 132.258 146.864 132.258 146C132.258 145.136 131.986 144.427 131.442 143.872C130.898 143.317 130.21 143.04 129.378 143.04C128.546 143.04 127.858 143.317 127.314 143.872ZM140.448 148.976C139.68 148.187 139.296 147.195 139.296 146C139.296 144.805 139.68 143.813 140.448 143.024C141.216 142.235 142.166 141.84 143.296 141.84C144.608 141.84 145.648 142.309 146.416 143.248C146.747 143.664 146.987 144.128 147.136 144.64H145.856C145.739 144.352 145.563 144.085 145.328 143.84C144.816 143.307 144.139 143.04 143.296 143.04C142.518 143.04 141.867 143.317 141.344 143.872C140.832 144.427 140.576 145.136 140.576 146C140.576 146.864 140.843 147.573 141.376 148.128C141.91 148.683 142.55 148.96 143.296 148.96C144.171 148.96 144.87 148.667 145.392 148.08C145.627 147.835 145.808 147.541 145.936 147.2H147.216C147.078 147.744 146.832 148.24 146.48 148.688C145.67 149.669 144.608 150.16 143.296 150.16C142.166 150.16 141.216 149.765 140.448 148.976ZM148.823 150V142H155.783V150H154.503V143.2H150.103V150H148.823ZM158.73 148.976C157.941 148.187 157.546 147.195 157.546 146C157.546 144.805 157.941 143.813 158.73 143.024C159.52 142.235 160.512 141.84 161.706 141.84C162.901 141.84 163.893 142.235 164.682 143.024C165.472 143.813 165.866 144.805 165.866 146C165.866 147.195 165.472 148.187 164.682 148.976C163.893 149.765 162.901 150.16 161.706 150.16C160.512 150.16 159.52 149.765 158.73 148.976ZM159.642 143.872C159.098 144.427 158.826 145.136 158.826 146C158.826 146.864 159.098 147.573 159.642 148.128C160.186 148.683 160.874 148.96 161.706 148.96C162.538 148.96 163.226 148.683 163.77 148.128C164.314 147.573 164.586 146.864 164.586 146C164.586 145.136 164.314 144.427 163.77 143.872C163.226 143.317 162.538 143.04 161.706 143.04C160.874 143.04 160.186 143.317 159.642 143.872ZM168.292 148.976C167.524 148.187 167.14 147.195 167.14 146C167.14 144.805 167.524 143.813 168.292 143.024C169.06 142.235 170.009 141.84 171.14 141.84C172.452 141.84 173.492 142.309 174.26 143.248C174.591 143.664 174.831 144.128 174.98 144.64H173.7C173.583 144.352 173.407 144.085 173.172 143.84C172.66 143.307 171.983 143.04 171.14 143.04C170.361 143.04 169.711 143.317 169.188 143.872C168.676 144.427 168.42 145.136 168.42 146C168.42 146.864 168.687 147.573 169.22 148.128C169.753 148.683 170.393 148.96 171.14 148.96C172.015 148.96 172.713 148.667 173.236 148.08C173.471 147.835 173.652 147.541 173.78 147.2H175.06C174.921 147.744 174.676 148.24 174.324 148.688C173.513 149.669 172.452 150.16 171.14 150.16C170.009 150.16 169.06 149.765 168.292 148.976ZM177.371 148.976C176.582 148.187 176.187 147.195 176.187 146C176.187 144.805 176.582 143.813 177.371 143.024C178.16 142.235 179.152 141.84 180.347 141.84C181.542 141.84 182.534 142.235 183.323 143.024C184.112 143.813 184.507 144.805 184.507 146C184.507 147.195 184.112 148.187 183.323 148.976C182.534 149.765 181.542 150.16 180.347 150.16C179.152 150.16 178.16 149.765 177.371 148.976ZM178.283 143.872C177.739 144.427 177.467 145.136 177.467 146C177.467 146.864 177.739 147.573 178.283 148.128C178.827 148.683 179.515 148.96 180.347 148.96C181.179 148.96 181.867 148.683 182.411 148.128C182.955 147.573 183.227 146.864 183.227 146C183.227 145.136 182.955 144.427 182.411 143.872C181.867 143.317 181.179 143.04 180.347 143.04C179.515 143.04 178.827 143.317 178.283 143.872ZM185.781 145.68C185.781 143.269 186.223 141.52 187.109 140.432C187.994 139.344 189.311 138.8 191.061 138.8H192.981V140.16H191.061C189.791 140.16 188.842 140.459 188.213 141.056C187.594 141.643 187.21 142.597 187.061 143.92H187.077C187.237 143.685 187.45 143.472 187.717 143.28C188.314 142.853 189.029 142.64 189.861 142.64C190.949 142.64 191.845 142.997 192.549 143.712C193.263 144.416 193.621 145.312 193.621 146.4C193.621 147.499 193.253 148.4 192.517 149.104C191.791 149.808 190.853 150.16 189.701 150.16C188.517 150.16 187.567 149.765 186.853 148.976C186.138 148.187 185.781 147.088 185.781 145.68ZM187.813 144.576C187.311 145.067 187.061 145.675 187.061 146.4C187.061 147.125 187.311 147.733 187.813 148.224C188.314 148.715 188.943 148.96 189.701 148.96C190.458 148.96 191.087 148.715 191.589 148.224C192.09 147.733 192.341 147.125 192.341 146.4C192.341 145.675 192.09 145.067 191.589 144.576C191.087 144.085 190.458 143.84 189.701 143.84C188.943 143.84 188.314 144.085 187.813 144.576ZM195.886 148.976C195.118 148.187 194.734 147.195 194.734 146C194.734 144.805 195.118 143.813 195.886 143.024C196.654 142.235 197.603 141.84 198.734 141.84C200.046 141.84 201.086 142.309 201.854 143.248C202.184 143.664 202.424 144.128 202.574 144.64H201.294C201.176 144.352 201 144.085 200.766 143.84C200.254 143.307 199.576 143.04 198.734 143.04C197.955 143.04 197.304 143.317 196.782 143.872C196.27 144.427 196.014 145.136 196.014 146C196.014 146.864 196.28 147.573 196.814 148.128C197.347 148.683 197.987 148.96 198.734 148.96C199.608 148.96 200.307 148.667 200.83 148.08C201.064 147.835 201.246 147.541 201.374 147.2H202.654C202.515 147.744 202.27 148.24 201.918 148.688C201.107 149.669 200.046 150.16 198.734 150.16C197.603 150.16 196.654 149.765 195.886 148.976ZM203.221 143.2V142H210.101V143.2H207.301V150H206.021V143.2H203.221ZM211.308 150V142H215.228C215.974 142 216.561 142.187 216.988 142.56C217.414 142.933 217.628 143.413 217.628 144C217.628 144.267 217.59 144.512 217.516 144.736C217.441 144.949 217.35 145.12 217.244 145.248C217.137 145.365 217.02 145.467 216.892 145.552C216.774 145.627 216.673 145.68 216.588 145.712C216.513 145.733 216.46 145.744 216.428 145.744V145.76C216.46 145.76 216.524 145.776 216.62 145.808C216.716 145.829 216.838 145.888 216.988 145.984C217.148 146.069 217.297 146.176 217.436 146.304C217.574 146.432 217.692 146.619 217.788 146.864C217.894 147.109 217.948 147.381 217.948 147.68C217.948 148.373 217.708 148.933 217.228 149.36C216.758 149.787 216.097 150 215.244 150H211.308ZM212.588 145.28H215.148C215.948 145.28 216.348 144.933 216.348 144.24C216.348 143.547 215.948 143.2 215.148 143.2H212.588V145.28ZM212.588 148.8H215.228C215.697 148.8 216.054 148.693 216.3 148.48C216.545 148.267 216.668 147.973 216.668 147.6C216.668 147.227 216.545 146.933 216.3 146.72C216.054 146.507 215.697 146.4 215.228 146.4H212.588V148.8ZM218.914 142H220.274L222.034 148.8H223.234L225.314 142H226.674L223.314 153.04H221.954L222.914 150H221.074L218.914 142ZM228.48 148.976C227.701 148.187 227.312 147.195 227.312 146C227.312 144.805 227.701 143.813 228.48 143.024C229.259 142.235 230.229 141.84 231.392 141.84C232.555 141.84 233.525 142.229 234.304 143.008C235.083 143.787 235.472 144.757 235.472 145.92V146.4H228.592C228.677 147.147 228.981 147.76 229.504 148.24C230.027 148.72 230.656 148.96 231.392 148.96C232.181 148.96 232.859 148.72 233.424 148.24C233.68 148.027 233.883 147.787 234.032 147.52H235.312C235.12 148.021 234.848 148.464 234.496 148.848C233.664 149.723 232.629 150.16 231.392 150.16C230.229 150.16 229.259 149.765 228.48 148.976ZM228.624 145.28H234.112C234.016 144.651 233.723 144.123 233.232 143.696C232.741 143.259 232.128 143.04 231.392 143.04C230.656 143.04 230.037 143.259 229.536 143.696C229.035 144.123 228.731 144.651 228.624 145.28ZM236.189 143.2V142H243.069V143.2H240.269V150H238.989V143.2H236.189ZM74.2841 174V166H75.5641V169.2H77.1641L79.7241 166H81.2441L78.2841 169.76L81.4841 174H79.8841L77.1641 170.4H75.5641V174H74.2841ZM83.0818 172.976C82.2925 172.187 81.8978 171.195 81.8978 170C81.8978 168.805 82.2925 167.813 83.0818 167.024C83.8711 166.235 84.8631 165.84 86.0578 165.84C87.2525 165.84 88.2445 166.235 89.0338 167.024C89.8231 167.813 90.2178 168.805 90.2178 170C90.2178 171.195 89.8231 172.187 89.0338 172.976C88.2445 173.765 87.2525 174.16 86.0578 174.16C84.8631 174.16 83.8711 173.765 83.0818 172.976ZM83.9938 167.872C83.4498 168.427 83.1778 169.136 83.1778 170C83.1778 170.864 83.4498 171.573 83.9938 172.128C84.5378 172.683 85.2258 172.96 86.0578 172.96C86.8898 172.96 87.5778 172.683 88.1218 172.128C88.6658 171.573 88.9378 170.864 88.9378 170C88.9378 169.136 88.6658 168.427 88.1218 167.872C87.5778 167.317 86.8898 167.04 86.0578 167.04C85.2258 167.04 84.5378 167.317 83.9938 167.872ZM91.9716 174V166H93.2516V169.28H97.7316V166H99.0116V174H97.7316V170.48H93.2516V174H91.9716ZM101.253 174V166H102.533V169.2H104.133L106.693 166H108.213L105.253 169.76L108.453 174H106.853L104.133 170.4H102.533V174H101.253ZM108.859 166H110.219L111.979 172.8H113.179L115.259 166H116.619L113.259 177.04H111.899L112.859 174H111.019L108.859 166ZM117.737 177.04V166H119.017V167.28H119.033L119.193 167.04C119.375 166.763 119.7 166.496 120.169 166.24C120.639 165.973 121.215 165.84 121.897 165.84C122.964 165.84 123.871 166.24 124.617 167.04C125.364 167.829 125.737 168.816 125.737 170C125.737 171.184 125.364 172.176 124.617 172.976C123.871 173.765 122.964 174.16 121.897 174.16C121.215 174.16 120.633 174.032 120.153 173.776C119.684 173.509 119.364 173.232 119.193 172.944L119.033 172.72H119.017V177.04H117.737ZM119.785 167.872C119.273 168.427 119.017 169.136 119.017 170C119.017 170.864 119.273 171.573 119.785 172.128C120.308 172.683 120.959 172.96 121.737 172.96C122.516 172.96 123.161 172.683 123.673 172.128C124.196 171.573 124.457 170.864 124.457 170C124.457 169.136 124.196 168.427 123.673 167.872C123.161 167.317 122.516 167.04 121.737 167.04C120.959 167.04 120.308 167.317 119.785 167.872ZM128.191 172.976C127.412 172.187 127.023 171.195 127.023 170C127.023 168.805 127.412 167.813 128.191 167.024C128.969 166.235 129.94 165.84 131.103 165.84C132.265 165.84 133.236 166.229 134.015 167.008C134.793 167.787 135.183 168.757 135.183 169.92V170.4H128.303C128.388 171.147 128.692 171.76 129.215 172.24C129.737 172.72 130.367 172.96 131.103 172.96C131.892 172.96 132.569 172.72 133.135 172.24C133.391 172.027 133.593 171.787 133.743 171.52H135.023C134.831 172.021 134.559 172.464 134.207 172.848C133.375 173.723 132.34 174.16 131.103 174.16C129.94 174.16 128.969 173.765 128.191 172.976ZM128.335 169.28H133.823C133.727 168.651 133.433 168.123 132.943 167.696C132.452 167.259 131.839 167.04 131.103 167.04C130.367 167.04 129.748 167.259 129.247 167.696C128.745 168.123 128.441 168.651 128.335 169.28ZM136.94 174V166H138.22V169.28H142.7V166H143.98V174H142.7V170.48H138.22V174H136.94ZM146.222 174V166H147.502V172.8H151.662V166H152.942V172.8H154.062V175.84H152.782V174H146.222ZM155.425 174V166H156.705V172L156.689 172.16H156.721L161.025 166H162.465V174H161.185V168L161.201 167.84H161.169L156.865 174H155.425ZM164.706 174V166H165.986V172L165.97 172.16H166.002L170.306 166H171.746V174H170.466V168L170.482 167.84H170.45L166.146 174H164.706ZM178.472 174V166H179.752V172L179.736 172.16H179.768L184.072 166H185.512V174H184.232V168L184.248 167.84H184.216L179.912 174H178.472ZM192.237 174V166H193.517V169.28H197.997V166H199.277V174H197.997V170.48H193.517V174H192.237ZM202.206 172.976C201.428 172.187 201.038 171.195 201.038 170C201.038 168.805 201.428 167.813 202.206 167.024C202.985 166.235 203.956 165.84 205.118 165.84C206.281 165.84 207.252 166.229 208.03 167.008C208.809 167.787 209.198 168.757 209.198 169.92V170.4H202.318C202.404 171.147 202.708 171.76 203.23 172.24C203.753 172.72 204.382 172.96 205.118 172.96C205.908 172.96 206.585 172.72 207.15 172.24C207.406 172.027 207.609 171.787 207.758 171.52H209.038C208.846 172.021 208.574 172.464 208.222 172.848C207.39 173.723 206.356 174.16 205.118 174.16C203.956 174.16 202.985 173.765 202.206 172.976ZM202.35 169.28H207.838C207.742 168.651 207.449 168.123 206.958 167.696C206.468 167.259 205.854 167.04 205.118 167.04C204.382 167.04 203.764 167.259 203.262 167.696C202.761 168.123 202.457 168.651 202.35 169.28ZM50.7606 198V190H54.6806C55.4273 190 56.014 190.187 56.4406 190.56C56.8673 190.933 57.0806 191.413 57.0806 192C57.0806 192.267 57.0433 192.512 56.9686 192.736C56.894 192.949 56.8033 193.12 56.6966 193.248C56.59 193.365 56.4726 193.467 56.3446 193.552C56.2273 193.627 56.126 193.68 56.0406 193.712C55.966 193.733 55.9126 193.744 55.8806 193.744V193.76C55.9126 193.76 55.9766 193.776 56.0726 193.808C56.1686 193.829 56.2913 193.888 56.4406 193.984C56.6006 194.069 56.75 194.176 56.8886 194.304C57.0273 194.432 57.1446 194.619 57.2406 194.864C57.3473 195.109 57.4006 195.381 57.4006 195.68C57.4006 196.373 57.1606 196.933 56.6806 197.36C56.2113 197.787 55.55 198 54.6966 198H50.7606ZM52.0406 193.28H54.6006C55.4006 193.28 55.8006 192.933 55.8006 192.24C55.8006 191.547 55.4006 191.2 54.6006 191.2H52.0406V193.28ZM52.0406 196.8H54.6806C55.15 196.8 55.5073 196.693 55.7526 196.48C55.998 196.267 56.1206 195.973 56.1206 195.6C56.1206 195.227 55.998 194.933 55.7526 194.72C55.5073 194.507 55.15 194.4 54.6806 194.4H52.0406V196.8ZM66.4469 198V190H67.7269V198H66.4469ZM59.1669 198V190H60.4469V192.72H62.3669C63.2629 192.72 63.9935 192.976 64.5589 193.488C65.1242 193.989 65.4069 194.613 65.4069 195.36C65.4069 196.107 65.1242 196.736 64.5589 197.248C63.9935 197.749 63.2629 198 62.3669 198H59.1669ZM60.4469 196.8H62.3669C62.9215 196.8 63.3535 196.667 63.6629 196.4C63.9722 196.133 64.1269 195.787 64.1269 195.36C64.1269 194.933 63.9722 194.587 63.6629 194.32C63.3535 194.053 62.9215 193.92 62.3669 193.92H60.4469V196.8ZM70.6358 196.976C69.8678 196.187 69.4838 195.195 69.4838 194C69.4838 192.805 69.8678 191.813 70.6358 191.024C71.4038 190.235 72.3531 189.84 73.4838 189.84C74.7958 189.84 75.8358 190.309 76.6038 191.248C76.9344 191.664 77.1744 192.128 77.3238 192.64H76.0438C75.9264 192.352 75.7504 192.085 75.5158 191.84C75.0038 191.307 74.3264 191.04 73.4838 191.04C72.7051 191.04 72.0544 191.317 71.5318 191.872C71.0198 192.427 70.7638 193.136 70.7638 194C70.7638 194.864 71.0304 195.573 71.5638 196.128C72.0971 196.683 72.7371 196.96 73.4838 196.96C74.3584 196.96 75.0571 196.667 75.5798 196.08C75.8144 195.835 75.9958 195.541 76.1238 195.2H77.4038C77.2651 195.744 77.0198 196.24 76.6678 196.688C75.8571 197.669 74.7958 198.16 73.4838 198.16C72.3531 198.16 71.4038 197.765 70.6358 196.976ZM79.7146 196.976C78.9253 196.187 78.5306 195.195 78.5306 194C78.5306 192.805 78.9253 191.813 79.7146 191.024C80.504 190.235 81.496 189.84 82.6906 189.84C83.8853 189.84 84.8773 190.235 85.6666 191.024C86.456 191.813 86.8506 192.805 86.8506 194C86.8506 195.195 86.456 196.187 85.6666 196.976C84.8773 197.765 83.8853 198.16 82.6906 198.16C81.496 198.16 80.504 197.765 79.7146 196.976ZM80.6266 191.872C80.0826 192.427 79.8106 193.136 79.8106 194C79.8106 194.864 80.0826 195.573 80.6266 196.128C81.1706 196.683 81.8586 196.96 82.6906 196.96C83.5226 196.96 84.2106 196.683 84.7546 196.128C85.2986 195.573 85.5706 194.864 85.5706 194C85.5706 193.136 85.2986 192.427 84.7546 191.872C84.2106 191.317 83.5226 191.04 82.6906 191.04C81.8586 191.04 81.1706 191.317 80.6266 191.872ZM88.6044 198V190H89.8844V193.2H91.4844L94.0444 190H95.5644L92.6044 193.76L95.8044 198H94.2044L91.4844 194.4H89.8844V198H88.6044ZM97.4021 196.976C96.6128 196.187 96.2181 195.195 96.2181 194C96.2181 192.805 96.6128 191.813 97.4021 191.024C98.1915 190.235 99.1835 189.84 100.378 189.84C101.573 189.84 102.565 190.235 103.354 191.024C104.143 191.813 104.538 192.805 104.538 194C104.538 195.195 104.143 196.187 103.354 196.976C102.565 197.765 101.573 198.16 100.378 198.16C99.1835 198.16 98.1915 197.765 97.4021 196.976ZM98.3141 191.872C97.7701 192.427 97.4981 193.136 97.4981 194C97.4981 194.864 97.7701 195.573 98.3141 196.128C98.8581 196.683 99.5461 196.96 100.378 196.96C101.21 196.96 101.898 196.683 102.442 196.128C102.986 195.573 103.258 194.864 103.258 194C103.258 193.136 102.986 192.427 102.442 191.872C101.898 191.317 101.21 191.04 100.378 191.04C99.5461 191.04 98.8581 191.317 98.3141 191.872ZM106.292 198V190H107.572V196L107.556 196.16H107.588L111.892 190H113.332V198H112.052V192L112.068 191.84H112.036L107.732 198H106.292ZM107.444 186.8H108.644C108.644 187.088 108.745 187.323 108.948 187.504C109.151 187.675 109.449 187.76 109.844 187.76C110.239 187.76 110.537 187.675 110.74 187.504C110.943 187.323 111.044 187.088 111.044 186.8H112.244C112.244 187.387 112.031 187.867 111.604 188.24C111.177 188.613 110.591 188.8 109.844 188.8C109.097 188.8 108.511 188.613 108.084 188.24C107.657 187.867 107.444 187.387 107.444 186.8ZM120.058 198V190H121.338V196.8H125.498V190H126.778V196.8H127.898V199.84H126.618V198H120.058ZM129.949 196.976C129.17 196.187 128.781 195.195 128.781 194C128.781 192.805 129.17 191.813 129.949 191.024C130.727 190.235 131.698 189.84 132.861 189.84C134.023 189.84 134.994 190.229 135.773 191.008C136.551 191.787 136.941 192.757 136.941 193.92V194.4H130.061C130.146 195.147 130.45 195.76 130.973 196.24C131.495 196.72 132.125 196.96 132.861 196.96C133.65 196.96 134.327 196.72 134.893 196.24C135.149 196.027 135.351 195.787 135.501 195.52H136.781C136.589 196.021 136.317 196.464 135.965 196.848C135.133 197.723 134.098 198.16 132.861 198.16C131.698 198.16 130.727 197.765 129.949 196.976ZM130.093 193.28H135.581C135.485 192.651 135.191 192.123 134.701 191.696C134.21 191.259 133.597 191.04 132.861 191.04C132.125 191.04 131.506 191.259 131.005 191.696C130.503 192.123 130.199 192.651 130.093 193.28ZM138.698 198V190H139.978V193.28H144.458V190H145.738V198H144.458V194.48H139.978V198H138.698ZM155.259 198V190H156.539V198H155.259ZM147.979 198V190H149.259V192.72H151.179C152.075 192.72 152.806 192.976 153.371 193.488C153.937 193.989 154.219 194.613 154.219 195.36C154.219 196.107 153.937 196.736 153.371 197.248C152.806 197.749 152.075 198 151.179 198H147.979ZM149.259 196.8H151.179C151.734 196.8 152.166 196.667 152.475 196.4C152.785 196.133 152.939 195.787 152.939 195.36C152.939 194.933 152.785 194.587 152.475 194.32C152.166 194.053 151.734 193.92 151.179 193.92H149.259V196.8ZM162.461 195.52H163.741C163.805 195.787 163.927 196.027 164.109 196.24C164.503 196.72 165.127 196.96 165.981 196.96C166.621 196.96 167.111 196.837 167.453 196.592C167.805 196.336 167.981 196.032 167.981 195.68C167.981 195.328 167.821 195.04 167.501 194.816C167.181 194.592 166.701 194.48 166.061 194.48H165.101V193.28H166.061C167.234 193.28 167.821 192.907 167.821 192.16C167.821 191.851 167.661 191.589 167.341 191.376C167.031 191.152 166.578 191.04 165.981 191.04C165.298 191.04 164.754 191.243 164.349 191.648C164.199 191.797 164.077 191.995 163.981 192.24H162.701C162.797 191.803 162.983 191.403 163.261 191.04C163.89 190.24 164.797 189.84 165.981 189.84C166.983 189.84 167.751 190.053 168.285 190.48C168.829 190.907 169.101 191.44 169.101 192.08C169.101 192.944 168.658 193.525 167.773 193.824L167.741 193.84V193.856C167.773 193.856 167.837 193.872 167.933 193.904C168.029 193.936 168.151 194 168.301 194.096C168.461 194.181 168.61 194.293 168.749 194.432C168.887 194.56 169.005 194.741 169.101 194.976C169.207 195.211 169.261 195.472 169.261 195.76C169.261 196.443 168.973 197.013 168.397 197.472C167.821 197.931 167.015 198.16 165.981 198.16C164.647 198.16 163.661 197.723 163.021 196.848C162.743 196.453 162.557 196.011 162.461 195.52ZM171.666 196.976C170.92 196.176 170.546 195.184 170.546 194C170.546 192.816 170.92 191.829 171.666 191.04C172.413 190.24 173.32 189.84 174.386 189.84C175.058 189.84 175.624 189.968 176.082 190.224C176.552 190.48 176.893 190.757 177.106 191.056L177.25 191.296H177.266V190H178.546V198H177.266V196.72H177.25L177.106 196.944C176.914 197.232 176.584 197.509 176.114 197.776C175.645 198.032 175.069 198.16 174.386 198.16C173.32 198.16 172.413 197.765 171.666 196.976ZM172.594 191.872C172.082 192.427 171.826 193.136 171.826 194C171.826 194.864 172.082 195.573 172.594 196.128C173.117 196.683 173.768 196.96 174.546 196.96C175.325 196.96 175.97 196.683 176.482 196.128C177.005 195.573 177.266 194.864 177.266 194C177.266 193.136 177.005 192.427 176.482 191.872C175.97 191.317 175.325 191.04 174.546 191.04C173.768 191.04 173.117 191.317 172.594 191.872ZM184.476 190H185.836L187.596 196.8H188.796L190.876 190H192.236L188.876 201.04H187.516L188.476 198H186.636L184.476 190ZM194.026 196.976C193.258 196.187 192.874 195.195 192.874 194C192.874 192.805 193.258 191.813 194.026 191.024C194.794 190.235 195.744 189.84 196.874 189.84C198.186 189.84 199.226 190.309 199.994 191.248C200.325 191.664 200.565 192.128 200.714 192.64H199.434C199.317 192.352 199.141 192.085 198.906 191.84C198.394 191.307 197.717 191.04 196.874 191.04C196.096 191.04 195.445 191.317 194.922 191.872C194.41 192.427 194.154 193.136 194.154 194C194.154 194.864 194.421 195.573 194.954 196.128C195.488 196.683 196.128 196.96 196.874 196.96C197.749 196.96 198.448 196.667 198.97 196.08C199.205 195.835 199.386 195.541 199.514 195.2H200.794C200.656 195.744 200.41 196.24 200.058 196.688C199.248 197.669 198.186 198.16 196.874 198.16C195.744 198.16 194.794 197.765 194.026 196.976ZM201.441 198L203.681 190H207.041L209.281 198H207.921L206.081 191.2H204.641L202.801 198H201.441ZM209.523 190H210.883L212.643 196.8H213.843L215.923 190H217.283L213.923 201.04H212.563L213.523 198H211.683L209.523 190ZM218.401 198V190H223.921V191.2H219.681V198H218.401ZM225.198 198V190H226.478V196L226.462 196.16H226.494L230.798 190H232.238V198H230.958V192L230.974 191.84H230.942L226.638 198H225.198Z" fill="#1D1D1D"/>
<line x1="120" y1="82" x2="165" y2="82" stroke="#1EE0A1" stroke-width="4"/>
<defs>
<filter id="filter0_d_301_12481" x="0" y="0" width="284" height="243" filterUnits="userSpaceOnUse" color-interpolation-filters="sRGB">
<feFlood flood-opacity="0" result="BackgroundImageFix"/>
<feColorMatrix in="SourceAlpha" type="matrix" values="0 0 0 0 0 0 0 0 0 0 0 0 0 0 0 0 0 0 127 0" result="hardAlpha"/>
<feOffset dy="5"/>
<feGaussianBlur stdDeviation="5"/>
<feColorMatrix type="matrix" values="0 0 0 0 0 0 0 0 0 0 0 0 0 0 0 0 0 0 0.2 0"/>
<feBlend mode="normal" in2="BackgroundImageFix" result="effect1_dropShadow_301_12481"/>
<feBlend mode="normal" in="SourceGraphic" in2="effect1_dropShadow_301_12481" result="shape"/>
</filter>
</defs>
</svg>
