<svg width="1146" height="113" viewBox="0 0 1146 113" fill="none" xmlns="http://www.w3.org/2000/svg">
<path fill-rule="evenodd" clip-rule="evenodd" d="M262.048 8.94H197.215V8.94025H169.061C167.37 8.94025 166 10.3106 166 12.001C166 13.6914 167.37 15.0617 169.061 15.0617H232.574C232.587 15.0617 232.601 15.0616 232.613 15.0615H262.048V8.94Z" fill="#1EE0A1"/>
<rect x="264.156" y="8.9397" width="96.1149" height="6.12145" fill="#1EE0A1"/>
<rect x="362.379" y="8.9397" width="96.1149" height="6.12145" fill="#1EE0A1"/>
<rect x="460.609" y="8.9397" width="96.1149" height="6.12145" fill="#1EE0A1"/>
<rect x="558.829" y="8.9397" width="96.1149" height="6.12145" fill="#1EE0A1"/>
<rect x="657.055" y="8.9397" width="96.1149" height="6.12145" fill="#1EE0A1"/>
<rect x="755.285" y="8.9397" width="96.1149" height="6.12145" fill="#1EE0A1"/>
<rect x="853.5" y="8.9397" width="96.1149" height="6.12145" fill="#1EE0A1"/>
<rect x="951.726" y="8.9397" width="96.1149" height="6.12145" fill="#1EE0A1"/>
<path fill-rule="evenodd" clip-rule="evenodd" d="M1142.94 15.0608C1144.63 15.0608 1146 13.6905 1146 12.0001C1146 10.3097 1144.63 8.93933 1142.94 8.93933L1079.42 8.93933C1079.41 8.93933 1079.39 8.93945 1079.38 8.93969L1049.95 8.93969V15.0611L1114.78 15.0611V15.0608L1142.94 15.0608Z" fill="#1EE0A1"/>
<path fill-rule="evenodd" clip-rule="evenodd" d="M262.048 53.0009H197.215V53.0011H169C167.343 53.0011 166 54.3442 166 56.0011C166 57.658 167.343 59.0011 169 59.0011H232.636C232.648 59.0011 232.662 59.001 232.675 59.0009H262.048V53.0009Z" fill="#E2A03D"/>
<rect x="264.156" y="53.0009" width="96.1149" height="6" fill="#E2A03D"/>
<rect x="362.379" y="53.0009" width="96.1149" height="6" fill="#E2A03D"/>
<rect x="460.609" y="53.0009" width="96.1149" height="6" fill="#E2A03D"/>
<rect x="558.829" y="53.0009" width="96.1149" height="6" fill="#E2A03D"/>
<rect x="657.055" y="53.0009" width="96.1149" height="6" fill="#E2A03D"/>
<rect x="755.285" y="53.0009" width="96.1149" height="6" fill="#F3F3F3"/>
<rect x="853.5" y="53.0009" width="96.1149" height="6" fill="#F3F3F3"/>
<rect x="951.726" y="53.0009" width="96.1149" height="6" fill="#F3F3F3"/>
<path fill-rule="evenodd" clip-rule="evenodd" d="M1049.95 59.0006H1079.36L1114.78 59.0006H1143C1144.66 59.0006 1146 57.6575 1146 56.0006C1146 54.3438 1144.66 53.0006 1143 53.0006L1079.36 53.0006C1079.36 53.0006 1079.36 53.0006 1079.36 53.0006L1049.95 53.0006V59.0006Z" fill="#F3F3F3"/>
<path fill-rule="evenodd" clip-rule="evenodd" d="M262.048 97.0005H197.215V97.0008H169C167.343 97.0008 166 98.3439 166 100.001C166 101.658 167.343 103.001 169 103.001H232.636C232.648 103.001 232.662 103.001 232.675 103.001H262.048V97.0005Z" fill="#EF3124"/>
<rect x="264.156" y="97.0005" width="96.1149" height="6" fill="#EF3124"/>
<rect x="362.379" y="97.0005" width="96.1149" height="6" fill="#EF3124"/>
<rect x="460.609" y="97.0005" width="96.1149" height="6" fill="#F3F3F3"/>
<rect x="558.829" y="97.0005" width="96.1149" height="6" fill="#F3F3F3"/>
<rect x="657.055" y="97.0005" width="96.1149" height="6" fill="#F3F3F3"/>
<rect x="755.285" y="97.0005" width="96.1149" height="6" fill="#F3F3F3"/>
<rect x="853.5" y="97.0005" width="96.1149" height="6" fill="#F3F3F3"/>
<rect x="951.726" y="97.0005" width="96.1149" height="6" fill="#F3F3F3"/>
<path fill-rule="evenodd" clip-rule="evenodd" d="M1049.95 103H1079.36L1114.78 103H1143C1144.66 103 1146 101.657 1146 100C1146 98.3435 1144.66 97.0003 1143 97.0003L1079.36 97.0003C1079.36 97.0003 1079.36 97.0003 1079.36 97.0003L1049.95 97.0003V103Z" fill="#F3F3F3"/>
<path d="M2.96 17.3C1.52 15.9 0.8 14.1333 0.8 12C0.8 9.86667 1.52 8.1 2.96 6.7C4.4 5.3 6.18 4.6 8.3 4.6C10.7267 4.6 12.62 5.45333 13.98 7.16C14.58 7.89333 15.02 8.74 15.3 9.7H13C12.76 9.16667 12.4267 8.68667 12 8.26C11.0267 7.28667 9.79333 6.8 8.3 6.8C6.79333 6.8 5.56667 7.28 4.62 8.24C3.67333 9.2 3.2 10.4533 3.2 12C3.2 13.5467 3.67333 14.8 4.62 15.76C5.56667 16.72 6.79333 17.2 8.3 17.2C9.83333 17.2 11.0933 16.6667 12.08 15.6C12.52 15.1467 12.86 14.6133 13.1 14H15.4C15.0533 15.04 14.5667 15.94 13.94 16.7C12.5533 18.5 10.6733 19.4 8.3 19.4C6.18 19.4 4.4 18.7 2.96 17.3ZM16.1938 10.7V8.8H25.0938V10.7H21.6938V19H19.5938V10.7H16.1938ZM27.3153 17.68C26.302 16.6533 25.7953 15.3933 25.7953 13.9C25.7953 12.4067 26.302 11.1533 27.3153 10.14C28.342 9.11333 29.602 8.6 31.0953 8.6C32.5886 8.6 33.842 9.11333 34.8553 10.14C35.882 11.1533 36.3953 12.4067 36.3953 13.9C36.3953 15.3933 35.882 16.6533 34.8553 17.68C33.842 18.6933 32.5886 19.2 31.0953 19.2C29.602 19.2 28.342 18.6933 27.3153 17.68ZM28.8553 11.44C28.282 12.0533 27.9953 12.8733 27.9953 13.9C27.9953 14.9267 28.282 15.7533 28.8553 16.38C29.4286 16.9933 30.1753 17.3 31.0953 17.3C32.0153 17.3 32.762 16.9933 33.3353 16.38C33.9086 15.7533 34.1953 14.9267 34.1953 13.9C34.1953 12.8733 33.9086 12.0533 33.3353 11.44C32.762 10.8133 32.0153 10.5 31.0953 10.5C30.1753 10.5 29.4286 10.8133 28.8553 11.44ZM38.1922 19V8.8H40.2922V15.6L40.2722 15.8H40.4722L45.0922 8.8H47.3922V19H45.2922V12.2L45.3122 12H45.1122L40.4922 19H38.1922ZM49.7938 19V8.8H52.7938L55.4938 14.9H55.8938L58.5938 8.8H61.5938V19H59.4938V11.8L59.5138 11.6H59.4138L56.8938 17.2H54.4938L51.9738 11.6H51.8738L51.8938 11.8V19H49.7938ZM64.913 17.68C63.8996 16.6533 63.393 15.3933 63.393 13.9C63.393 12.4067 63.8996 11.1533 64.913 10.14C65.9396 9.11333 67.1996 8.6 68.693 8.6C70.1863 8.6 71.4396 9.11333 72.453 10.14C73.4796 11.1533 73.993 12.4067 73.993 13.9C73.993 15.3933 73.4796 16.6533 72.453 17.68C71.4396 18.6933 70.1863 19.2 68.693 19.2C67.1996 19.2 65.9396 18.6933 64.913 17.68ZM66.453 11.44C65.8796 12.0533 65.593 12.8733 65.593 13.9C65.593 14.9267 65.8796 15.7533 66.453 16.38C67.0263 16.9933 67.773 17.3 68.693 17.3C69.613 17.3 70.3596 16.9933 70.933 16.38C71.5063 15.7533 71.793 14.9267 71.793 13.9C71.793 12.8733 71.5063 12.0533 70.933 11.44C70.3596 10.8133 69.613 10.5 68.693 10.5C67.773 10.5 67.0263 10.8133 66.453 11.44ZM76.6498 17.7C75.6765 16.7 75.1898 15.4333 75.1898 13.9C75.1898 12.3667 75.6765 11.1 76.6498 10.1C77.6232 9.1 78.8365 8.6 80.2898 8.6C81.9165 8.6 83.2432 9.22 84.2698 10.46C84.7098 11.0333 85.0165 11.6467 85.1898 12.3H82.9898C82.8965 11.9667 82.7232 11.6667 82.4698 11.4C81.9498 10.8 81.2232 10.5 80.2898 10.5C79.4632 10.5 78.7698 10.8133 78.2098 11.44C77.6632 12.0667 77.3898 12.8867 77.3898 13.9C77.3898 14.9133 77.6632 15.7333 78.2098 16.36C78.7698 16.9867 79.4632 17.3 80.2898 17.3C81.2498 17.3 82.0032 17 82.5498 16.4C82.7898 16.1333 82.9698 15.8333 83.0898 15.5H85.1898C85.0165 16.18 84.7098 16.8 84.2698 17.36C83.2565 18.5867 81.9298 19.2 80.2898 19.2C78.8365 19.2 77.6232 18.7 76.6498 17.7ZM85.7836 10.7V8.8H94.6836V10.7H91.2836V19H89.1836V10.7H85.7836ZM95.9852 19V8.8H98.0852V12.2H100.585C101.758 12.2 102.698 12.52 103.405 13.16C104.125 13.8 104.485 14.6133 104.485 15.6C104.485 16.5867 104.125 17.4 103.405 18.04C102.698 18.68 101.758 19 100.585 19H95.9852ZM98.0852 17.1H100.585C101.132 17.1 101.552 16.9667 101.845 16.7C102.138 16.4333 102.285 16.0667 102.285 15.6C102.285 15.1333 102.138 14.7667 101.845 14.5C101.552 14.2333 101.132 14.1 100.585 14.1H98.0852V17.1Z" fill="#1D1D1D"/>
<path d="M1.4 62V48H3.7V53.8H6L10.2 48H12.9L8 54.7L13.1 62H10.3L6.1 56H3.7V62H1.4ZM14.5577 60.74C13.651 59.7533 13.1977 58.4733 13.1977 56.9C13.1977 55.3267 13.651 54.0533 14.5577 53.08C15.4777 52.0933 16.6243 51.6 17.9977 51.6C18.8643 51.6 19.6577 51.8533 20.3777 52.36C20.6843 52.5733 20.9577 52.82 21.1977 53.1H21.2977V51.8H23.3977V62H21.2977V60.6H21.1977C20.9977 60.88 20.7243 61.1467 20.3777 61.4C19.6577 61.9333 18.8643 62.2 17.9977 62.2C16.6243 62.2 15.4777 61.7133 14.5577 60.74ZM16.1977 54.38C15.6643 54.9667 15.3977 55.8067 15.3977 56.9C15.3977 57.9933 15.6643 58.8333 16.1977 59.42C16.731 60.0067 17.4643 60.3 18.3977 60.3C19.2777 60.3 19.9777 60.0067 20.4977 59.42C21.031 58.82 21.2977 57.98 21.2977 56.9C21.2977 55.82 21.031 54.9867 20.4977 54.4C19.9777 53.8 19.2777 53.5 18.3977 53.5C17.4643 53.5 16.731 53.7933 16.1977 54.38ZM25.4898 55.6V51.8H27.5898V55.4C27.5898 56 27.7632 56.4667 28.1098 56.8C28.4565 57.1333 28.9498 57.3 29.5898 57.3C30.3632 57.3 31.0032 57.2 31.5098 57C31.7632 56.92 31.9565 56.82 32.0898 56.7V51.8H34.1898V62H32.0898V58.5C31.8765 58.6467 31.6498 58.7667 31.4098 58.86C30.8365 59.0867 30.1632 59.2 29.3898 59.2C28.1498 59.2 27.1898 58.88 26.5098 58.24C25.8298 57.6 25.4898 56.72 25.4898 55.6ZM37.4906 60.68C36.4906 59.6533 35.9906 58.3933 35.9906 56.9C35.9906 55.4067 36.4906 54.1533 37.4906 53.14C38.504 52.1133 39.7373 51.6 41.1906 51.6C42.644 51.6 43.8706 52.1133 44.8706 53.14C45.884 54.1533 46.3906 55.4067 46.3906 56.9V57.6H38.0906C38.2506 58.44 38.6173 59.1 39.1906 59.58C39.764 60.06 40.4306 60.3 41.1906 60.3C42.124 60.3 42.8706 60.0667 43.4306 59.6C43.684 59.4133 43.904 59.18 44.0906 58.9H46.2906C46.0106 59.5533 45.6573 60.1067 45.2306 60.56C44.1373 61.6533 42.7906 62.2 41.1906 62.2C39.7373 62.2 38.504 61.6933 37.4906 60.68ZM38.1906 55.9H44.1906C44.0706 55.2333 43.7506 54.6667 43.2306 54.2C42.724 53.7333 42.044 53.5 41.1906 53.5C40.4706 53.5 39.8306 53.72 39.2706 54.16C38.7106 54.5867 38.3506 55.1667 38.1906 55.9ZM49.0522 60.7C48.0789 59.7 47.5922 58.4333 47.5922 56.9C47.5922 55.3667 48.0789 54.1 49.0522 53.1C50.0255 52.1 51.2389 51.6 52.6922 51.6C54.3189 51.6 55.6455 52.22 56.6722 53.46C57.1122 54.0333 57.4189 54.6467 57.5922 55.3H55.3922C55.2989 54.9667 55.1255 54.6667 54.8722 54.4C54.3522 53.8 53.6255 53.5 52.6922 53.5C51.8655 53.5 51.1722 53.8133 50.6122 54.44C50.0655 55.0667 49.7922 55.8867 49.7922 56.9C49.7922 57.9133 50.0655 58.7333 50.6122 59.36C51.1722 59.9867 51.8655 60.3 52.6922 60.3C53.6522 60.3 54.4055 60 54.9522 59.4C55.1922 59.1333 55.3722 58.8333 55.4922 58.5H57.5922C57.4189 59.18 57.1122 59.8 56.6722 60.36C55.6589 61.5867 54.3322 62.2 52.6922 62.2C51.2389 62.2 50.0255 61.7 49.0522 60.7ZM58.1859 53.7V51.8H67.0859V53.7H63.6859V62H61.5859V53.7H58.1859ZM68.3875 62V51.8H73.4875C74.4608 51.8 75.2208 52.0333 75.7675 52.5C76.3142 52.9667 76.5875 53.5667 76.5875 54.3C76.5875 55.0867 76.3208 55.6933 75.7875 56.12C75.5208 56.32 75.2542 56.4467 74.9875 56.5V56.58C75.3342 56.6333 75.6675 56.7667 75.9875 56.98C76.6542 57.4333 76.9875 58.1333 76.9875 59.08C76.9875 59.9067 76.6742 60.6 76.0475 61.16C75.4208 61.72 74.6008 62 73.5875 62H68.3875ZM70.4875 55.8H73.2875C74.0875 55.8 74.4875 55.4333 74.4875 54.7C74.4875 54.0333 74.0875 53.7 73.2875 53.7H70.4875V55.8ZM70.4875 60.1H73.4875C73.9275 60.1 74.2675 59.9867 74.5075 59.76C74.7608 59.52 74.8875 59.2 74.8875 58.8C74.8875 58.44 74.7608 58.1533 74.5075 57.94C74.2675 57.7133 73.9275 57.6 73.4875 57.6H70.4875V60.1ZM79.8153 60.68C78.802 59.6533 78.2953 58.3933 78.2953 56.9C78.2953 55.4067 78.802 54.1533 79.8153 53.14C80.842 52.1133 82.102 51.6 83.5953 51.6C85.0886 51.6 86.342 52.1133 87.3553 53.14C88.382 54.1533 88.8953 55.4067 88.8953 56.9C88.8953 58.3933 88.382 59.6533 87.3553 60.68C86.342 61.6933 85.0886 62.2 83.5953 62.2C82.102 62.2 80.842 61.6933 79.8153 60.68ZM81.3553 54.44C80.782 55.0533 80.4953 55.8733 80.4953 56.9C80.4953 57.9267 80.782 58.7533 81.3553 59.38C81.9286 59.9933 82.6753 60.3 83.5953 60.3C84.5153 60.3 85.262 59.9933 85.8353 59.38C86.4086 58.7533 86.6953 57.9267 86.6953 56.9C86.6953 55.8733 86.4086 55.0533 85.8353 54.44C85.262 53.8133 84.5153 53.5 83.5953 53.5C82.6753 53.5 81.9286 53.8133 81.3553 54.44Z" fill="#1D1D1D"/>
<path d="M2.96 104.3C1.52 102.9 0.8 101.133 0.8 99C0.8 96.8667 1.52 95.1 2.96 93.7C4.4 92.3 6.18 91.6 8.3 91.6C10.7267 91.6 12.62 92.4533 13.98 94.16C14.58 94.8933 15.02 95.74 15.3 96.7H13C12.76 96.1667 12.4267 95.6867 12 95.26C11.0267 94.2867 9.79333 93.8 8.3 93.8C6.79333 93.8 5.56667 94.28 4.62 95.24C3.67333 96.2 3.2 97.4533 3.2 99C3.2 100.547 3.67333 101.8 4.62 102.76C5.56667 103.72 6.79333 104.2 8.3 104.2C9.83333 104.2 11.0933 103.667 12.08 102.6C12.52 102.147 12.86 101.613 13.1 101H15.4C15.0533 102.04 14.5667 102.94 13.94 103.7C12.5533 105.5 10.6733 106.4 8.3 106.4C6.18 106.4 4.4 105.7 2.96 104.3ZM17.2938 109.8V95.8H19.3938V97.1H19.4938C19.7338 96.82 20.0071 96.5733 20.3138 96.36C21.0338 95.8533 21.8271 95.6 22.6938 95.6C24.0671 95.6 25.2071 96.0933 26.1138 97.08C27.0338 98.0533 27.4938 99.3267 27.4938 100.9C27.4938 102.473 27.0338 103.753 26.1138 104.74C25.2071 105.713 24.0671 106.2 22.6938 106.2C21.8138 106.2 21.0204 105.953 20.3138 105.46C19.9938 105.233 19.7204 104.98 19.4938 104.7H19.3938V109.8H17.2938ZM20.1738 98.4C19.6538 98.9867 19.3938 99.82 19.3938 100.9C19.3938 101.98 19.6538 102.82 20.1738 103.42C20.7071 104.007 21.4138 104.3 22.2938 104.3C23.2271 104.3 23.9604 104.007 24.4938 103.42C25.0271 102.833 25.2938 101.993 25.2938 100.9C25.2938 99.8067 25.0271 98.9667 24.4938 98.38C23.9604 97.7933 23.2271 97.5 22.2938 97.5C21.4138 97.5 20.7071 97.8 20.1738 98.4ZM30.2059 104.68C29.1926 103.653 28.6859 102.393 28.6859 100.9C28.6859 99.4067 29.1926 98.1533 30.2059 97.14C31.2326 96.1133 32.4926 95.6 33.9859 95.6C35.4793 95.6 36.7326 96.1133 37.7459 97.14C38.7726 98.1533 39.2859 99.4067 39.2859 100.9C39.2859 102.393 38.7726 103.653 37.7459 104.68C36.7326 105.693 35.4793 106.2 33.9859 106.2C32.4926 106.2 31.2326 105.693 30.2059 104.68ZM31.7459 98.44C31.1726 99.0533 30.8859 99.8733 30.8859 100.9C30.8859 101.927 31.1726 102.753 31.7459 103.38C32.3193 103.993 33.0659 104.3 33.9859 104.3C34.9059 104.3 35.6526 103.993 36.2259 103.38C36.7993 102.753 37.0859 101.927 37.0859 100.9C37.0859 99.8733 36.7993 99.0533 36.2259 98.44C35.6526 97.8133 34.9059 97.5 33.9859 97.5C33.0659 97.5 32.3193 97.8133 31.7459 98.44ZM41.0828 106V95.8H43.1828V99.8H44.6828L47.7828 95.8H50.1828L46.4828 100.5L50.4828 106H47.8828L44.7828 101.7H43.1828V106H41.0828ZM51.6883 106V95.8H53.7883V102.6L53.7683 102.8H53.9683L58.5883 95.8H60.8883V106H58.7883V99.2L58.8083 99H58.6083L53.9883 106H51.6883Z" fill="#1D1D1D"/>
</svg>
