<svg width="20" height="24" viewBox="0 0 20 24" fill="none" xmlns="http://www.w3.org/2000/svg">
<path d="M14.977 11.346C15.622 10.389 15.999 9.23798 15.999 8.00002V6C15.999 2.691 13.308 0 9.99901 0C6.69001 0 3.99901 2.691 3.99901 6V8.00002C3.99901 9.23803 4.37602 10.389 5.02102 11.346C2.02501 13.074 -0.000976562 16.3 -0.000976562 20V21C-0.000976562 22.654 1.34504 24 2.99902 24H16.999C18.653 24 19.999 22.654 19.999 21V20C19.999 16.3 17.973 13.074 14.977 11.346ZM5.99902 6C5.99902 3.79402 7.79302 2.00002 9.99901 2.00002C12.205 2.00002 13.999 3.79402 13.999 6V8.00002C13.999 10.206 12.205 12 9.99901 12C7.79302 12 5.99902 10.206 5.99902 8.00002V6ZM17.999 21C17.999 21.551 17.55 22 16.999 22H2.99902C2.44801 22 1.99904 21.551 1.99904 21V20C1.99904 16.861 3.81704 14.14 6.45502 12.831C7.45004 13.562 8.67301 14 9.99901 14C11.325 14 12.548 13.562 13.543 12.831C16.181 14.14 17.999 16.861 17.999 20V21H17.999Z" fill="#1EE0A1"/>
</svg>
