<svg width="234" height="45" viewBox="0 0 234 45" fill="none" xmlns="http://www.w3.org/2000/svg">
<rect x="0.75" y="0.75" width="43.5" height="43.5" rx="11.25" stroke="white" stroke-width="1.5"/>
<path fill-rule="evenodd" clip-rule="evenodd" d="M34.8258 17.1558L22.0438 24.2294L9.26172 17.1558L22.0438 21.148L34.8258 17.1558Z" fill="#1EE0A1"/>
<path fill-rule="evenodd" clip-rule="evenodd" d="M6 17L21.0219 25.4894V32.0373L6 17Z" fill="white"/>
<path fill-rule="evenodd" clip-rule="evenodd" d="M37.9998 17L22.9727 32.0373V25.4894L37.9998 17Z" fill="white"/>
<path d="M61.7 29.425C60.5667 28.1917 60 26.5917 60 24.625C60 22.6583 60.5667 21.0667 61.7 19.85C62.85 18.6167 64.2833 18 66 18C67.0833 18 68.075 18.3167 68.975 18.95C69.3583 19.2167 69.7 19.525 70 19.875H70.125V18.25H72.75V31H70.125V29.25H70C69.75 29.6 69.4083 29.9333 68.975 30.25C68.075 30.9167 67.0833 31.25 66 31.25C64.2833 31.25 62.85 30.6417 61.7 29.425ZM63.75 21.475C63.0833 22.2083 62.75 23.2583 62.75 24.625C62.75 25.9917 63.0833 27.0417 63.75 27.775C64.4167 28.5083 65.3333 28.875 66.5 28.875C67.6 28.875 68.475 28.5083 69.125 27.775C69.7917 27.025 70.125 25.975 70.125 24.625C70.125 23.275 69.7917 22.2333 69.125 21.5C68.475 20.75 67.6 20.375 66.5 20.375C65.3333 20.375 64.4167 20.7417 63.75 21.475Z" fill="white"/>
<path d="M74.7402 20.625V18.25H76.2402V15.5H78.8652V18.25H82.7402V20.625H78.8652V28.625H82.8652V31H76.2402V20.625H74.7402Z" fill="white"/>
<path d="M85.1152 31V13.5H87.7402V28.625H90.6152V31H85.1152Z" fill="white"/>
<path d="M93.3162 29.425C92.1829 28.1917 91.6162 26.5917 91.6162 24.625C91.6162 22.6583 92.1829 21.0667 93.3162 19.85C94.4662 18.6167 95.8995 18 97.6162 18C98.6995 18 99.6912 18.3167 100.591 18.95C100.975 19.2167 101.316 19.525 101.616 19.875H101.741V18.25H104.366V31H101.741V29.25H101.616C101.366 29.6 101.025 29.9333 100.591 30.25C99.6912 30.9167 98.6995 31.25 97.6162 31.25C95.8995 31.25 94.4662 30.6417 93.3162 29.425ZM95.3662 21.475C94.6995 22.2083 94.3662 23.2583 94.3662 24.625C94.3662 25.9917 94.6995 27.0417 95.3662 27.775C96.0329 28.5083 96.9495 28.875 98.1162 28.875C99.2162 28.875 100.091 28.5083 100.741 27.775C101.408 27.025 101.741 25.975 101.741 24.625C101.741 23.275 101.408 22.2333 100.741 21.5C100.091 20.75 99.2162 20.375 98.1162 20.375C96.9495 20.375 96.0329 20.7417 95.3662 21.475Z" fill="white"/>
<path d="M107.356 31V18.25H109.981V20H110.106C110.306 19.6667 110.615 19.3333 111.031 19C111.931 18.3333 112.956 18 114.106 18C115.69 18 116.915 18.4583 117.781 19.375C118.665 20.2917 119.106 21.625 119.106 23.375V31H116.481V23.625C116.481 22.5083 116.231 21.6917 115.731 21.175C115.248 20.6417 114.498 20.375 113.481 20.375C112.465 20.375 111.623 20.725 110.956 21.425C110.306 22.1083 109.981 23.0083 109.981 24.125V31H107.356Z" fill="white"/>
<path d="M120.98 20.625V18.25H122.48V15.5H125.105V18.25H128.98V20.625H125.105V28.625H129.105V31H122.48V20.625H120.98Z" fill="white"/>
<path d="M131.875 27H134.75C134.867 27.3333 135.075 27.65 135.375 27.95C135.992 28.5667 136.825 28.875 137.875 28.875C138.792 28.875 139.458 28.7333 139.875 28.45C140.292 28.1667 140.5 27.8083 140.5 27.375C140.5 27.225 140.467 27.0917 140.4 26.975C140.333 26.8417 140.217 26.725 140.05 26.625C139.883 26.525 139.725 26.4417 139.575 26.375C139.425 26.2917 139.2 26.2167 138.9 26.15C138.6 26.0667 138.358 26.0083 138.175 25.975C137.992 25.925 137.708 25.8583 137.325 25.775C136.958 25.6917 136.683 25.6333 136.5 25.6C133.833 25 132.5 23.7167 132.5 21.75C132.5 20.75 132.958 19.875 133.875 19.125C134.792 18.375 136 18 137.5 18C139.583 18 141.142 18.6667 142.175 20C142.642 20.5833 142.958 21.25 143.125 22H140.375C140.242 21.6667 140.058 21.4 139.825 21.2C139.242 20.65 138.467 20.375 137.5 20.375C136.75 20.375 136.183 20.5083 135.8 20.775C135.433 21.0417 135.25 21.375 135.25 21.775C135.25 21.925 135.283 22.0667 135.35 22.2C135.417 22.3167 135.533 22.425 135.7 22.525C135.867 22.625 136.025 22.7083 136.175 22.775C136.342 22.8417 136.567 22.9167 136.85 23C137.133 23.0667 137.375 23.125 137.575 23.175C137.775 23.2083 138.05 23.2667 138.4 23.35C138.767 23.4167 139.05 23.475 139.25 23.525C141.917 24.125 143.25 25.4083 143.25 27.375C143.25 28.4417 142.767 29.3583 141.8 30.125C140.85 30.875 139.542 31.25 137.875 31.25C135.708 31.25 134.05 30.5417 132.9 29.125C132.383 28.475 132.042 27.7667 131.875 27Z" fill="#959595"/>
<path d="M146.644 29.35C145.377 28.0667 144.744 26.4917 144.744 24.625C144.744 22.7583 145.377 21.1917 146.644 19.925C147.927 18.6417 149.502 18 151.369 18C153.236 18 154.802 18.6417 156.069 19.925C157.352 21.1917 157.994 22.7583 157.994 24.625C157.994 26.4917 157.352 28.0667 156.069 29.35C154.802 30.6167 153.236 31.25 151.369 31.25C149.502 31.25 147.927 30.6167 146.644 29.35ZM148.569 21.55C147.852 22.3167 147.494 23.3417 147.494 24.625C147.494 25.9083 147.852 26.9417 148.569 27.725C149.286 28.4917 150.219 28.875 151.369 28.875C152.519 28.875 153.452 28.4917 154.169 27.725C154.886 26.9417 155.244 25.9083 155.244 24.625C155.244 23.3417 154.886 22.3167 154.169 21.55C153.452 20.7667 152.519 20.375 151.369 20.375C150.219 20.375 149.286 20.7667 148.569 21.55Z" fill="#959595"/>
<path d="M159.24 20.625V18.25H160.74V13.5H171.115V18.25H174.99V20.625H171.115V28.625H175.115V31H168.49V20.625H163.365V31H160.74V20.625H159.24ZM163.365 18.25H168.49V15.875H163.365V18.25Z" fill="#959595"/>
<path d="M176.354 18.25H179.104L181.229 28.625H181.604L183.729 18.25H187.479L189.604 28.625H189.979L192.104 18.25H194.854L192.104 31H187.604L185.729 21.25H185.479L183.604 31H179.104L176.354 18.25Z" fill="#959595"/>
<path d="M197.811 29.425C196.678 28.1917 196.111 26.5917 196.111 24.625C196.111 22.6583 196.678 21.0667 197.811 19.85C198.961 18.6167 200.395 18 202.111 18C203.195 18 204.186 18.3167 205.086 18.95C205.47 19.2167 205.811 19.525 206.111 19.875H206.236V18.25H208.861V31H206.236V29.25H206.111C205.861 29.6 205.52 29.9333 205.086 30.25C204.186 30.9167 203.195 31.25 202.111 31.25C200.395 31.25 198.961 30.6417 197.811 29.425ZM199.861 21.475C199.195 22.2083 198.861 23.2583 198.861 24.625C198.861 25.9917 199.195 27.0417 199.861 27.775C200.528 28.5083 201.445 28.875 202.611 28.875C203.711 28.875 204.586 28.5083 205.236 27.775C205.903 27.025 206.236 25.975 206.236 24.625C206.236 23.275 205.903 22.2333 205.236 21.5C204.586 20.75 203.711 20.375 202.611 20.375C201.445 20.375 200.528 20.7417 199.861 21.475Z" fill="#959595"/>
<path d="M211.852 31V18.25H214.477V20.125H214.602C214.785 19.775 215.052 19.4417 215.402 19.125C216.168 18.4583 217.068 18.125 218.102 18.125H219.602V20.625H217.977C216.96 20.625 216.118 20.95 215.452 21.6C214.802 22.2333 214.477 23.075 214.477 24.125V31H211.852Z" fill="#959595"/>
<path d="M222.718 29.35C221.468 28.0667 220.843 26.4917 220.843 24.625C220.843 22.7583 221.468 21.1917 222.718 19.925C223.984 18.6417 225.526 18 227.343 18C229.159 18 230.693 18.6417 231.943 19.925C233.209 21.1917 233.843 22.7583 233.843 24.625V25.5H223.468C223.668 26.55 224.126 27.375 224.843 27.975C225.559 28.575 226.393 28.875 227.343 28.875C228.509 28.875 229.443 28.5833 230.143 28C230.459 27.7667 230.734 27.475 230.968 27.125H233.718C233.368 27.9417 232.926 28.6333 232.393 29.2C231.026 30.5667 229.343 31.25 227.343 31.25C225.526 31.25 223.984 30.6167 222.718 29.35ZM223.593 23.375H231.093C230.943 22.5417 230.543 21.8333 229.893 21.25C229.259 20.6667 228.409 20.375 227.343 20.375C226.443 20.375 225.643 20.65 224.943 21.2C224.243 21.7333 223.793 22.4583 223.593 23.375Z" fill="#959595"/>
</svg>
