<svg width="236" height="239" viewBox="0 0 236 239" fill="none" xmlns="http://www.w3.org/2000/svg">
<g filter="url(#filter0_d_301_12464)">
<rect x="45.999" y="44" width="180" height="180" rx="45" fill="white"/>
<rect x="46.499" y="44.5" width="179" height="179" rx="44.5" stroke="#DEDEDE"/>
</g>
<path fill-rule="evenodd" clip-rule="evenodd" d="M172.074 99.4373L136.124 119.332L100.175 99.4373L136.124 110.665L172.074 99.4373Z" fill="#1EE0A1"/>
<path fill-rule="evenodd" clip-rule="evenodd" d="M90.999 99L133.248 122.876V141.292L90.999 99Z" fill="#1D1D1D"/>
<path fill-rule="evenodd" clip-rule="evenodd" d="M180.998 99L138.733 141.292V122.876L180.998 99Z" fill="#1D1D1D"/>
<path d="M92.119 174V162.8H97.639C98.695 162.8 99.5324 163.077 100.151 163.632C100.77 164.176 101.079 164.859 101.079 165.68C101.079 166.501 100.796 167.131 100.231 167.568C99.9964 167.749 99.719 167.893 99.399 168V168.08C99.7937 168.165 100.14 168.309 100.439 168.512C101.132 169.013 101.479 169.776 101.479 170.8C101.479 171.749 101.138 172.523 100.455 173.12C99.7724 173.707 98.807 174 97.559 174H92.119ZM93.959 167.36H97.559C98.071 167.36 98.4657 167.232 98.743 166.976C99.0204 166.72 99.159 166.363 99.159 165.904C99.159 165.499 99.0204 165.173 98.743 164.928C98.4657 164.683 98.071 164.56 97.559 164.56H93.959V167.36ZM93.959 172.24H97.479C98.8657 172.24 99.559 171.707 99.559 170.64C99.559 169.573 98.8657 169.04 97.479 169.04H93.959V172.24ZM103.848 172.992C103.123 172.203 102.76 171.179 102.76 169.92C102.76 168.661 103.123 167.643 103.848 166.864C104.584 166.075 105.502 165.68 106.6 165.68C107.294 165.68 107.928 165.883 108.504 166.288C108.75 166.459 108.968 166.656 109.16 166.88H109.24V165.84H110.92V174H109.24V172.88H109.16C109 173.104 108.782 173.317 108.504 173.52C107.928 173.947 107.294 174.16 106.6 174.16C105.502 174.16 104.584 173.771 103.848 172.992ZM105.16 167.904C104.734 168.373 104.52 169.045 104.52 169.92C104.52 170.795 104.734 171.467 105.16 171.936C105.587 172.405 106.174 172.64 106.92 172.64C107.624 172.64 108.184 172.405 108.6 171.936C109.027 171.456 109.24 170.784 109.24 169.92C109.24 169.056 109.027 168.389 108.6 167.92C108.184 167.44 107.624 167.2 106.92 167.2C106.174 167.2 105.587 167.435 105.16 167.904ZM112.834 174V165.84H114.514V172.48H117.154V165.84H118.834V172.48H121.474V165.84H123.154V174H112.834ZM129.553 174V165.84H136.833V174H135.153V167.36H131.233V174H129.553ZM138.756 177.04V165.84H140.436V166.88H140.516C140.708 166.656 140.927 166.459 141.172 166.288C141.748 165.883 142.383 165.68 143.076 165.68C144.175 165.68 145.087 166.075 145.812 166.864C146.548 167.643 146.916 168.661 146.916 169.92C146.916 171.179 146.548 172.203 145.812 172.992C145.087 173.771 144.175 174.16 143.076 174.16C142.372 174.16 141.737 173.963 141.172 173.568C140.916 173.387 140.697 173.184 140.516 172.96H140.436V177.04H138.756ZM141.06 167.92C140.644 168.389 140.436 169.056 140.436 169.92C140.436 170.784 140.644 171.456 141.06 171.936C141.487 172.405 142.052 172.64 142.756 172.64C143.503 172.64 144.089 172.405 144.516 171.936C144.943 171.467 145.156 170.795 145.156 169.92C145.156 169.045 144.943 168.373 144.516 167.904C144.089 167.435 143.503 167.2 142.756 167.2C142.052 167.2 141.487 167.44 141.06 167.92ZM149.086 172.944C148.275 172.123 147.87 171.115 147.87 169.92C147.87 168.725 148.275 167.723 149.086 166.912C149.907 166.091 150.915 165.68 152.11 165.68C153.304 165.68 154.307 166.091 155.118 166.912C155.939 167.723 156.35 168.725 156.35 169.92C156.35 171.115 155.939 172.123 155.118 172.944C154.307 173.755 153.304 174.16 152.11 174.16C150.915 174.16 149.907 173.755 149.086 172.944ZM150.318 167.952C149.859 168.443 149.63 169.099 149.63 169.92C149.63 170.741 149.859 171.403 150.318 171.904C150.776 172.395 151.374 172.64 152.11 172.64C152.846 172.64 153.443 172.395 153.902 171.904C154.36 171.403 154.59 170.741 154.59 169.92C154.59 169.099 154.36 168.443 153.902 167.952C153.443 167.451 152.846 167.2 152.11 167.2C151.374 167.2 150.776 167.451 150.318 167.952ZM158.507 172.944C157.707 172.123 157.307 171.115 157.307 169.92C157.307 168.725 157.707 167.723 158.507 166.912C159.318 166.091 160.304 165.68 161.467 165.68C162.63 165.68 163.611 166.091 164.411 166.912C165.222 167.723 165.627 168.725 165.627 169.92V170.48H158.987C159.115 171.152 159.408 171.68 159.867 172.064C160.326 172.448 160.859 172.64 161.467 172.64C162.214 172.64 162.811 172.453 163.259 172.08C163.462 171.931 163.638 171.744 163.787 171.52H165.547C165.323 172.043 165.04 172.485 164.699 172.848C163.824 173.723 162.747 174.16 161.467 174.16C160.304 174.16 159.318 173.755 158.507 172.944ZM159.067 169.12H163.867C163.771 168.587 163.515 168.133 163.099 167.76C162.694 167.387 162.15 167.2 161.467 167.2C160.891 167.2 160.379 167.376 159.931 167.728C159.483 168.069 159.195 168.533 159.067 169.12ZM167.068 174V165.84H168.748V169.04H169.948L172.428 165.84H174.348L171.388 169.6L174.588 174H172.508L170.028 170.56H168.748V174H167.068ZM174.673 167.36V165.84H181.793V167.36H179.073V174H177.393V167.36H174.673Z" fill="black"/>
<g clip-path="url(#clip0_301_12464)">
<path d="M17.0045 17.9843L17.0046 48.4206C17.0048 48.6803 17.1084 48.9291 17.2923 49.1124L29.7435 61.5636C30.1249 61.9463 30.7443 61.9474 31.127 61.5661C31.3115 61.3822 31.4151 61.1323 31.4148 60.8718L31.4134 31.4136L60.8716 31.4151C61.4118 31.4158 61.8503 30.9783 61.8511 30.438C61.8514 30.1775 61.7478 29.9277 61.5633 29.7438L49.1121 17.2926C48.9288 17.1087 48.68 17.0051 48.4203 17.0049L17.984 17.0048C17.4437 17.0041 17.0052 17.4416 17.0045 17.9819C17.0046 17.9827 17.0046 17.9835 17.0045 17.9843Z" fill="#1EE0A1"/>
</g>
<defs>
<filter id="filter0_d_301_12464" x="35.999" y="39" width="200" height="200" filterUnits="userSpaceOnUse" color-interpolation-filters="sRGB">
<feFlood flood-opacity="0" result="BackgroundImageFix"/>
<feColorMatrix in="SourceAlpha" type="matrix" values="0 0 0 0 0 0 0 0 0 0 0 0 0 0 0 0 0 0 127 0" result="hardAlpha"/>
<feOffset dy="5"/>
<feGaussianBlur stdDeviation="5"/>
<feColorMatrix type="matrix" values="0 0 0 0 0 0 0 0 0 0 0 0 0 0 0 0 0 0 0.2 0"/>
<feBlend mode="normal" in2="BackgroundImageFix" result="effect1_dropShadow_301_12464"/>
<feBlend mode="normal" in="SourceGraphic" in2="effect1_dropShadow_301_12464" result="shape"/>
</filter>
<clipPath id="clip0_301_12464">
<rect width="45" height="45" fill="white" transform="translate(31.8193 63.6396) rotate(-135)"/>
</clipPath>
</defs>
</svg>
