<svg width="156" height="30" viewBox="0 0 156 30" fill="none" xmlns="http://www.w3.org/2000/svg">
<rect x="0.5" y="0.5" width="29" height="29" rx="7.5" stroke="white"/>
<path fill-rule="evenodd" clip-rule="evenodd" d="M23.2166 11.437L14.6952 16.1527L6.17383 11.437L14.6952 14.0985L23.2166 11.437Z" fill="#1EE0A1"/>
<path fill-rule="evenodd" clip-rule="evenodd" d="M3.99902 11.3335L14.0136 16.9931V21.3583L3.99902 11.3335Z" fill="white"/>
<path fill-rule="evenodd" clip-rule="evenodd" d="M25.3326 11.333L15.3145 21.3578V16.9926L25.3326 11.333Z" fill="white"/>
<path d="M41.1333 19.6167C40.3778 18.7944 40 17.7278 40 16.4167C40 15.1056 40.3778 14.0444 41.1333 13.2333C41.9 12.4111 42.8556 12 44 12C44.7222 12 45.3833 12.2111 45.9833 12.6333C46.2389 12.8111 46.4667 13.0167 46.6667 13.25H46.75V12.1667H48.5V20.6667H46.75V19.5H46.6667C46.5 19.7333 46.2722 19.9556 45.9833 20.1667C45.3833 20.6111 44.7222 20.8333 44 20.8333C42.8556 20.8333 41.9 20.4278 41.1333 19.6167ZM42.5 14.3167C42.0556 14.8056 41.8333 15.5056 41.8333 16.4167C41.8333 17.3278 42.0556 18.0278 42.5 18.5167C42.9444 19.0056 43.5556 19.25 44.3333 19.25C45.0667 19.25 45.65 19.0056 46.0833 18.5167C46.5278 18.0167 46.75 17.3167 46.75 16.4167C46.75 15.5167 46.5278 14.8222 46.0833 14.3333C45.65 13.8333 45.0667 13.5833 44.3333 13.5833C43.5556 13.5833 42.9444 13.8278 42.5 14.3167Z" fill="white"/>
<path d="M49.8268 13.75V12.1667H50.8268V10.3333H52.5768V12.1667H55.1602V13.75H52.5768V19.0833H55.2435V20.6667H50.8268V13.75H49.8268Z" fill="white"/>
<path d="M56.7435 20.6667V9H58.4935V19.0833H60.4102V20.6667H56.7435Z" fill="white"/>
<path d="M62.2108 19.6167C61.4553 18.7944 61.0775 17.7278 61.0775 16.4167C61.0775 15.1056 61.4553 14.0444 62.2108 13.2333C62.9775 12.4111 63.933 12 65.0775 12C65.7997 12 66.4608 12.2111 67.0608 12.6333C67.3164 12.8111 67.5441 13.0167 67.7441 13.25H67.8275V12.1667H69.5775V20.6667H67.8275V19.5H67.7441C67.5775 19.7333 67.3497 19.9556 67.0608 20.1667C66.4608 20.6111 65.7997 20.8333 65.0775 20.8333C63.933 20.8333 62.9775 20.4278 62.2108 19.6167ZM63.5775 14.3167C63.133 14.8056 62.9108 15.5056 62.9108 16.4167C62.9108 17.3278 63.133 18.0278 63.5775 18.5167C64.0219 19.0056 64.633 19.25 65.4108 19.25C66.1441 19.25 66.7275 19.0056 67.1608 18.5167C67.6053 18.0167 67.8275 17.3167 67.8275 16.4167C67.8275 15.5167 67.6053 14.8222 67.1608 14.3333C66.7275 13.8333 66.1441 13.5833 65.4108 13.5833C64.633 13.5833 64.0219 13.8278 63.5775 14.3167Z" fill="white"/>
<path d="M71.571 20.6667V12.1667H73.321V13.3333H73.4043C73.5376 13.1111 73.7432 12.8889 74.021 12.6667C74.621 12.2222 75.3043 12 76.071 12C77.1265 12 77.9432 12.3056 78.521 12.9167C79.1099 13.5278 79.4043 14.4167 79.4043 15.5833V20.6667H77.6543V15.75C77.6543 15.0056 77.4876 14.4611 77.1543 14.1167C76.8321 13.7611 76.3321 13.5833 75.6543 13.5833C74.9765 13.5833 74.4154 13.8167 73.971 14.2833C73.5376 14.7389 73.321 15.3389 73.321 16.0833V20.6667H71.571Z" fill="white"/>
<path d="M80.6536 13.75V12.1667H81.6536V10.3333H83.4036V12.1667H85.987V13.75H83.4036V19.0833H86.0703V20.6667H81.6536V13.75H80.6536Z" fill="white"/>
<path d="M87.918 18H89.8346C89.9124 18.2222 90.0513 18.4333 90.2513 18.6333C90.6624 19.0444 91.218 19.25 91.918 19.25C92.5291 19.25 92.9735 19.1556 93.2513 18.9667C93.5291 18.7778 93.668 18.5389 93.668 18.25C93.668 18.15 93.6457 18.0611 93.6013 17.9833C93.5569 17.8944 93.4791 17.8167 93.368 17.75C93.2569 17.6833 93.1513 17.6278 93.0513 17.5833C92.9513 17.5278 92.8013 17.4778 92.6013 17.4333C92.4013 17.3778 92.2402 17.3389 92.118 17.3167C91.9957 17.2833 91.8069 17.2389 91.5513 17.1833C91.3069 17.1278 91.1235 17.0889 91.0013 17.0667C89.2235 16.6667 88.3346 15.8111 88.3346 14.5C88.3346 13.8333 88.6402 13.25 89.2513 12.75C89.8624 12.25 90.668 12 91.668 12C93.0569 12 94.0957 12.4444 94.7846 13.3333C95.0957 13.7222 95.3069 14.1667 95.418 14.6667H93.5846C93.4957 14.4444 93.3735 14.2667 93.218 14.1333C92.8291 13.7667 92.3124 13.5833 91.668 13.5833C91.168 13.5833 90.7902 13.6722 90.5346 13.85C90.2902 14.0278 90.168 14.25 90.168 14.5167C90.168 14.6167 90.1902 14.7111 90.2346 14.8C90.2791 14.8778 90.3569 14.95 90.468 15.0167C90.5791 15.0833 90.6846 15.1389 90.7846 15.1833C90.8957 15.2278 91.0457 15.2778 91.2346 15.3333C91.4235 15.3778 91.5846 15.4167 91.718 15.45C91.8513 15.4722 92.0346 15.5111 92.268 15.5667C92.5124 15.6111 92.7013 15.65 92.8346 15.6833C94.6124 16.0833 95.5013 16.9389 95.5013 18.25C95.5013 18.9611 95.1791 19.5722 94.5346 20.0833C93.9013 20.5833 93.0291 20.8333 91.918 20.8333C90.4735 20.8333 89.368 20.3611 88.6013 19.4167C88.2569 18.9833 88.0291 18.5111 87.918 18Z" fill="#959595"/>
<path d="M97.7641 19.5667C96.9196 18.7111 96.4974 17.6611 96.4974 16.4167C96.4974 15.1722 96.9196 14.1278 97.7641 13.2833C98.6196 12.4278 99.6696 12 100.914 12C102.159 12 103.203 12.4278 104.047 13.2833C104.903 14.1278 105.331 15.1722 105.331 16.4167C105.331 17.6611 104.903 18.7111 104.047 19.5667C103.203 20.4111 102.159 20.8333 100.914 20.8333C99.6696 20.8333 98.6196 20.4111 97.7641 19.5667ZM99.0474 14.3667C98.5696 14.8778 98.3307 15.5611 98.3307 16.4167C98.3307 17.2722 98.5696 17.9611 99.0474 18.4833C99.5252 18.9944 100.147 19.25 100.914 19.25C101.681 19.25 102.303 18.9944 102.781 18.4833C103.259 17.9611 103.497 17.2722 103.497 16.4167C103.497 15.5611 103.259 14.8778 102.781 14.3667C102.303 13.8444 101.681 13.5833 100.914 13.5833C100.147 13.5833 99.5252 13.8444 99.0474 14.3667Z" fill="#959595"/>
<path d="M106.161 13.75V12.1667H107.161V9H114.078V12.1667H116.661V13.75H114.078V19.0833H116.745V20.6667H112.328V13.75H108.911V20.6667H107.161V13.75H106.161ZM108.911 12.1667H112.328V10.5833H108.911V12.1667Z" fill="#959595"/>
<path d="M117.571 12.1667H119.404L120.821 19.0833H121.071L122.488 12.1667H124.988L126.404 19.0833H126.654L128.071 12.1667H129.904L128.071 20.6667H125.071L123.821 14.1667H123.654L122.404 20.6667H119.404L117.571 12.1667Z" fill="#959595"/>
<path d="M131.876 19.6167C131.12 18.7944 130.742 17.7278 130.742 16.4167C130.742 15.1056 131.12 14.0444 131.876 13.2333C132.642 12.4111 133.598 12 134.742 12C135.464 12 136.126 12.2111 136.726 12.6333C136.981 12.8111 137.209 13.0167 137.409 13.25H137.492V12.1667H139.242V20.6667H137.492V19.5H137.409C137.242 19.7333 137.014 19.9556 136.726 20.1667C136.126 20.6111 135.464 20.8333 134.742 20.8333C133.598 20.8333 132.642 20.4278 131.876 19.6167ZM133.242 14.3167C132.798 14.8056 132.576 15.5056 132.576 16.4167C132.576 17.3278 132.798 18.0278 133.242 18.5167C133.687 19.0056 134.298 19.25 135.076 19.25C135.809 19.25 136.392 19.0056 136.826 18.5167C137.27 18.0167 137.492 17.3167 137.492 16.4167C137.492 15.5167 137.27 14.8222 136.826 14.3333C136.392 13.8333 135.809 13.5833 135.076 13.5833C134.298 13.5833 133.687 13.8278 133.242 14.3167Z" fill="#959595"/>
<path d="M141.236 20.6667V12.1667H142.986V13.4167H143.069C143.191 13.1833 143.369 12.9611 143.602 12.75C144.113 12.3056 144.713 12.0833 145.402 12.0833H146.402V13.75H145.319C144.641 13.75 144.08 13.9667 143.636 14.4C143.202 14.8222 142.986 15.3833 142.986 16.0833V20.6667H141.236Z" fill="#959595"/>
<path d="M148.48 19.5667C147.646 18.7111 147.23 17.6611 147.23 16.4167C147.23 15.1722 147.646 14.1278 148.48 13.2833C149.324 12.4278 150.352 12 151.563 12C152.774 12 153.796 12.4278 154.63 13.2833C155.474 14.1278 155.896 15.1722 155.896 16.4167V17H148.98C149.113 17.7 149.419 18.25 149.896 18.65C150.374 19.05 150.93 19.25 151.563 19.25C152.341 19.25 152.963 19.0556 153.43 18.6667C153.641 18.5111 153.824 18.3167 153.98 18.0833H155.813C155.58 18.6278 155.285 19.0889 154.93 19.4667C154.019 20.3778 152.896 20.8333 151.563 20.8333C150.352 20.8333 149.324 20.4111 148.48 19.5667ZM149.063 15.5833H154.063C153.963 15.0278 153.696 14.5556 153.263 14.1667C152.841 13.7778 152.274 13.5833 151.563 13.5833C150.963 13.5833 150.43 13.7667 149.963 14.1333C149.496 14.4889 149.196 14.9722 149.063 15.5833Z" fill="#959595"/>
</svg>
