<svg width="190" height="30" viewBox="0 0 190 30" fill="none" xmlns="http://www.w3.org/2000/svg">
<circle cx="15" cy="15" r="15" fill="#292929"/>
<circle cx="55" cy="15" r="15" fill="#292929"/>
<circle cx="95" cy="15" r="15" fill="#292929"/>
<circle cx="135" cy="15" r="15" fill="#292929"/>
<circle cx="175" cy="15" r="15" fill="#292929"/>
<g clip-path="url(#clip0_301_12520)">
<path d="M21.8574 19.578C21.8144 19.506 21.5484 18.9279 20.2683 17.7399C18.9282 16.4958 19.1082 16.6978 20.7223 14.5466C21.7054 13.2365 22.0984 12.4365 21.9754 12.0944C21.8584 11.7684 21.1353 11.8544 21.1353 11.8544L18.7312 11.8684C18.7312 11.8684 18.5531 11.8444 18.4201 11.9234C18.2911 12.0014 18.2081 12.1814 18.2081 12.1814C18.2081 12.1814 17.8271 13.1955 17.3191 14.0576C16.248 15.8767 15.8189 15.9727 15.6439 15.8597C15.2369 15.5967 15.3389 14.8016 15.3389 14.2376C15.3389 12.4745 15.6059 11.7394 14.8179 11.5494C14.5559 11.4864 14.3638 11.4444 13.6948 11.4374C12.8367 11.4284 12.1097 11.4404 11.6986 11.6414C11.4246 11.7754 11.2136 12.0744 11.3426 12.0914C11.5016 12.1124 11.8617 12.1884 12.0527 12.4485C12.2997 12.7835 12.2907 13.5375 12.2907 13.5375C12.2907 13.5375 12.4327 15.6127 11.9597 15.8707C11.6346 16.0477 11.1896 15.6867 10.2345 14.0356C9.7455 13.1905 9.37547 12.2554 9.37547 12.2554C9.37547 12.2554 9.30447 12.0814 9.17746 11.9884C9.02344 11.8754 8.80743 11.8394 8.80743 11.8394L6.52126 11.8534C6.52126 11.8534 6.17824 11.8634 6.05223 12.0124C5.94022 12.1454 6.04323 12.4195 6.04323 12.4195C6.04323 12.4195 7.83336 16.6068 9.85951 18.7179C11.7186 20.6531 13.8288 20.5261 13.8288 20.5261H14.7849C14.7849 20.5261 15.0739 20.4941 15.2209 20.335C15.3569 20.189 15.3519 19.915 15.3519 19.915C15.3519 19.915 15.3329 18.6319 15.929 18.4429C16.516 18.2569 17.27 19.683 18.0691 20.232C18.6732 20.6471 19.1322 20.5561 19.1322 20.5561L21.2693 20.5261C21.2693 20.5261 22.3874 20.4571 21.8574 19.578Z" fill="white"/>
</g>
<g clip-path="url(#clip1_301_12520)">
<path d="M58.5844 7H51.4153C48.9807 7 47 8.9808 47 11.4154V18.5845C47 21.0192 48.9807 22.9999 51.4153 22.9999H58.5844C61.0192 22.9999 62.9999 21.0191 62.9999 18.5845V11.4154C63 8.9808 61.0192 7 58.5844 7ZM61.5804 18.5845C61.5804 20.2364 60.2364 21.5803 58.5845 21.5803H51.4153C49.7635 21.5804 48.4196 20.2364 48.4196 18.5845V11.4154C48.4196 9.76356 49.7635 8.41959 51.4153 8.41959H58.5844C60.2363 8.41959 61.5803 9.76356 61.5803 11.4154V18.5845H61.5804Z" fill="white"/>
<path d="M54.9997 10.8772C52.7264 10.8772 50.877 12.7266 50.877 15C50.877 17.2732 52.7264 19.1225 54.9997 19.1225C57.2731 19.1225 59.1225 17.2732 59.1225 15C59.1225 12.7266 57.2731 10.8772 54.9997 10.8772ZM54.9997 17.7029C53.5092 17.7029 52.2965 16.4903 52.2965 14.9999C52.2965 13.5093 53.5092 12.2967 54.9997 12.2967C56.4903 12.2967 57.7029 13.5093 57.7029 14.9999C57.7029 16.4903 56.4902 17.7029 54.9997 17.7029Z" fill="white"/>
<path d="M59.2959 9.67358C59.0224 9.67358 58.7537 9.78431 58.5606 9.97832C58.3665 10.1714 58.2549 10.4402 58.2549 10.7146C58.2549 10.9882 58.3666 11.2569 58.5606 11.4509C58.7536 11.644 59.0224 11.7556 59.2959 11.7556C59.5704 11.7556 59.8382 11.644 60.0322 11.4509C60.2262 11.2569 60.3369 10.9881 60.3369 10.7146C60.3369 10.4402 60.2262 10.1714 60.0322 9.97832C59.8391 9.78431 59.5704 9.67358 59.2959 9.67358Z" fill="white"/>
</g>
<g clip-path="url(#clip2_301_12520)">
<path d="M97.665 9.65667H99.1257V7.11267C98.8737 7.078 98.007 7 96.9977 7C94.8917 7 93.449 8.32467 93.449 10.7593V13H91.125V15.844H93.449V23H96.2983V15.8447H98.5283L98.8823 13.0007H96.2977V11.0413C96.2983 10.2193 96.5197 9.65667 97.665 9.65667Z" fill="white"/>
</g>
<g clip-path="url(#clip3_301_12520)">
<path d="M143 10.039C142.405 10.3 141.771 10.473 141.11 10.557C141.79 10.151 142.309 9.513 142.553 8.744C141.919 9.122 141.219 9.389 140.473 9.538C139.871 8.897 139.013 8.5 138.077 8.5C136.261 8.5 134.799 9.974 134.799 11.781C134.799 12.041 134.821 12.291 134.875 12.529C132.148 12.396 129.735 11.089 128.114 9.098C127.831 9.589 127.665 10.151 127.665 10.756C127.665 11.892 128.25 12.899 129.122 13.482C128.595 13.472 128.078 13.319 127.64 13.078C127.64 13.088 127.64 13.101 127.64 13.114C127.64 14.708 128.777 16.032 130.268 16.337C130.001 16.41 129.71 16.445 129.408 16.445C129.198 16.445 128.986 16.433 128.787 16.389C129.212 17.688 130.418 18.643 131.852 18.674C130.736 19.547 129.319 20.073 127.785 20.073C127.516 20.073 127.258 20.061 127 20.028C128.453 20.965 130.175 21.5 132.032 21.5C138.068 21.5 141.368 16.5 141.368 12.166C141.368 12.021 141.363 11.881 141.356 11.742C142.007 11.28 142.554 10.703 143 10.039Z" fill="white"/>
</g>
<g clip-path="url(#clip4_301_12520)">
<path d="M182.67 11.1589C182.486 10.4735 181.945 9.93323 181.26 9.74866C180.008 9.40601 175 9.40601 175 9.40601C175 9.40601 169.992 9.40601 168.74 9.73559C168.068 9.92004 167.514 10.4736 167.329 11.1589C167 12.4109 167 15.0073 167 15.0073C167 15.0073 167 17.6168 167.329 18.8557C167.514 19.541 168.054 20.0814 168.74 20.2659C170.005 20.6086 175 20.6086 175 20.6086C175 20.6086 180.008 20.6086 181.26 20.279C181.946 20.0946 182.486 19.5542 182.67 18.8689C183 17.6168 183 15.0205 183 15.0205C183 15.0205 183.013 12.4109 182.67 11.1589Z" fill="white"/>
<path d="M173.405 17.406L177.57 15.0073L173.405 12.6086V17.406Z" fill="#292929"/>
</g>
<defs>
<clipPath id="clip0_301_12520">
<rect width="16" height="16" fill="white" transform="translate(6 8)"/>
</clipPath>
<clipPath id="clip1_301_12520">
<rect width="16" height="16" fill="white" transform="translate(47 7)"/>
</clipPath>
<clipPath id="clip2_301_12520">
<rect width="16" height="16" fill="white" transform="translate(87 7)"/>
</clipPath>
<clipPath id="clip3_301_12520">
<rect width="16" height="16" fill="white" transform="translate(127 7)"/>
</clipPath>
<clipPath id="clip4_301_12520">
<rect width="16" height="16" fill="white" transform="translate(167 7)"/>
</clipPath>
</defs>
</svg>
