<svg width="480" height="445" viewBox="0 0 480 445" fill="none" xmlns="http://www.w3.org/2000/svg">
<g filter="url(#filter0_d_301_12048)">
<rect x="10" y="5" width="460" height="95" rx="8" fill="white"/>
</g>
<rect x="30" y="65" width="237" height="15" fill="#F3F3F3"/>
<rect x="30" y="25" width="45" height="20" rx="5" fill="#F4CD42"/>
<path d="M33.12 31.92V30.6H40.02V31.92H37.26V39H35.88V31.92H33.12ZM41.9007 37.968C41.0447 37.12 40.6167 36.064 40.6167 34.8C40.6167 33.536 41.0447 32.48 41.9007 31.632C42.7567 30.784 43.8287 30.36 45.1167 30.36C46.4047 30.36 47.4767 30.784 48.3327 31.632C49.1887 32.48 49.6167 33.536 49.6167 34.8C49.6167 36.064 49.1887 37.12 48.3327 37.968C47.4767 38.816 46.4047 39.24 45.1167 39.24C43.8287 39.24 42.7567 38.816 41.9007 37.968ZM42.9087 32.544C42.3407 33.12 42.0567 33.872 42.0567 34.8C42.0567 35.728 42.3407 36.48 42.9087 37.056C43.4767 37.632 44.2127 37.92 45.1167 37.92C46.0127 37.92 46.7447 37.632 47.3127 37.056C47.8887 36.48 48.1767 35.728 48.1767 34.8C48.1767 33.872 47.8887 33.12 47.3127 32.544C46.7447 31.968 46.0127 31.68 45.1167 31.68C44.2127 31.68 43.4767 31.968 42.9087 32.544ZM54.3009 39V30.6H57.1209C58.4249 30.6 59.5009 31.004 60.3489 31.812C61.1969 32.62 61.6209 33.616 61.6209 34.8C61.6209 35.984 61.1969 36.98 60.3489 37.788C59.5009 38.596 58.4249 39 57.1209 39H54.3009ZM55.6809 37.68H57.1209C58.0409 37.68 58.7809 37.412 59.3409 36.876C59.9009 36.34 60.1809 35.648 60.1809 34.8C60.1809 33.952 59.9009 33.26 59.3409 32.724C58.7809 32.188 58.0409 31.92 57.1209 31.92H55.6809V37.68ZM63.8617 37.968C63.0057 37.12 62.5777 36.064 62.5777 34.8C62.5777 33.536 63.0057 32.48 63.8617 31.632C64.7177 30.784 65.7897 30.36 67.0777 30.36C68.3657 30.36 69.4377 30.784 70.2937 31.632C71.1497 32.48 71.5777 33.536 71.5777 34.8C71.5777 36.064 71.1497 37.12 70.2937 37.968C69.4377 38.816 68.3657 39.24 67.0777 39.24C65.7897 39.24 64.7177 38.816 63.8617 37.968ZM64.8697 32.544C64.3017 33.12 64.0177 33.872 64.0177 34.8C64.0177 35.728 64.3017 36.48 64.8697 37.056C65.4377 37.632 66.1737 37.92 67.0777 37.92C67.9737 37.92 68.7057 37.632 69.2737 37.056C69.8497 36.48 70.1377 35.728 70.1377 34.8C70.1377 33.872 69.8497 33.12 69.2737 32.544C68.7057 31.968 67.9737 31.68 67.0777 31.68C66.1737 31.68 65.4377 31.968 64.8697 32.544Z" fill="black"/>
<rect x="425.5" y="25.5" width="24" height="19" rx="4.5" fill="white" stroke="#54CB4A"/>
<path d="M428.48 34.8C428.48 33.536 428.908 32.48 429.764 31.632C430.62 30.784 431.692 30.36 432.98 30.36C434.268 30.36 435.34 30.784 436.196 31.632C437.052 32.48 437.48 33.536 437.48 34.8C437.48 35.936 437.128 36.916 436.424 37.74C435.72 38.556 434.812 39.036 433.7 39.18V41.4H432.32V39.18C431.192 39.036 430.268 38.556 429.548 37.74C428.836 36.916 428.48 35.936 428.48 34.8ZM430.772 32.544C430.204 33.12 429.92 33.872 429.92 34.8C429.92 35.728 430.204 36.48 430.772 37.056C431.34 37.632 432.076 37.92 432.98 37.92C433.876 37.92 434.608 37.632 435.176 37.056C435.752 36.48 436.04 35.728 436.04 34.8C436.04 33.872 435.752 33.12 435.176 32.544C434.608 31.968 433.876 31.68 432.98 31.68C432.076 31.68 431.34 31.968 430.772 32.544ZM437.907 39L440.067 30.6H443.487L445.707 39H444.267L443.691 36.84H439.827L439.287 39H437.907ZM440.187 35.52H443.355L442.407 31.92H441.087L440.187 35.52Z" fill="#54CB4A"/>
<path d="M282.42 40V38.81L285.64 36.43C286.527 35.7673 287.157 35.198 287.53 34.722C287.903 34.246 288.09 33.6953 288.09 33.07C288.09 32.5007 287.894 32.034 287.502 31.67C287.119 31.2967 286.615 31.11 285.99 31.11C285.187 31.11 284.59 31.4367 284.198 32.09C284.011 32.3887 283.885 32.7153 283.82 33.07H282.49C282.574 32.4913 282.756 31.9687 283.036 31.502C283.699 30.4473 284.683 29.92 285.99 29.92C286.961 29.92 287.763 30.2233 288.398 30.83C289.033 31.4367 289.35 32.1833 289.35 33.07C289.35 33.9193 289.107 34.666 288.622 35.31C288.146 35.9447 287.432 36.598 286.48 37.27L284.45 38.712L284.31 38.796V38.824L284.436 38.81H289.35V40H282.42Z" fill="#7E7E7E"/>
<path d="M274.8 28H263.2C261.987 28 261 28.9866 261 30.1997V37.299C261 38.5094 261.983 39.4944 263.192 39.4987V42.7203L267.822 39.4987H274.8C276.013 39.4987 277 38.5119 277 37.299V30.1997C277 28.9866 276.013 28 274.8 28ZM276.062 37.299C276.062 37.9949 275.496 38.5612 274.8 38.5612H267.528L264.129 40.9259V38.5612H263.2C262.504 38.5612 261.938 37.9949 261.938 37.299V30.1997C261.938 29.5036 262.504 28.9375 263.2 28.9375H274.8C275.496 28.9375 276.062 29.5036 276.062 30.1997V37.299Z" fill="#7E7E7E"/>
<path d="M264 31.5C264 31.2239 264.224 31 264.5 31H273.5C273.776 31 274 31.2239 274 31.5C274 31.7761 273.776 32 273.5 32H264.5C264.224 32 264 31.7761 264 31.5Z" fill="#7E7E7E"/>
<path d="M264 33.5C264 33.2239 264.224 33 264.5 33H273.5C273.776 33 274 33.2239 274 33.5C274 33.7761 273.776 34 273.5 34H264.5C264.224 34 264 33.7761 264 33.5Z" fill="#7E7E7E"/>
<path d="M264 35.5C264 35.2239 264.224 35 264.5 35H273.5C273.776 35 274 35.2239 274 35.5C274 35.7761 273.776 36 273.5 36H264.5C264.224 36 264 35.7761 264 35.5Z" fill="#7E7E7E"/>
<path d="M331.35 33.07V31.67L333.24 30.2H334.36V40H333.1V31.74L331.35 33.07Z" fill="#7E7E7E"/>
<g clip-path="url(#clip0_301_12048)">
<path d="M311.797 36.8612L312.98 35.6778L318.305 30.3532C319.286 29.3792 320.87 29.3821 321.848 30.3598C322.826 31.3375 322.829 32.9216 321.855 33.903L316.53 39.2292C316.312 39.4471 315.959 39.4471 315.741 39.2292C315.523 39.0113 315.523 38.6582 315.741 38.4403L321.066 33.1141C321.61 32.5695 321.61 31.6867 321.066 31.1421C320.521 30.5976 319.638 30.5976 319.094 31.1421L313.768 36.4668L312.584 37.65C311.604 38.6308 311.604 40.2205 312.585 41.2008C313.566 42.181 315.155 42.1808 316.136 41.2L317.122 40.2138L322.644 34.6918L323.038 34.2974C324.417 32.8753 324.4 30.6098 322.999 29.209C321.598 27.8084 319.333 27.7909 317.911 29.1698L311.994 35.0863C311.853 35.2272 311.648 35.2822 311.455 35.2306C311.263 35.1791 311.112 35.0288 311.061 34.8362C311.009 34.6437 311.064 34.4384 311.205 34.2974L317.122 28.381C318.974 26.5366 321.971 26.54 323.819 28.3887C325.668 30.2373 325.671 33.2335 323.827 35.0863L317.911 41.0027L316.923 41.989C315.499 43.3567 313.243 43.3339 311.847 41.9375C310.451 40.5413 310.429 38.2847 311.797 36.8612Z" fill="#7E7E7E"/>
</g>
<g clip-path="url(#clip1_301_12048)">
<path d="M368.851 37.4125L366.62 35.7394V32.3312C366.62 31.9885 366.343 31.7115 366.001 31.7115C365.658 31.7115 365.381 31.9885 365.381 32.3312V36.0493C365.381 36.2445 365.473 36.4285 365.629 36.545L368.107 38.4041C368.219 38.4877 368.349 38.528 368.479 38.528C368.668 38.528 368.854 38.4431 368.975 38.2795C369.181 38.0062 369.125 37.6177 368.851 37.4125Z" fill="#7E7E7E"/>
<path d="M366 28C361.589 28 358 31.5885 358 36C358 40.4115 361.589 44 366 44C370.411 44 374 40.4115 374 36C374 31.5885 370.411 28 366 28ZM366 42.7607C362.273 42.7607 359.239 39.7273 359.239 36C359.239 32.2727 362.273 29.2393 366 29.2393C369.728 29.2393 372.761 32.2727 372.761 36C372.761 39.7273 369.727 42.7607 366 42.7607Z" fill="#7E7E7E"/>
</g>
<path d="M381.058 38.838C380.199 37.8767 379.77 36.6307 379.77 35.1C379.77 33.5693 380.199 32.3233 381.058 31.362C381.917 30.4007 382.957 29.92 384.18 29.92C385.403 29.92 386.443 30.4007 387.302 31.362C388.161 32.3233 388.59 33.5693 388.59 35.1C388.59 36.6307 388.161 37.8767 387.302 38.838C386.443 39.7993 385.403 40.28 384.18 40.28C382.957 40.28 381.917 39.7993 381.058 38.838ZM381.912 32.174C381.324 32.874 381.03 33.8493 381.03 35.1C381.03 36.3507 381.324 37.3307 381.912 38.04C382.509 38.74 383.265 39.09 384.18 39.09C385.095 39.09 385.846 38.74 386.434 38.04C387.031 37.3307 387.33 36.3507 387.33 35.1C387.33 33.8493 387.031 32.874 386.434 32.174C385.846 31.4647 385.095 31.11 384.18 31.11C383.265 31.11 382.509 31.4647 381.912 32.174ZM390.231 34.232C390.073 34.0733 389.993 33.8727 389.993 33.63C389.993 33.3873 390.073 33.1867 390.231 33.028C390.39 32.8693 390.591 32.79 390.833 32.79C391.076 32.79 391.277 32.8693 391.435 33.028C391.594 33.1867 391.673 33.3873 391.673 33.63C391.673 33.8727 391.594 34.0733 391.435 34.232C391.277 34.3907 391.076 34.47 390.833 34.47C390.591 34.47 390.39 34.3907 390.231 34.232ZM390.231 39.972C390.073 39.8133 389.993 39.6127 389.993 39.37C389.993 39.1273 390.073 38.9267 390.231 38.768C390.39 38.6093 390.591 38.53 390.833 38.53C391.076 38.53 391.277 38.6093 391.435 38.768C391.594 38.9267 391.673 39.1273 391.673 39.37C391.673 39.6127 391.594 39.8133 391.435 39.972C391.277 40.1307 391.076 40.21 390.833 40.21C390.591 40.21 390.39 40.1307 390.231 39.972ZM392.583 37.9V36.71L396.013 30.2H397.413L393.983 36.71H397.693V34.19H397.763H398.953V36.71H400.423V37.9H398.953V40H397.693V37.9H392.583ZM401.192 37.34H402.452C402.536 37.6853 402.681 37.9793 402.886 38.222C403.353 38.8007 404.025 39.09 404.902 39.09C405.621 39.09 406.195 38.8893 406.624 38.488C407.063 38.0867 407.282 37.564 407.282 36.92C407.282 36.276 407.063 35.7533 406.624 35.352C406.195 34.9507 405.621 34.75 404.902 34.75C404.258 34.75 403.703 34.9273 403.236 35.282C403.04 35.422 402.872 35.5947 402.732 35.8H401.612L402.032 30.2H407.842V31.39H403.082L402.872 34.246V34.26C403.031 34.12 403.208 34.0033 403.404 33.91C403.927 33.6767 404.473 33.56 405.042 33.56C406.05 33.56 406.886 33.882 407.548 34.526C408.211 35.17 408.542 35.968 408.542 36.92C408.542 37.8813 408.202 38.684 407.52 39.328C406.848 39.9627 405.976 40.28 404.902 40.28C403.521 40.28 402.49 39.79 401.808 38.81C401.491 38.3713 401.286 37.8813 401.192 37.34Z" fill="#7E7E7E"/>
<g filter="url(#filter1_d_301_12048)">
<rect x="10" y="115" width="460" height="95" rx="8" fill="white"/>
</g>
<rect x="29" y="135" width="72" height="20" rx="5" fill="#F58B34"/>
<path d="M33.84 149V140.6H35.22V149H33.84ZM36.7786 149V142.88H38.0386V143.72H38.0986C38.1946 143.56 38.3426 143.4 38.5426 143.24C38.9746 142.92 39.4666 142.76 40.0186 142.76C40.7786 142.76 41.3666 142.98 41.7826 143.42C42.2066 143.86 42.4186 144.5 42.4186 145.34V149H41.1586V145.46C41.1586 144.924 41.0386 144.532 40.7986 144.284C40.5666 144.028 40.2066 143.9 39.7186 143.9C39.2306 143.9 38.8266 144.068 38.5066 144.404C38.1946 144.732 38.0386 145.164 38.0386 145.7V149H36.7786ZM47.2814 149V140.6H50.9414C51.9094 140.6 52.6894 140.872 53.2814 141.416C53.8814 141.952 54.1814 142.62 54.1814 143.42C54.1814 144.22 53.8814 144.892 53.2814 145.436C52.6894 145.972 51.9094 146.24 50.9414 146.24H48.6614V149H47.2814ZM48.6614 144.92H50.9414C51.5254 144.92 51.9694 144.788 52.2734 144.524C52.5854 144.252 52.7414 143.884 52.7414 143.42C52.7414 142.956 52.5854 142.592 52.2734 142.328C51.9694 142.056 51.5254 141.92 50.9414 141.92H48.6614V144.92ZM55.2591 149V142.88H56.5191V143.78H56.5791C56.6671 143.612 56.7951 143.452 56.9631 143.3C57.3311 142.98 57.7631 142.82 58.2591 142.82H58.9791V144.02H58.1991C57.7111 144.02 57.3071 144.176 56.9871 144.488C56.6751 144.792 56.5191 145.196 56.5191 145.7V149H55.2591ZM60.4868 148.208C59.8788 147.592 59.5748 146.836 59.5748 145.94C59.5748 145.044 59.8788 144.292 60.4868 143.684C61.1028 143.068 61.8588 142.76 62.7548 142.76C63.6508 142.76 64.4028 143.068 65.0108 143.684C65.6268 144.292 65.9348 145.044 65.9348 145.94C65.9348 146.836 65.6268 147.592 65.0108 148.208C64.4028 148.816 63.6508 149.12 62.7548 149.12C61.8588 149.12 61.1028 148.816 60.4868 148.208ZM61.4108 144.464C61.0668 144.832 60.8948 145.324 60.8948 145.94C60.8948 146.556 61.0668 147.052 61.4108 147.428C61.7548 147.796 62.2028 147.98 62.7548 147.98C63.3068 147.98 63.7548 147.796 64.0988 147.428C64.4428 147.052 64.6148 146.556 64.6148 145.94C64.6148 145.324 64.4428 144.832 64.0988 144.464C63.7548 144.088 63.3068 143.9 62.7548 143.9C62.2028 143.9 61.7548 144.088 61.4108 144.464ZM67.469 148.244C66.925 147.652 66.653 146.884 66.653 145.94C66.653 144.996 66.925 144.232 67.469 143.648C68.021 143.056 68.709 142.76 69.533 142.76C70.053 142.76 70.529 142.912 70.961 143.216C71.153 143.352 71.317 143.504 71.453 143.672H71.513V142.88H72.773V151.28H67.553V150.14H71.513V148.22H71.453C71.317 148.388 71.153 148.54 70.961 148.676C70.537 148.972 70.061 149.12 69.533 149.12C68.709 149.12 68.021 148.828 67.469 148.244ZM68.453 144.428C68.133 144.78 67.973 145.284 67.973 145.94C67.973 146.596 68.133 147.1 68.453 147.452C68.773 147.804 69.213 147.98 69.773 147.98C70.301 147.98 70.721 147.804 71.033 147.452C71.353 147.092 71.513 146.588 71.513 145.94C71.513 145.292 71.353 144.792 71.033 144.44C70.721 144.08 70.301 143.9 69.773 143.9C69.213 143.9 68.773 144.076 68.453 144.428ZM74.2083 149V142.88H75.4683V143.78H75.5283C75.6163 143.612 75.7443 143.452 75.9123 143.3C76.2803 142.98 76.7123 142.82 77.2083 142.82H77.9283V144.02H77.1483C76.6603 144.02 76.2563 144.176 75.9363 144.488C75.6243 144.792 75.4683 145.196 75.4683 145.7V149H74.2083ZM79.4241 148.208C78.8241 147.592 78.5241 146.836 78.5241 145.94C78.5241 145.044 78.8241 144.292 79.4241 143.684C80.0321 143.068 80.7721 142.76 81.6441 142.76C82.5161 142.76 83.2521 143.068 83.8521 143.684C84.4601 144.292 84.7641 145.044 84.7641 145.94V146.36H79.7841C79.8801 146.864 80.1001 147.26 80.4441 147.548C80.7881 147.836 81.1881 147.98 81.6441 147.98C82.2041 147.98 82.6521 147.84 82.9881 147.56C83.1401 147.448 83.2721 147.308 83.3841 147.14H84.7041C84.5361 147.532 84.3241 147.864 84.0681 148.136C83.4121 148.792 82.6041 149.12 81.6441 149.12C80.7721 149.12 80.0321 148.816 79.4241 148.208ZM79.8441 145.34H83.4441C83.3721 144.94 83.1801 144.6 82.8681 144.32C82.5641 144.04 82.1561 143.9 81.6441 143.9C81.2121 143.9 80.8281 144.032 80.4921 144.296C80.1561 144.552 79.9401 144.9 79.8441 145.34ZM85.425 147.08H86.805C86.861 147.24 86.961 147.392 87.105 147.536C87.401 147.832 87.801 147.98 88.305 147.98C88.745 147.98 89.065 147.912 89.265 147.776C89.465 147.64 89.565 147.468 89.565 147.26C89.565 147.188 89.549 147.124 89.517 147.068C89.485 147.004 89.429 146.948 89.349 146.9C89.269 146.852 89.193 146.812 89.121 146.78C89.049 146.74 88.941 146.704 88.797 146.672C88.653 146.632 88.537 146.604 88.449 146.588C88.361 146.564 88.225 146.532 88.041 146.492C87.865 146.452 87.733 146.424 87.645 146.408C86.365 146.12 85.725 145.504 85.725 144.56C85.725 144.08 85.945 143.66 86.385 143.3C86.825 142.94 87.405 142.76 88.125 142.76C89.125 142.76 89.873 143.08 90.369 143.72C90.593 144 90.745 144.32 90.825 144.68H89.505C89.441 144.52 89.353 144.392 89.241 144.296C88.961 144.032 88.589 143.9 88.125 143.9C87.765 143.9 87.493 143.964 87.309 144.092C87.133 144.22 87.045 144.38 87.045 144.572C87.045 144.644 87.061 144.712 87.093 144.776C87.125 144.832 87.181 144.884 87.261 144.932C87.341 144.98 87.417 145.02 87.489 145.052C87.569 145.084 87.677 145.12 87.813 145.16C87.949 145.192 88.065 145.22 88.161 145.244C88.257 145.26 88.389 145.288 88.557 145.328C88.733 145.36 88.869 145.388 88.965 145.412C90.245 145.7 90.885 146.316 90.885 147.26C90.885 147.772 90.653 148.212 90.189 148.58C89.733 148.94 89.105 149.12 88.305 149.12C87.265 149.12 86.469 148.78 85.917 148.1C85.669 147.788 85.505 147.448 85.425 147.08ZM91.5422 147.08H92.9222C92.9782 147.24 93.0782 147.392 93.2222 147.536C93.5182 147.832 93.9182 147.98 94.4222 147.98C94.8622 147.98 95.1822 147.912 95.3822 147.776C95.5822 147.64 95.6822 147.468 95.6822 147.26C95.6822 147.188 95.6662 147.124 95.6342 147.068C95.6022 147.004 95.5462 146.948 95.4662 146.9C95.3862 146.852 95.3102 146.812 95.2382 146.78C95.1662 146.74 95.0582 146.704 94.9142 146.672C94.7702 146.632 94.6542 146.604 94.5662 146.588C94.4782 146.564 94.3422 146.532 94.1582 146.492C93.9822 146.452 93.8502 146.424 93.7622 146.408C92.4822 146.12 91.8422 145.504 91.8422 144.56C91.8422 144.08 92.0622 143.66 92.5022 143.3C92.9422 142.94 93.5222 142.76 94.2422 142.76C95.2422 142.76 95.9902 143.08 96.4862 143.72C96.7102 144 96.8622 144.32 96.9422 144.68H95.6222C95.5582 144.52 95.4702 144.392 95.3582 144.296C95.0782 144.032 94.7062 143.9 94.2422 143.9C93.8822 143.9 93.6102 143.964 93.4262 144.092C93.2502 144.22 93.1622 144.38 93.1622 144.572C93.1622 144.644 93.1782 144.712 93.2102 144.776C93.2422 144.832 93.2982 144.884 93.3782 144.932C93.4582 144.98 93.5342 145.02 93.6062 145.052C93.6862 145.084 93.7942 145.12 93.9302 145.16C94.0662 145.192 94.1822 145.22 94.2782 145.244C94.3742 145.26 94.5062 145.288 94.6742 145.328C94.8502 145.36 94.9862 145.388 95.0822 145.412C96.3622 145.7 97.0022 146.316 97.0022 147.26C97.0022 147.772 96.7702 148.212 96.3062 148.58C95.8502 148.94 95.2222 149.12 94.4222 149.12C93.3822 149.12 92.5862 148.78 92.0342 148.1C91.7862 147.788 91.6222 147.448 91.5422 147.08Z" fill="black"/>
<rect x="29" y="175" width="326" height="15" fill="#F3F3F3"/>
<path d="M328.35 147.34H329.68C329.764 147.685 329.909 147.979 330.114 148.222C330.581 148.801 331.253 149.09 332.13 149.09C332.886 149.09 333.469 148.908 333.88 148.544C334.3 148.18 334.51 147.709 334.51 147.13C334.51 146.551 334.305 146.08 333.894 145.716C333.483 145.352 332.919 145.17 332.2 145.17H330.17V144.05L333.446 141.404L333.46 141.39H328.84V140.2H335.21V141.39L332.13 143.868L332.004 143.966L331.99 143.98H332.2C333.227 143.98 334.076 144.293 334.748 144.918C335.429 145.534 335.77 146.271 335.77 147.13C335.77 147.998 335.425 148.74 334.734 149.356C334.053 149.972 333.185 150.28 332.13 150.28C330.73 150.28 329.689 149.79 329.008 148.81C328.691 148.362 328.471 147.872 328.35 147.34Z" fill="#7E7E7E"/>
<g clip-path="url(#clip2_301_12048)">
<path d="M308.797 146.861L309.98 145.678L315.305 140.353C316.286 139.379 317.87 139.382 318.848 140.36C319.826 141.338 319.829 142.922 318.855 143.903L313.53 149.229C313.312 149.447 312.959 149.447 312.741 149.229C312.523 149.011 312.523 148.658 312.741 148.44L318.066 143.114C318.61 142.569 318.61 141.687 318.066 141.142C317.521 140.598 316.638 140.598 316.094 141.142L310.768 146.467L309.584 147.65C308.604 148.631 308.604 150.221 309.585 151.201C310.566 152.181 312.155 152.181 313.136 151.2L314.122 150.214L319.644 144.692L320.038 144.297C321.417 142.875 321.4 140.61 319.999 139.209C318.598 137.808 316.333 137.791 314.911 139.17L308.994 145.086C308.853 145.227 308.648 145.282 308.455 145.231C308.263 145.179 308.112 145.029 308.061 144.836C308.009 144.644 308.064 144.438 308.205 144.297L314.122 138.381C315.974 136.537 318.971 136.54 320.819 138.389C322.668 140.237 322.671 143.233 320.827 145.086L314.911 151.003L313.923 151.989C312.499 153.357 310.243 153.334 308.847 151.938C307.451 150.541 307.429 148.285 308.797 146.861Z" fill="#7E7E7E"/>
</g>
<path d="M266.35 143.07V141.67L268.24 140.2H269.36V150H268.1V141.74L266.35 143.07ZM270.484 150L274.264 140.2H275.524L271.744 150H270.484ZM276.229 147.34H277.489C277.573 147.685 277.718 147.979 277.923 148.222C278.39 148.801 279.062 149.09 279.939 149.09C280.658 149.09 281.232 148.889 281.661 148.488C282.1 148.087 282.319 147.564 282.319 146.92C282.319 146.276 282.1 145.753 281.661 145.352C281.232 144.951 280.658 144.75 279.939 144.75C279.295 144.75 278.74 144.927 278.273 145.282C278.077 145.422 277.909 145.595 277.769 145.8H276.649L277.069 140.2H282.879V141.39H278.119L277.909 144.246V144.26C278.068 144.12 278.245 144.003 278.441 143.91C278.964 143.677 279.51 143.56 280.079 143.56C281.087 143.56 281.923 143.882 282.585 144.526C283.248 145.17 283.579 145.968 283.579 146.92C283.579 147.881 283.239 148.684 282.557 149.328C281.885 149.963 281.013 150.28 279.939 150.28C278.558 150.28 277.527 149.79 276.845 148.81C276.528 148.371 276.323 147.881 276.229 147.34Z" fill="#7E7E7E"/>
<g clip-path="url(#clip3_301_12048)">
<path d="M256.308 143.058L251.75 147.616L249.692 145.558C249.448 145.314 249.052 145.314 248.808 145.558C248.564 145.802 248.564 146.198 248.808 146.442L251.308 148.942C251.43 149.064 251.59 149.125 251.75 149.125C251.91 149.125 252.07 149.064 252.192 148.942L257.192 143.942C257.436 143.698 257.436 143.302 257.192 143.058C256.948 142.814 256.552 142.814 256.308 143.058Z" fill="#7E7E7E"/>
<path d="M259.125 138H246.875C245.841 138 245 138.841 245 139.875V152.125C245 153.159 245.841 154 246.875 154H259.125C260.159 154 261 153.159 261 152.125V139.875C261 138.841 260.159 138 259.125 138ZM259.75 152.125C259.75 152.47 259.47 152.75 259.125 152.75H246.875C246.53 152.75 246.25 152.47 246.25 152.125V139.875C246.25 139.53 246.53 139.25 246.875 139.25H259.125C259.47 139.25 259.75 139.53 259.75 139.875V152.125Z" fill="#7E7E7E"/>
</g>
<g clip-path="url(#clip4_301_12048)">
<path d="M365.851 147.413L363.62 145.739V142.331C363.62 141.989 363.343 141.712 363.001 141.712C362.658 141.712 362.381 141.989 362.381 142.331V146.049C362.381 146.244 362.473 146.429 362.629 146.545L365.107 148.404C365.219 148.488 365.349 148.528 365.479 148.528C365.668 148.528 365.854 148.443 365.975 148.28C366.181 148.006 366.125 147.618 365.851 147.413Z" fill="#7E7E7E"/>
<path d="M363 138C358.589 138 355 141.589 355 146C355 150.411 358.589 154 363 154C367.411 154 371 150.411 371 146C371 141.589 367.411 138 363 138ZM363 152.761C359.273 152.761 356.239 149.727 356.239 146C356.239 142.273 359.273 139.239 363 139.239C366.728 139.239 369.761 142.273 369.761 146C369.761 149.727 366.727 152.761 363 152.761Z" fill="#7E7E7E"/>
</g>
<path d="M376.42 150V148.81L379.64 146.43C380.527 145.767 381.157 145.198 381.53 144.722C381.903 144.246 382.09 143.695 382.09 143.07C382.09 142.501 381.894 142.034 381.502 141.67C381.119 141.297 380.615 141.11 379.99 141.11C379.187 141.11 378.59 141.437 378.198 142.09C378.011 142.389 377.885 142.715 377.82 143.07H376.49C376.574 142.491 376.756 141.969 377.036 141.502C377.699 140.447 378.683 139.92 379.99 139.92C380.961 139.92 381.763 140.223 382.398 140.83C383.033 141.437 383.35 142.183 383.35 143.07C383.35 143.919 383.107 144.666 382.622 145.31C382.146 145.945 381.432 146.598 380.48 147.27L378.45 148.712L378.31 148.796V148.824L378.436 148.81H383.35V150H376.42ZM384.852 144.232C384.694 144.073 384.614 143.873 384.614 143.63C384.614 143.387 384.694 143.187 384.852 143.028C385.011 142.869 385.212 142.79 385.454 142.79C385.697 142.79 385.898 142.869 386.056 143.028C386.215 143.187 386.294 143.387 386.294 143.63C386.294 143.873 386.215 144.073 386.056 144.232C385.898 144.391 385.697 144.47 385.454 144.47C385.212 144.47 385.011 144.391 384.852 144.232ZM384.852 149.972C384.694 149.813 384.614 149.613 384.614 149.37C384.614 149.127 384.694 148.927 384.852 148.768C385.011 148.609 385.212 148.53 385.454 148.53C385.697 148.53 385.898 148.609 386.056 148.768C386.215 148.927 386.294 149.127 386.294 149.37C386.294 149.613 386.215 149.813 386.056 149.972C385.898 150.131 385.697 150.21 385.454 150.21C385.212 150.21 385.011 150.131 384.852 149.972ZM387.274 147.34H388.604C388.688 147.685 388.832 147.979 389.038 148.222C389.504 148.801 390.176 149.09 391.054 149.09C391.81 149.09 392.393 148.908 392.804 148.544C393.224 148.18 393.434 147.709 393.434 147.13C393.434 146.551 393.228 146.08 392.818 145.716C392.407 145.352 391.842 145.17 391.124 145.17H389.094V144.05L392.37 141.404L392.384 141.39H387.764V140.2H394.134V141.39L391.054 143.868L390.928 143.966L390.914 143.98H391.124C392.15 143.98 393 144.293 393.672 144.918C394.353 145.534 394.694 146.271 394.694 147.13C394.694 147.998 394.348 148.74 393.658 149.356C392.976 149.972 392.108 150.28 391.054 150.28C389.654 150.28 388.613 149.79 387.932 148.81C387.614 148.362 387.395 147.872 387.274 147.34ZM397.308 148.838C396.449 147.877 396.02 146.631 396.02 145.1C396.02 143.569 396.449 142.323 397.308 141.362C398.167 140.401 399.207 139.92 400.43 139.92C401.653 139.92 402.693 140.401 403.552 141.362C404.411 142.323 404.84 143.569 404.84 145.1C404.84 146.631 404.411 147.877 403.552 148.838C402.693 149.799 401.653 150.28 400.43 150.28C399.207 150.28 398.167 149.799 397.308 148.838ZM398.162 142.174C397.574 142.874 397.28 143.849 397.28 145.1C397.28 146.351 397.574 147.331 398.162 148.04C398.759 148.74 399.515 149.09 400.43 149.09C401.345 149.09 402.096 148.74 402.684 148.04C403.281 147.331 403.58 146.351 403.58 145.1C403.58 143.849 403.281 142.874 402.684 142.174C402.096 141.465 401.345 141.11 400.43 141.11C399.515 141.11 398.759 141.465 398.162 142.174Z" fill="#7E7E7E"/>
<rect x="425.5" y="136.5" width="24" height="19" rx="4.5" fill="white" stroke="#A259FF"/>
<path d="M430.84 150V141.6H434.98C435.772 141.6 436.4 141.808 436.864 142.224C437.328 142.632 437.56 143.144 437.56 143.76C437.56 144.376 437.348 144.848 436.924 145.176C436.748 145.312 436.54 145.42 436.3 145.5V145.56C436.596 145.624 436.856 145.732 437.08 145.884C437.6 146.26 437.86 146.832 437.86 147.6C437.86 148.312 437.604 148.892 437.092 149.34C436.58 149.78 435.856 150 434.92 150H430.84ZM432.22 145.02H434.92C435.304 145.02 435.6 144.924 435.808 144.732C436.016 144.54 436.12 144.272 436.12 143.928C436.12 143.624 436.016 143.38 435.808 143.196C435.6 143.012 435.304 142.92 434.92 142.92H432.22V145.02ZM432.22 148.68H434.86C435.9 148.68 436.42 148.28 436.42 147.48C436.42 146.68 435.9 146.28 434.86 146.28H432.22V148.68ZM439.301 150V141.6H445.361V142.92H440.681V145.08H444.461V146.4H440.681V148.68H445.361V150H439.301Z" fill="#A259FF"/>
<g filter="url(#filter2_d_301_12048)">
<rect x="10" y="225" width="460" height="95" rx="8" fill="white"/>
</g>
<rect x="29" y="245" width="55" height="20" rx="5" fill="#4BA9FF"/>
<path d="M33.764 257.968C32.908 257.12 32.48 256.064 32.48 254.8C32.48 253.536 32.908 252.48 33.764 251.632C34.62 250.784 35.692 250.36 36.98 250.36C38.268 250.36 39.34 250.784 40.196 251.632C41.052 252.48 41.48 253.536 41.48 254.8C41.48 256.064 41.052 257.12 40.196 257.968C39.34 258.816 38.268 259.24 36.98 259.24C35.692 259.24 34.62 258.816 33.764 257.968ZM34.772 252.544C34.204 253.12 33.92 253.872 33.92 254.8C33.92 255.728 34.204 256.48 34.772 257.056C35.34 257.632 36.076 257.92 36.98 257.92C37.876 257.92 38.608 257.632 39.176 257.056C39.752 256.48 40.04 255.728 40.04 254.8C40.04 253.872 39.752 253.12 39.176 252.544C38.608 251.968 37.876 251.68 36.98 251.68C36.076 251.68 35.34 251.968 34.772 252.544ZM42.6809 259V252.88H43.9409V253.72H44.0009C44.0969 253.56 44.2449 253.4 44.4449 253.24C44.8769 252.92 45.3689 252.76 45.9209 252.76C46.6809 252.76 47.2689 252.98 47.6849 253.42C48.1089 253.86 48.3209 254.5 48.3209 255.34V259H47.0609V255.46C47.0609 254.924 46.9409 254.532 46.7009 254.284C46.4689 254.028 46.1089 253.9 45.6209 253.9C45.1329 253.9 44.7289 254.068 44.4089 254.404C44.0969 254.732 43.9409 255.164 43.9409 255.7V259H42.6809ZM53.1838 259V250.6H54.5638V254.08H58.7038V250.6H60.0838V259H58.7038V255.4H54.5638V259H53.1838ZM62.1939 258.208C61.5859 257.592 61.2819 256.836 61.2819 255.94C61.2819 255.044 61.5859 254.292 62.1939 253.684C62.8099 253.068 63.5659 252.76 64.4619 252.76C65.3579 252.76 66.1099 253.068 66.7179 253.684C67.3339 254.292 67.6419 255.044 67.6419 255.94C67.6419 256.836 67.3339 257.592 66.7179 258.208C66.1099 258.816 65.3579 259.12 64.4619 259.12C63.5659 259.12 62.8099 258.816 62.1939 258.208ZM63.1179 254.464C62.7739 254.832 62.6019 255.324 62.6019 255.94C62.6019 256.556 62.7739 257.052 63.1179 257.428C63.4619 257.796 63.9099 257.98 64.4619 257.98C65.0139 257.98 65.4619 257.796 65.8059 257.428C66.1499 257.052 66.3219 256.556 66.3219 255.94C66.3219 255.324 66.1499 254.832 65.8059 254.464C65.4619 254.088 65.0139 253.9 64.4619 253.9C63.9099 253.9 63.4619 254.088 63.1179 254.464ZM68.72 259V250.6H69.98V257.86H71.36V259H68.72ZM72.6565 258.244C72.1125 257.652 71.8405 256.884 71.8405 255.94C71.8405 254.996 72.1125 254.232 72.6565 253.648C73.2085 253.056 73.8965 252.76 74.7205 252.76C75.2405 252.76 75.7165 252.912 76.1485 253.216C76.3325 253.344 76.4965 253.492 76.6405 253.66H76.7005V250.6H77.9605V259H76.7005V258.22H76.6405C76.5045 258.388 76.3405 258.54 76.1485 258.676C75.7245 258.972 75.2485 259.12 74.7205 259.12C73.8965 259.12 73.2085 258.828 72.6565 258.244ZM73.6405 254.428C73.3205 254.78 73.1605 255.284 73.1605 255.94C73.1605 256.596 73.3205 257.1 73.6405 257.452C73.9605 257.804 74.4005 257.98 74.9605 257.98C75.4885 257.98 75.9085 257.804 76.2205 257.452C76.5405 257.092 76.7005 256.588 76.7005 255.94C76.7005 255.292 76.5405 254.792 76.2205 254.44C75.9085 254.08 75.4885 253.9 74.9605 253.9C74.4005 253.9 73.9605 254.076 73.6405 254.428Z" fill="black"/>
<rect x="29" y="285" width="271" height="15" fill="#F3F3F3"/>
<g clip-path="url(#clip5_301_12048)">
<path d="M359.851 257.413L357.62 255.739V252.331C357.62 251.989 357.343 251.712 357.001 251.712C356.658 251.712 356.381 251.989 356.381 252.331V256.049C356.381 256.244 356.473 256.429 356.629 256.545L359.107 258.404C359.219 258.488 359.349 258.528 359.479 258.528C359.668 258.528 359.854 258.443 359.975 258.28C360.181 258.006 360.125 257.618 359.851 257.413Z" fill="#7E7E7E"/>
<path d="M357 248C352.589 248 349 251.589 349 256C349 260.411 352.589 264 357 264C361.411 264 365 260.411 365 256C365 251.589 361.411 248 357 248ZM357 262.761C353.273 262.761 350.239 259.727 350.239 256C350.239 252.273 353.273 249.239 357 249.239C360.728 249.239 363.761 252.273 363.761 256C363.761 259.727 360.727 262.761 357 262.761Z" fill="#7E7E7E"/>
</g>
<path d="M370.35 253.07V251.67L372.24 250.2H373.36V260H372.1V251.74L370.35 253.07ZM375.114 257.34C375.114 256.481 375.45 255.8 376.122 255.296C376.43 255.072 376.771 254.913 377.144 254.82V254.75C376.846 254.647 376.575 254.498 376.332 254.302C375.8 253.863 375.534 253.289 375.534 252.58C375.534 251.843 375.842 251.217 376.458 250.704C377.084 250.181 377.919 249.92 378.964 249.92C380.01 249.92 380.84 250.181 381.456 250.704C382.082 251.217 382.394 251.843 382.394 252.58C382.394 253.28 382.124 253.854 381.582 254.302C381.33 254.507 381.064 254.657 380.784 254.75V254.82C381.139 254.913 381.475 255.072 381.792 255.296C382.474 255.809 382.814 256.491 382.814 257.34C382.814 258.143 382.464 258.833 381.764 259.412C381.074 259.991 380.14 260.28 378.964 260.28C377.788 260.28 376.85 259.991 376.15 259.412C375.46 258.833 375.114 258.143 375.114 257.34ZM376.794 252.72C376.794 253.131 376.99 253.49 377.382 253.798C377.774 254.106 378.302 254.26 378.964 254.26C379.627 254.26 380.154 254.106 380.546 253.798C380.938 253.49 381.134 253.131 381.134 252.72C381.134 252.244 380.948 251.857 380.574 251.558C380.21 251.259 379.674 251.11 378.964 251.11C378.255 251.11 377.714 251.259 377.34 251.558C376.976 251.857 376.794 252.244 376.794 252.72ZM377.046 255.982C376.598 256.327 376.374 256.757 376.374 257.27C376.374 257.783 376.598 258.217 377.046 258.572C377.494 258.917 378.134 259.09 378.964 259.09C379.795 259.09 380.434 258.917 380.882 258.572C381.33 258.217 381.554 257.783 381.554 257.27C381.554 256.757 381.33 256.327 380.882 255.982C380.434 255.627 379.795 255.45 378.964 255.45C378.134 255.45 377.494 255.627 377.046 255.982ZM384.307 254.232C384.149 254.073 384.069 253.873 384.069 253.63C384.069 253.387 384.149 253.187 384.307 253.028C384.466 252.869 384.667 252.79 384.909 252.79C385.152 252.79 385.353 252.869 385.511 253.028C385.67 253.187 385.749 253.387 385.749 253.63C385.749 253.873 385.67 254.073 385.511 254.232C385.353 254.391 385.152 254.47 384.909 254.47C384.667 254.47 384.466 254.391 384.307 254.232ZM384.307 259.972C384.149 259.813 384.069 259.613 384.069 259.37C384.069 259.127 384.149 258.927 384.307 258.768C384.466 258.609 384.667 258.53 384.909 258.53C385.152 258.53 385.353 258.609 385.511 258.768C385.67 258.927 385.749 259.127 385.749 259.37C385.749 259.613 385.67 259.813 385.511 259.972C385.353 260.131 385.152 260.21 384.909 260.21C384.667 260.21 384.466 260.131 384.307 259.972ZM386.659 257.9V256.71L390.089 250.2H391.489L388.059 256.71H391.769V254.19H391.839H393.029V256.71H394.499V257.9H393.029V260H391.769V257.9H386.659ZM395.268 257.34H396.528C396.612 257.685 396.757 257.979 396.962 258.222C397.429 258.801 398.101 259.09 398.978 259.09C399.697 259.09 400.271 258.889 400.7 258.488C401.139 258.087 401.358 257.564 401.358 256.92C401.358 256.276 401.139 255.753 400.7 255.352C400.271 254.951 399.697 254.75 398.978 254.75C398.334 254.75 397.779 254.927 397.312 255.282C397.116 255.422 396.948 255.595 396.808 255.8H395.688L396.108 250.2H401.918V251.39H397.158L396.948 254.246V254.26C397.107 254.12 397.284 254.003 397.48 253.91C398.003 253.677 398.549 253.56 399.118 253.56C400.126 253.56 400.962 253.882 401.624 254.526C402.287 255.17 402.618 255.968 402.618 256.92C402.618 257.881 402.278 258.684 401.596 259.328C400.924 259.963 400.052 260.28 398.978 260.28C397.597 260.28 396.566 259.79 395.884 258.81C395.567 258.371 395.362 257.881 395.268 257.34Z" fill="#7E7E7E"/>
<rect x="425.5" y="245.5" width="24" height="19" rx="4.5" fill="white" stroke="#1ABCFE"/>
<path d="M431.84 259V250.6H437.72V251.92H433.22V254.32H436.76V255.64H433.22V259H431.84ZM438.801 259V250.6H444.861V251.92H440.181V254.08H443.961V255.4H440.181V257.68H444.861V259H438.801Z" fill="#1ABCFE"/>
<g filter="url(#filter3_d_301_12048)">
<rect x="10" y="335" width="460" height="95" rx="8" fill="white"/>
</g>
<rect x="30" y="355" width="40" height="20" rx="5" fill="#54CB4A"/>
<path d="M35.84 369V360.6H38.66C39.964 360.6 41.04 361.004 41.888 361.812C42.736 362.62 43.16 363.616 43.16 364.8C43.16 365.984 42.736 366.98 41.888 367.788C41.04 368.596 39.964 369 38.66 369H35.84ZM37.22 367.68H38.66C39.58 367.68 40.32 367.412 40.88 366.876C41.44 366.34 41.72 365.648 41.72 364.8C41.72 363.952 41.44 363.26 40.88 362.724C40.32 362.188 39.58 361.92 38.66 361.92H37.22V367.68ZM44.9087 368.208C44.3007 367.592 43.9967 366.836 43.9967 365.94C43.9967 365.044 44.3007 364.292 44.9087 363.684C45.5247 363.068 46.2807 362.76 47.1767 362.76C48.0727 362.76 48.8247 363.068 49.4327 363.684C50.0487 364.292 50.3567 365.044 50.3567 365.94C50.3567 366.836 50.0487 367.592 49.4327 368.208C48.8247 368.816 48.0727 369.12 47.1767 369.12C46.2807 369.12 45.5247 368.816 44.9087 368.208ZM45.8327 364.464C45.4887 364.832 45.3167 365.324 45.3167 365.94C45.3167 366.556 45.4887 367.052 45.8327 367.428C46.1767 367.796 46.6247 367.98 47.1767 367.98C47.7287 367.98 48.1767 367.796 48.5207 367.428C48.8647 367.052 49.0367 366.556 49.0367 365.94C49.0367 365.324 48.8647 364.832 48.5207 364.464C48.1767 364.088 47.7287 363.9 47.1767 363.9C46.6247 363.9 46.1767 364.088 45.8327 364.464ZM51.4348 369V362.88H52.6948V363.72H52.7548C52.8508 363.56 52.9988 363.4 53.1988 363.24C53.6308 362.92 54.1228 362.76 54.6748 362.76C55.4348 362.76 56.0228 362.98 56.4388 363.42C56.8628 363.86 57.0748 364.5 57.0748 365.34V369H55.8148V365.46C55.8148 364.924 55.6948 364.532 55.4548 364.284C55.2228 364.028 54.8628 363.9 54.3748 363.9C53.8868 363.9 53.4828 364.068 53.1628 364.404C52.8508 364.732 52.6948 365.164 52.6948 365.7V369H51.4348ZM58.9944 368.208C58.3944 367.592 58.0944 366.836 58.0944 365.94C58.0944 365.044 58.3944 364.292 58.9944 363.684C59.6024 363.068 60.3424 362.76 61.2144 362.76C62.0864 362.76 62.8224 363.068 63.4224 363.684C64.0304 364.292 64.3344 365.044 64.3344 365.94V366.36H59.3544C59.4504 366.864 59.6704 367.26 60.0144 367.548C60.3584 367.836 60.7584 367.98 61.2144 367.98C61.7744 367.98 62.2224 367.84 62.5584 367.56C62.7104 367.448 62.8424 367.308 62.9544 367.14H64.2744C64.1064 367.532 63.8944 367.864 63.6384 368.136C62.9824 368.792 62.1744 369.12 61.2144 369.12C60.3424 369.12 59.6024 368.816 58.9944 368.208ZM59.4144 365.34H63.0144C62.9424 364.94 62.7504 364.6 62.4384 364.32C62.1344 364.04 61.7264 363.9 61.2144 363.9C60.7824 363.9 60.3984 364.032 60.0624 364.296C59.7264 364.552 59.5104 364.9 59.4144 365.34Z" fill="black"/>
<rect x="30" y="395" width="193" height="15" fill="#F3F3F3"/>
<path d="M326.28 367.9V366.71L329.71 360.2H331.11L327.68 366.71H331.39V364.19H331.46H332.65V366.71H334.12V367.9H332.65V370H331.39V367.9H326.28Z" fill="#7E7E7E"/>
<g clip-path="url(#clip6_301_12048)">
<path d="M306.797 366.861L307.98 365.678L313.305 360.353C314.286 359.379 315.87 359.382 316.848 360.36C317.826 361.338 317.829 362.922 316.855 363.903L311.53 369.229C311.312 369.447 310.959 369.447 310.741 369.229C310.523 369.011 310.523 368.658 310.741 368.44L316.066 363.114C316.61 362.569 316.61 361.687 316.066 361.142C315.521 360.598 314.638 360.598 314.094 361.142L308.768 366.467L307.584 367.65C306.604 368.631 306.604 370.221 307.585 371.201C308.566 372.181 310.155 372.181 311.136 371.2L312.122 370.214L317.644 364.692L318.038 364.297C319.417 362.875 319.4 360.61 317.999 359.209C316.598 357.808 314.333 357.791 312.911 359.17L306.994 365.086C306.853 365.227 306.648 365.282 306.455 365.231C306.263 365.179 306.112 365.029 306.061 364.836C306.009 364.644 306.064 364.438 306.205 364.297L312.122 358.381C313.974 356.537 316.971 356.54 318.819 358.389C320.668 360.237 320.671 363.233 318.827 365.086L312.911 371.003L311.923 371.989C310.499 373.357 308.243 373.334 306.847 371.938C305.451 370.541 305.429 368.285 306.797 366.861Z" fill="#7E7E7E"/>
</g>
<g clip-path="url(#clip7_301_12048)">
<path d="M365.851 367.413L363.62 365.739V362.331C363.62 361.989 363.343 361.712 363.001 361.712C362.658 361.712 362.381 361.989 362.381 362.331V366.049C362.381 366.244 362.473 366.429 362.629 366.545L365.107 368.404C365.219 368.488 365.349 368.528 365.479 368.528C365.668 368.528 365.854 368.443 365.975 368.28C366.181 368.006 366.125 367.618 365.851 367.413Z" fill="#7E7E7E"/>
<path d="M363 358C358.589 358 355 361.589 355 366C355 370.411 358.589 374 363 374C367.411 374 371 370.411 371 366C371 361.589 367.411 358 363 358ZM363 372.761C359.273 372.761 356.239 369.727 356.239 366C356.239 362.273 359.273 359.239 363 359.239C366.728 359.239 369.761 362.273 369.761 366C369.761 369.727 366.727 372.761 363 372.761Z" fill="#7E7E7E"/>
</g>
<path d="M376.35 367.34H377.68C377.764 367.685 377.909 367.979 378.114 368.222C378.581 368.801 379.253 369.09 380.13 369.09C380.886 369.09 381.469 368.908 381.88 368.544C382.3 368.18 382.51 367.709 382.51 367.13C382.51 366.551 382.305 366.08 381.894 365.716C381.483 365.352 380.919 365.17 380.2 365.17H378.17V364.05L381.446 361.404L381.46 361.39H376.84V360.2H383.21V361.39L380.13 363.868L380.004 363.966L379.99 363.98H380.2C381.227 363.98 382.076 364.293 382.748 364.918C383.429 365.534 383.77 366.271 383.77 367.13C383.77 367.998 383.425 368.74 382.734 369.356C382.053 369.972 381.185 370.28 380.13 370.28C378.73 370.28 377.689 369.79 377.008 368.81C376.691 368.362 376.471 367.872 376.35 367.34ZM385.194 364.232C385.036 364.073 384.956 363.873 384.956 363.63C384.956 363.387 385.036 363.187 385.194 363.028C385.353 362.869 385.554 362.79 385.796 362.79C386.039 362.79 386.24 362.869 386.398 363.028C386.557 363.187 386.636 363.387 386.636 363.63C386.636 363.873 386.557 364.073 386.398 364.232C386.24 364.391 386.039 364.47 385.796 364.47C385.554 364.47 385.353 364.391 385.194 364.232ZM385.194 369.972C385.036 369.813 384.956 369.613 384.956 369.37C384.956 369.127 385.036 368.927 385.194 368.768C385.353 368.609 385.554 368.53 385.796 368.53C386.039 368.53 386.24 368.609 386.398 368.768C386.557 368.927 386.636 369.127 386.636 369.37C386.636 369.613 386.557 369.813 386.398 369.972C386.24 370.131 386.039 370.21 385.796 370.21C385.554 370.21 385.353 370.131 385.194 369.972ZM387.616 367.34H388.946C389.03 367.685 389.174 367.979 389.38 368.222C389.846 368.801 390.518 369.09 391.396 369.09C392.152 369.09 392.735 368.908 393.146 368.544C393.566 368.18 393.776 367.709 393.776 367.13C393.776 366.551 393.57 366.08 393.16 365.716C392.749 365.352 392.184 365.17 391.466 365.17H389.436V364.05L392.712 361.404L392.726 361.39H388.106V360.2H394.476V361.39L391.396 363.868L391.27 363.966L391.256 363.98H391.466C392.492 363.98 393.342 364.293 394.014 364.918C394.695 365.534 395.036 366.271 395.036 367.13C395.036 367.998 394.69 368.74 394 369.356C393.318 369.972 392.45 370.28 391.396 370.28C389.996 370.28 388.955 369.79 388.274 368.81C387.956 368.362 387.737 367.872 387.616 367.34ZM397.65 368.838C396.791 367.877 396.362 366.631 396.362 365.1C396.362 363.569 396.791 362.323 397.65 361.362C398.508 360.401 399.549 359.92 400.772 359.92C401.994 359.92 403.035 360.401 403.894 361.362C404.752 362.323 405.182 363.569 405.182 365.1C405.182 366.631 404.752 367.877 403.894 368.838C403.035 369.799 401.994 370.28 400.772 370.28C399.549 370.28 398.508 369.799 397.65 368.838ZM398.504 362.174C397.916 362.874 397.622 363.849 397.622 365.1C397.622 366.351 397.916 367.331 398.504 368.04C399.101 368.74 399.857 369.09 400.772 369.09C401.686 369.09 402.438 368.74 403.026 368.04C403.623 367.331 403.922 366.351 403.922 365.1C403.922 363.849 403.623 362.874 403.026 362.174C402.438 361.465 401.686 361.11 400.772 361.11C399.857 361.11 399.101 361.465 398.504 362.174Z" fill="#7E7E7E"/>
<rect x="425.5" y="355.5" width="24" height="19" rx="4.5" fill="white" stroke="#F24E1E"/>
<path d="M430.84 369V360.6H433.66C434.964 360.6 436.04 361.004 436.888 361.812C437.736 362.62 438.16 363.616 438.16 364.8C438.16 365.984 437.736 366.98 436.888 367.788C436.04 368.596 434.964 369 433.66 369H430.84ZM432.22 367.68H433.66C434.58 367.68 435.32 367.412 435.88 366.876C436.44 366.34 436.72 365.648 436.72 364.8C436.72 363.952 436.44 363.26 435.88 362.724C435.32 362.188 434.58 361.92 433.66 361.92H432.22V367.68ZM439.477 369V360.6H445.537V361.92H440.857V364.08H444.637V365.4H440.857V367.68H445.537V369H439.477Z" fill="#F24E1E"/>
<rect x="217" y="353" width="68" height="24" rx="5" fill="#1EE0A1"/>
<path d="M246.35 363.07V361.67L248.24 360.2H249.36V370H248.1V361.74L246.35 363.07ZM251.184 367.34H252.444C252.528 367.685 252.673 367.979 252.878 368.222C253.345 368.801 254.017 369.09 254.894 369.09C255.613 369.09 256.187 368.889 256.616 368.488C257.055 368.087 257.274 367.564 257.274 366.92C257.274 366.276 257.055 365.753 256.616 365.352C256.187 364.951 255.613 364.75 254.894 364.75C254.25 364.75 253.695 364.927 253.228 365.282C253.032 365.422 252.864 365.595 252.724 365.8H251.604L252.024 360.2H257.834V361.39H253.074L252.864 364.246V364.26C253.023 364.12 253.2 364.003 253.396 363.91C253.919 363.677 254.465 363.56 255.034 363.56C256.042 363.56 256.878 363.882 257.54 364.526C258.203 365.17 258.534 365.968 258.534 366.92C258.534 367.881 258.194 368.684 257.512 369.328C256.84 369.963 255.968 370.28 254.894 370.28C253.513 370.28 252.482 369.79 251.8 368.81C251.483 368.371 251.278 367.881 251.184 367.34ZM259.098 370L262.878 360.2H264.138L260.358 370H259.098ZM264.493 363.07V361.67L266.383 360.2H267.503V370H266.243V361.74L264.493 363.07ZM269.327 367.34H270.587C270.671 367.685 270.816 367.979 271.021 368.222C271.488 368.801 272.16 369.09 273.037 369.09C273.756 369.09 274.33 368.889 274.759 368.488C275.198 368.087 275.417 367.564 275.417 366.92C275.417 366.276 275.198 365.753 274.759 365.352C274.33 364.951 273.756 364.75 273.037 364.75C272.393 364.75 271.838 364.927 271.371 365.282C271.175 365.422 271.007 365.595 270.867 365.8H269.747L270.167 360.2H275.977V361.39H271.217L271.007 364.246V364.26C271.166 364.12 271.343 364.003 271.539 363.91C272.062 363.677 272.608 363.56 273.177 363.56C274.185 363.56 275.02 363.882 275.683 364.526C276.346 365.17 276.677 365.968 276.677 366.92C276.677 367.881 276.336 368.684 275.655 369.328C274.983 369.963 274.11 370.28 273.037 370.28C271.656 370.28 270.624 369.79 269.943 368.81C269.626 368.371 269.42 367.881 269.327 367.34Z" fill="black"/>
<g clip-path="url(#clip8_301_12048)">
<path d="M235.308 362.058L230.75 366.616L228.692 364.558C228.448 364.314 228.052 364.314 227.808 364.558C227.564 364.802 227.564 365.198 227.808 365.442L230.308 367.942C230.43 368.064 230.59 368.125 230.75 368.125C230.91 368.125 231.07 368.064 231.192 367.942L236.192 362.942C236.436 362.698 236.436 362.302 236.192 362.058C235.948 361.814 235.552 361.814 235.308 362.058Z" fill="black"/>
<path d="M238.125 357H225.875C224.841 357 224 357.841 224 358.875V371.125C224 372.159 224.841 373 225.875 373H238.125C239.159 373 240 372.159 240 371.125V358.875C240 357.841 239.159 357 238.125 357ZM238.75 371.125C238.75 371.47 238.47 371.75 238.125 371.75H225.875C225.53 371.75 225.25 371.47 225.25 371.125V358.875C225.25 358.53 225.53 358.25 225.875 358.25H238.125C238.47 358.25 238.75 358.53 238.75 358.875V371.125Z" fill="black"/>
</g>
<defs>
<filter id="filter0_d_301_12048" x="0" y="0" width="480" height="115" filterUnits="userSpaceOnUse" color-interpolation-filters="sRGB">
<feFlood flood-opacity="0" result="BackgroundImageFix"/>
<feColorMatrix in="SourceAlpha" type="matrix" values="0 0 0 0 0 0 0 0 0 0 0 0 0 0 0 0 0 0 127 0" result="hardAlpha"/>
<feOffset dy="5"/>
<feGaussianBlur stdDeviation="5"/>
<feColorMatrix type="matrix" values="0 0 0 0 0 0 0 0 0 0 0 0 0 0 0 0 0 0 0.2 0"/>
<feBlend mode="normal" in2="BackgroundImageFix" result="effect1_dropShadow_301_12048"/>
<feBlend mode="normal" in="SourceGraphic" in2="effect1_dropShadow_301_12048" result="shape"/>
</filter>
<filter id="filter1_d_301_12048" x="0" y="110" width="480" height="115" filterUnits="userSpaceOnUse" color-interpolation-filters="sRGB">
<feFlood flood-opacity="0" result="BackgroundImageFix"/>
<feColorMatrix in="SourceAlpha" type="matrix" values="0 0 0 0 0 0 0 0 0 0 0 0 0 0 0 0 0 0 127 0" result="hardAlpha"/>
<feOffset dy="5"/>
<feGaussianBlur stdDeviation="5"/>
<feColorMatrix type="matrix" values="0 0 0 0 0 0 0 0 0 0 0 0 0 0 0 0 0 0 0.2 0"/>
<feBlend mode="normal" in2="BackgroundImageFix" result="effect1_dropShadow_301_12048"/>
<feBlend mode="normal" in="SourceGraphic" in2="effect1_dropShadow_301_12048" result="shape"/>
</filter>
<filter id="filter2_d_301_12048" x="0" y="220" width="480" height="115" filterUnits="userSpaceOnUse" color-interpolation-filters="sRGB">
<feFlood flood-opacity="0" result="BackgroundImageFix"/>
<feColorMatrix in="SourceAlpha" type="matrix" values="0 0 0 0 0 0 0 0 0 0 0 0 0 0 0 0 0 0 127 0" result="hardAlpha"/>
<feOffset dy="5"/>
<feGaussianBlur stdDeviation="5"/>
<feColorMatrix type="matrix" values="0 0 0 0 0 0 0 0 0 0 0 0 0 0 0 0 0 0 0.2 0"/>
<feBlend mode="normal" in2="BackgroundImageFix" result="effect1_dropShadow_301_12048"/>
<feBlend mode="normal" in="SourceGraphic" in2="effect1_dropShadow_301_12048" result="shape"/>
</filter>
<filter id="filter3_d_301_12048" x="0" y="330" width="480" height="115" filterUnits="userSpaceOnUse" color-interpolation-filters="sRGB">
<feFlood flood-opacity="0" result="BackgroundImageFix"/>
<feColorMatrix in="SourceAlpha" type="matrix" values="0 0 0 0 0 0 0 0 0 0 0 0 0 0 0 0 0 0 127 0" result="hardAlpha"/>
<feOffset dy="5"/>
<feGaussianBlur stdDeviation="5"/>
<feColorMatrix type="matrix" values="0 0 0 0 0 0 0 0 0 0 0 0 0 0 0 0 0 0 0.2 0"/>
<feBlend mode="normal" in2="BackgroundImageFix" result="effect1_dropShadow_301_12048"/>
<feBlend mode="normal" in="SourceGraphic" in2="effect1_dropShadow_301_12048" result="shape"/>
</filter>
<clipPath id="clip0_301_12048">
<rect width="16" height="16" fill="white" transform="matrix(-1 0 0 1 326 27)"/>
</clipPath>
<clipPath id="clip1_301_12048">
<rect width="16" height="16" fill="white" transform="translate(358 28)"/>
</clipPath>
<clipPath id="clip2_301_12048">
<rect width="16" height="16" fill="white" transform="matrix(-1 0 0 1 323 137)"/>
</clipPath>
<clipPath id="clip3_301_12048">
<rect width="16" height="16" fill="white" transform="translate(245 138)"/>
</clipPath>
<clipPath id="clip4_301_12048">
<rect width="16" height="16" fill="white" transform="translate(355 138)"/>
</clipPath>
<clipPath id="clip5_301_12048">
<rect width="16" height="16" fill="white" transform="translate(349 248)"/>
</clipPath>
<clipPath id="clip6_301_12048">
<rect width="16" height="16" fill="white" transform="matrix(-1 0 0 1 321 357)"/>
</clipPath>
<clipPath id="clip7_301_12048">
<rect width="16" height="16" fill="white" transform="translate(355 358)"/>
</clipPath>
<clipPath id="clip8_301_12048">
<rect width="16" height="16" fill="white" transform="translate(224 357)"/>
</clipPath>
</defs>
</svg>
